<svg width="24" height="24" viewBox="0 0 24 24" fill="none" xmlns="http://www.w3.org/2000/svg">
<path d="M18.3575 5.44635C18.6512 5.15689 19.0422 4.99687 19.4478 5.00005C19.8534 5.00322 20.2419 5.16935 20.5314 5.46337C20.8209 5.7574 20.9887 6.15632 20.9995 6.57596C21.0102 6.9956 20.863 7.40315 20.5889 7.71259L12.2681 18.4826C12.125 18.6421 11.9523 18.7701 11.7603 18.859C11.5684 18.9478 11.3611 18.9957 11.1508 18.9997C10.9406 19.0038 10.7317 18.9639 10.5367 18.8824C10.3416 18.801 10.1645 18.6797 10.0158 18.5258L4.49781 12.8149C4.34414 12.6667 4.22089 12.488 4.1354 12.2894C4.04992 12.0908 4.00395 11.8765 4.00024 11.6591C3.99654 11.4418 4.03517 11.2259 4.11383 11.0243C4.1925 10.8228 4.30958 10.6397 4.4581 10.486C4.60662 10.3322 4.78354 10.2111 4.97829 10.1297C5.17304 10.0482 5.38165 10.0083 5.59165 10.0121C5.80166 10.0159 6.00877 10.0635 6.20063 10.152C6.39249 10.2404 6.56516 10.368 6.70835 10.527L11.0752 15.0444L18.3179 5.49383C18.3309 5.47721 18.3448 5.46136 18.3596 5.44635H18.3575Z" fill="url(#paint0_linear_9293_96487)"/>
<defs>
<linearGradient id="paint0_linear_9293_96487" x1="12.5" y1="5" x2="12.5" y2="19" gradientUnits="userSpaceOnUse">
<stop stop-color="#00B746"/>
<stop offset="1" stop-color="#03A03F"/>
</linearGradient>
</defs>
</svg>
