<svg width="24" height="24" viewBox="0 0 24 24" fill="none" xmlns="http://www.w3.org/2000/svg">
<path d="M23 12.0007C22.9993 14.0905 22.4033 16.137 21.2817 17.9004C20.1602 19.6638 18.5595 21.0712 16.667 21.9579C14.7746 22.8446 12.6687 23.1738 10.5959 22.9071C8.52316 22.6403 6.56927 21.7886 4.96299 20.4517L4.70699 20.7077C4.5195 20.8952 4.26519 21.0006 3.99999 21.0007C3.86854 21.0011 3.73833 20.9753 3.61699 20.9247C3.43431 20.8489 3.27818 20.7207 3.16836 20.5562C3.05854 20.3918 2.99994 20.1984 2.99999 20.0007V18.0007C2.99999 17.7354 3.10535 17.4811 3.29289 17.2936C3.48042 17.106 3.73478 17.0007 3.99999 17.0007H5.99999C6.19774 17.0007 6.39104 17.0594 6.55545 17.1693C6.71986 17.2791 6.848 17.4353 6.92367 17.618C6.99934 17.8007 7.01915 18.0017 6.98058 18.1957C6.94201 18.3897 6.8468 18.5678 6.70699 18.7077L6.38499 19.0297C7.97872 20.3019 9.95727 20.9953 11.9966 20.996C14.0358 20.9968 16.0149 20.305 17.6096 19.034C19.2043 17.7629 20.3201 15.9879 20.7741 13.9998C21.2281 12.0118 20.9935 9.92841 20.1087 8.09108C19.2239 6.25376 17.7413 4.77139 15.9039 3.88682C14.0665 3.00225 11.9831 2.76792 9.99505 3.22221C8.00702 3.6765 6.2322 4.79249 4.96135 6.38735C3.69049 7.98221 2.99895 9.96139 2.99999 12.0007C3.00011 12.6052 3.0604 13.2081 3.17999 13.8007C3.23304 14.0606 3.18066 14.3309 3.03438 14.5522C2.8881 14.7735 2.65991 14.9276 2.39999 14.9807C2.14008 15.0337 1.86974 14.9813 1.64845 14.8351C1.42716 14.6888 1.27304 14.4606 1.21999 14.2007C0.91417 12.6946 0.927337 11.1411 1.25864 9.64037C1.58995 8.13967 2.23205 6.72504 3.14354 5.48767C4.05504 4.25031 5.2157 3.21768 6.55071 2.45634C7.88572 1.69501 9.36545 1.22186 10.8945 1.06741C12.4236 0.91296 13.968 1.08063 15.4283 1.55961C16.8886 2.03859 18.2323 2.81826 19.3729 3.84835C20.5134 4.87843 21.4254 6.13608 22.0502 7.54022C22.6749 8.94436 22.9984 10.4638 23 12.0007ZM12 6.00066C11.7348 6.00066 11.4804 6.10602 11.2929 6.29356C11.1054 6.48109 11 6.73545 11 7.00066V13.0007C11 13.2659 11.1054 13.5202 11.2929 13.7078C11.4804 13.8953 11.7348 14.0007 12 14.0007H17C17.2652 14.0007 17.5196 13.8953 17.7071 13.7078C17.8946 13.5202 18 13.2659 18 13.0007C18 12.7354 17.8946 12.4811 17.7071 12.2936C17.5196 12.106 17.2652 12.0007 17 12.0007H13V7.00066C13 6.73545 12.8946 6.48109 12.7071 6.29356C12.5196 6.10602 12.2652 6.00066 12 6.00066Z" fill="url(#paint0_linear_9293_96475)"/>
<defs>
<linearGradient id="paint0_linear_9293_96475" x1="12" y1="1.01172" x2="12" y2="22.997" gradientUnits="userSpaceOnUse">
<stop stop-color="#00B746"/>
<stop offset="1" stop-color="#03A03F"/>
</linearGradient>
</defs>
</svg>
