<svg width="258" height="85" viewBox="0 0 258 85" fill="none" xmlns="http://www.w3.org/2000/svg">
<path d="M240.381 56.7402C254.424 44.3606 253.588 28.8632 227.262 12.2181C267.355 33.0314 264.36 47.5125 240.381 56.7402C203.122 89.5869 61.1165 100.483 12.5958 52.6246C32.1114 71.8746 187.423 77.1202 240.381 56.7402Z" fill="#008CF1"/>
<path fill-rule="evenodd" clip-rule="evenodd" d="M240.415 56.722L240.408 56.7083C254.417 44.3336 253.562 28.8473 227.256 12.2151C267.327 33.017 264.357 47.4936 240.415 56.722Z" fill="url(#paint0_linear_10134_392744)"/>
<path d="M31.2035 82.2208C-20.0404 61.9578 -21.5723 -42.2475 130.471 19.1213C31.2035 -5.62067 -30.7923 50.2217 31.2035 82.2208Z" fill="url(#paint1_linear_10134_392744)"/>
<path d="M26.3027 47.6747L34.9932 27.4522H38.722L47.3224 47.6747H43.8943L41.4585 41.7524H32.0462L29.5804 47.6747H26.3027ZM33.0687 39.239H40.4361L36.7674 30.3412L33.0687 39.239Z" fill="white"/>
<path d="M49.1318 47.6747V32.9701H52.1389V34.3856C53.2816 33.2493 54.715 32.6812 56.4391 32.6812C57.4816 32.6812 58.4038 32.9027 59.2057 33.3456C60.0276 33.7886 60.6791 34.3856 61.1603 35.1368C61.8018 34.3279 62.5536 33.7212 63.4156 33.3167C64.2777 32.893 65.25 32.6812 66.3325 32.6812C67.4752 32.6812 68.4676 32.9219 69.3096 33.4034C70.1716 33.8849 70.8432 34.559 71.3243 35.4257C71.8255 36.2923 72.0761 37.2938 72.0761 38.4301V47.6747H69.069V38.9212C69.069 37.7657 68.7482 36.8605 68.1067 36.2057C67.4852 35.5316 66.6332 35.1945 65.5507 35.1945C64.8089 35.1945 64.1373 35.3582 63.5359 35.6857C62.9345 36.0131 62.4132 36.5138 61.9722 37.1879C62.0123 37.3805 62.0424 37.5827 62.0624 37.7946C62.0825 38.0064 62.0925 38.2183 62.0925 38.4301V47.6747H59.1154V38.9212C59.1154 37.7657 58.7947 36.8605 58.1532 36.2057C57.5317 35.5316 56.6797 35.1945 55.5971 35.1945C54.8754 35.1945 54.2239 35.3486 53.6425 35.6568C53.0611 35.9457 52.5599 36.3886 52.1389 36.9857V47.6747H49.1318Z" fill="white"/>
<path d="M80.3736 47.9347C79.271 47.9347 78.2987 47.7517 77.4567 47.3858C76.6147 47.0006 75.9532 46.471 75.472 45.7969C74.9909 45.1228 74.7503 44.3428 74.7503 43.4568C74.7503 42.0702 75.3016 40.982 76.4042 40.1924C77.5069 39.3835 79.0204 38.979 80.945 38.979C82.4485 38.979 83.8418 39.2583 85.1249 39.8168V38.2568C85.1249 37.1975 84.8041 36.4079 84.1626 35.8879C83.5411 35.3679 82.6189 35.1079 81.396 35.1079C80.6944 35.1079 79.9627 35.2138 79.2009 35.4257C78.4391 35.6183 77.587 35.9264 76.6448 36.3501L75.5322 34.1834C76.6949 33.6634 77.7775 33.2879 78.7799 33.0567C79.7822 32.8064 80.7946 32.6812 81.817 32.6812C83.8017 32.6812 85.3354 33.1338 86.4179 34.039C87.5205 34.9442 88.0718 36.2346 88.0718 37.9101V47.6747H85.1249V46.4035C84.4433 46.9235 83.7115 47.3087 82.9297 47.5591C82.1478 47.8095 81.2958 47.9347 80.3736 47.9347ZM77.6372 43.3991C77.6372 44.1117 77.9479 44.6895 78.5694 45.1324C79.2109 45.5561 80.0428 45.768 81.0653 45.768C81.8672 45.768 82.5989 45.6621 83.2605 45.4502C83.9421 45.2191 84.5635 44.8628 85.1249 44.3813V41.8968C84.5435 41.5694 83.9321 41.3383 83.2905 41.2035C82.6691 41.0494 81.9674 40.9724 81.1856 40.9724C80.0829 40.9724 79.2109 41.1939 78.5694 41.6368C77.9479 42.0605 77.6372 42.6479 77.6372 43.3991Z" fill="white"/>
<path d="M90.6347 47.6747V45.5369L99.2351 35.4545H90.7249V32.9701H102.994V35.079L94.3936 45.1902H103.144V47.6747H90.6347Z" fill="white"/>
<path d="M112.704 47.9636C111.221 47.9636 109.868 47.6265 108.645 46.9524C107.442 46.2784 106.49 45.3635 105.788 44.208C105.086 43.0524 104.735 41.762 104.735 40.3368C104.735 38.9116 105.086 37.6212 105.788 36.4657C106.49 35.3101 107.442 34.3953 108.645 33.7212C109.868 33.0279 111.221 32.6812 112.704 32.6812C114.208 32.6812 115.561 33.0279 116.764 33.7212C117.967 34.3953 118.919 35.3101 119.621 36.4657C120.322 37.6212 120.673 38.9116 120.673 40.3368C120.673 41.762 120.322 43.0524 119.621 44.208C118.919 45.3635 117.967 46.2784 116.764 46.9524C115.561 47.6265 114.208 47.9636 112.704 47.9636ZM112.704 45.4213C113.647 45.4213 114.499 45.1998 115.26 44.7569C116.022 44.2946 116.624 43.6783 117.065 42.908C117.506 42.1376 117.726 41.2709 117.726 40.3079C117.726 39.3642 117.496 38.5168 117.035 37.7657C116.594 36.9953 115.992 36.379 115.23 35.9168C114.489 35.4545 113.647 35.2234 112.704 35.2234C111.762 35.2234 110.91 35.4545 110.148 35.9168C109.407 36.379 108.805 36.9953 108.344 37.7657C107.903 38.5168 107.682 39.3642 107.682 40.3079C107.682 41.2709 107.903 42.1376 108.344 42.908C108.785 43.6783 109.386 44.2946 110.148 44.7569C110.91 45.1998 111.762 45.4213 112.704 45.4213Z" fill="white"/>
<path d="M123.517 47.6747V32.9701H126.524V34.4723C127.707 33.2782 129.24 32.6812 131.125 32.6812C132.308 32.6812 133.34 32.9219 134.222 33.4034C135.124 33.8849 135.826 34.559 136.327 35.4257C136.848 36.2923 137.109 37.2938 137.109 38.4301V47.6747H134.102V38.9212C134.102 37.7657 133.761 36.8605 133.079 36.2057C132.418 35.5316 131.486 35.1945 130.283 35.1945C129.481 35.1945 128.759 35.3582 128.118 35.6857C127.476 36.0131 126.945 36.4849 126.524 37.1012V47.6747H123.517Z" fill="white"/>
<path d="M145.841 47.9636C144.518 47.9636 143.275 47.7806 142.112 47.4147C140.97 47.0295 139.977 46.4902 139.135 45.7969L140.789 43.8902C141.571 44.4872 142.373 44.9495 143.195 45.2769C144.037 45.585 144.889 45.7391 145.751 45.7391C146.833 45.7391 147.715 45.5369 148.397 45.1324C149.079 44.728 149.42 44.1983 149.42 43.5435C149.42 43.0043 149.219 42.5805 148.818 42.2724C148.417 41.9642 147.796 41.7524 146.954 41.6368L144.187 41.2613C142.664 41.0494 141.521 40.5968 140.759 39.9035C139.997 39.2101 139.616 38.2857 139.616 37.1301C139.616 36.2442 139.867 35.4738 140.368 34.819C140.869 34.1449 141.571 33.6249 142.473 33.259C143.375 32.8738 144.428 32.6812 145.631 32.6812C146.733 32.6812 147.796 32.8353 148.818 33.1434C149.841 33.4516 150.823 33.933 151.765 34.5879L150.231 36.4946C149.389 35.9553 148.568 35.5605 147.766 35.3101C146.984 35.0597 146.192 34.9345 145.39 34.9345C144.468 34.9345 143.726 35.1271 143.165 35.5123C142.603 35.8783 142.323 36.3597 142.323 36.9568C142.323 37.496 142.513 37.9198 142.894 38.2279C143.295 38.5168 143.947 38.719 144.849 38.8346L147.615 39.2101C149.139 39.422 150.292 39.8746 151.073 40.5679C151.855 41.242 152.246 42.1568 152.246 43.3124C152.246 44.1983 151.966 44.9976 151.404 45.7102C150.843 46.4035 150.081 46.9524 149.119 47.3569C148.157 47.7613 147.064 47.9636 145.841 47.9636Z" fill="white"/>
<path d="M162.041 47.9347C160.538 47.9347 159.174 47.5976 157.952 46.9235C156.749 46.2495 155.786 45.3346 155.065 44.1791C154.363 43.0235 154.012 41.7331 154.012 40.3079C154.012 38.902 154.353 37.6309 155.035 36.4946C155.716 35.339 156.638 34.4242 157.801 33.7501C158.964 33.0567 160.257 32.7101 161.68 32.7101C163.104 32.7101 164.367 33.0567 165.469 33.7501C166.572 34.4242 167.444 35.3486 168.086 36.5234C168.747 37.679 169.078 38.9887 169.078 40.4524V41.2613H157.019C157.18 42.0702 157.49 42.7924 157.952 43.428C158.433 44.0635 159.034 44.5643 159.756 44.9302C160.498 45.2961 161.299 45.4791 162.161 45.4791C162.903 45.4791 163.615 45.3732 164.297 45.1613C164.998 44.9302 165.58 44.6028 166.041 44.1791L167.965 45.9991C167.063 46.6539 166.131 47.145 165.169 47.4724C164.226 47.7806 163.184 47.9347 162.041 47.9347ZM157.049 39.0946H166.101C165.981 38.3242 165.7 37.6501 165.259 37.0723C164.838 36.4753 164.307 36.0131 163.665 35.6857C163.044 35.339 162.362 35.1657 161.62 35.1657C160.858 35.1657 160.157 35.3294 159.515 35.6568C158.874 35.9842 158.332 36.4464 157.891 37.0435C157.47 37.6212 157.19 38.3049 157.049 39.0946Z" fill="white"/>
<path d="M171.942 47.6747V32.9701H174.949V34.8479C175.43 34.1545 176.022 33.6153 176.723 33.2301C177.445 32.8256 178.257 32.6234 179.159 32.6234C179.78 32.6427 180.292 32.7293 180.693 32.8834V35.4834C180.412 35.3679 180.121 35.2908 179.821 35.2523C179.52 35.1945 179.219 35.1657 178.918 35.1657C178.036 35.1657 177.254 35.3968 176.573 35.859C175.891 36.302 175.35 36.9568 174.949 37.8235V47.6747H171.942Z" fill="white"/>
<path d="M188.473 47.6747L181.858 32.9701H185.165L189.947 43.9769L194.728 32.9701H197.916L191.36 47.6747H188.473Z" fill="white"/>
<path d="M199.781 47.6747V32.9701H202.788V47.6747H199.781ZM201.285 30.6012C200.784 30.6012 200.353 30.4278 199.992 30.0812C199.631 29.7152 199.45 29.2915 199.45 28.81C199.45 28.3093 199.631 27.8952 199.992 27.5678C200.353 27.2211 200.784 27.0478 201.285 27.0478C201.806 27.0478 202.247 27.2211 202.608 27.5678C202.969 27.8952 203.149 28.3093 203.149 28.81C203.149 29.2915 202.969 29.7152 202.608 30.0812C202.247 30.4278 201.806 30.6012 201.285 30.6012Z" fill="white"/>
<path d="M213.517 47.9347C212.053 47.9347 210.72 47.5976 209.517 46.9235C208.315 46.2495 207.362 45.3346 206.661 44.1791C205.979 43.0235 205.638 41.7331 205.638 40.3079C205.638 38.8827 205.989 37.602 206.691 36.4657C207.392 35.3101 208.335 34.3953 209.517 33.7212C210.72 33.0279 212.053 32.6812 213.517 32.6812C214.68 32.6812 215.792 32.893 216.855 33.3167C217.937 33.7405 218.87 34.3375 219.651 35.1079L217.787 37.1012C217.206 36.4849 216.554 36.0227 215.832 35.7145C215.111 35.4064 214.359 35.2523 213.577 35.2523C212.655 35.2523 211.813 35.4738 211.051 35.9168C210.309 36.3597 209.718 36.9664 209.277 37.7368C208.836 38.5072 208.615 39.3642 208.615 40.3079C208.615 41.2516 208.836 42.1087 209.277 42.8791C209.718 43.6494 210.319 44.2657 211.081 44.728C211.843 45.1709 212.695 45.3924 213.637 45.3924C214.419 45.3924 215.151 45.248 215.832 44.9591C216.514 44.6509 217.155 44.208 217.757 43.6302L219.591 45.4791C218.789 46.2687 217.857 46.8754 216.795 47.2991C215.752 47.7228 214.66 47.9347 213.517 47.9347Z" fill="white"/>
<path d="M228.908 47.9347C227.405 47.9347 226.042 47.5976 224.819 46.9235C223.616 46.2495 222.654 45.3346 221.932 44.1791C221.23 43.0235 220.879 41.7331 220.879 40.3079C220.879 38.902 221.22 37.6309 221.902 36.4946C222.583 35.339 223.506 34.4242 224.668 33.7501C225.831 33.0567 227.124 32.7101 228.548 32.7101C229.971 32.7101 231.234 33.0567 232.336 33.7501C233.439 34.4242 234.311 35.3486 234.953 36.5234C235.614 37.679 235.945 38.9887 235.945 40.4524V41.2613H223.886C224.047 42.0702 224.358 42.7924 224.819 43.428C225.3 44.0635 225.901 44.5643 226.623 44.9302C227.365 45.2961 228.167 45.4791 229.029 45.4791C229.77 45.4791 230.482 45.3732 231.164 45.1613C231.865 44.9302 232.447 44.6028 232.908 44.1791L234.832 45.9991C233.93 46.6539 232.998 47.145 232.036 47.4724C231.094 47.7806 230.051 47.9347 228.908 47.9347ZM223.917 39.0946H232.968C232.848 38.3242 232.567 37.6501 232.126 37.0723C231.705 36.4753 231.174 36.0131 230.532 35.6857C229.911 35.339 229.229 35.1657 228.487 35.1657C227.726 35.1657 227.024 35.3294 226.382 35.6568C225.741 35.9842 225.2 36.4464 224.759 37.0435C224.338 37.6212 224.057 38.3049 223.917 39.0946Z" fill="white"/>
<defs>
<linearGradient id="paint0_linear_10134_392744" x1="129" y1="0" x2="129" y2="85" gradientUnits="userSpaceOnUse">
<stop stop-color="#F5CF00"/>
<stop offset="1" stop-color="#F5C106"/>
<stop offset="1" stop-color="#F2CC00"/>
</linearGradient>
<linearGradient id="paint1_linear_10134_392744" x1="129" y1="0" x2="129" y2="85" gradientUnits="userSpaceOnUse">
<stop stop-color="#00B746"/>
<stop offset="1" stop-color="#03A03F"/>
</linearGradient>
</defs>
</svg>
