<svg width="146" height="88" viewBox="0 0 146 88" fill="none" xmlns="http://www.w3.org/2000/svg">
<g filter="url(#filter0_d_10136_1444)">
<path d="M126.865 42.112C133.667 36.0623 133.262 28.4889 120.509 20.3547C139.931 30.5259 138.48 37.6026 126.865 42.112C108.816 58.1638 40.0274 63.4887 16.5236 40.1008C25.9772 49.508 101.211 52.0715 126.865 42.112Z" fill="#008CF1"/>
</g>
<path fill-rule="evenodd" clip-rule="evenodd" d="M126.881 42.1034L126.878 42.0967C133.664 36.0494 133.249 28.4814 120.507 20.3535C139.918 30.5191 138.479 37.5936 126.881 42.1034Z" fill="url(#paint0_linear_10136_1444)"/>
<g opacity="0.8" filter="url(#filter1_d_10136_1444)">
<path d="M25.5374 54.5645C0.714521 44.6622 -0.0275441 -6.2615 73.6231 23.7286C25.5374 11.6375 -4.49381 38.9269 25.5374 54.5645Z" fill="url(#paint1_linear_10136_1444)"/>
</g>
<path d="M23.1633 37.6816L27.3731 27.7992H29.1794L33.3454 37.6816H31.6848L30.5049 34.7875H25.9456L24.7511 37.6816H23.1633ZM26.4408 33.5592H30.0097L28.2325 29.211L26.4408 33.5592Z" fill="white"/>
<path d="M34.2219 37.6816V30.4957H35.6786V31.1875C36.2321 30.6322 36.9265 30.3545 37.7616 30.3545C38.2666 30.3545 38.7133 30.4628 39.1018 30.6792C39.4999 30.8957 39.8155 31.1875 40.0486 31.5545C40.3594 31.1592 40.7235 30.8628 41.1411 30.6651C41.5587 30.4581 42.0297 30.3545 42.5541 30.3545C43.1076 30.3545 43.5883 30.4722 43.9962 30.7075C44.4138 30.9428 44.7391 31.2722 44.9721 31.6957C45.2149 32.1192 45.3363 32.6087 45.3363 33.164V37.6816H43.8796V33.404C43.8796 32.8392 43.7243 32.3969 43.4135 32.0769C43.1125 31.7475 42.6997 31.5828 42.1753 31.5828C41.816 31.5828 41.4907 31.6628 41.1994 31.8228C40.908 31.9828 40.6556 32.2275 40.4419 32.5569C40.4613 32.651 40.4759 32.7498 40.4856 32.8534C40.4953 32.9569 40.5002 33.0604 40.5002 33.164V37.6816H39.0581V33.404C39.0581 32.8392 38.9027 32.3969 38.5919 32.0769C38.2909 31.7475 37.8782 31.5828 37.3538 31.5828C37.0042 31.5828 36.6886 31.6581 36.4069 31.8086C36.1253 31.9498 35.8825 32.1663 35.6786 32.4581V37.6816H34.2219Z" fill="white"/>
<path d="M49.3557 37.8087C48.8216 37.8087 48.3506 37.7193 47.9427 37.5405C47.5349 37.3522 47.2144 37.0934 46.9813 36.764C46.7483 36.4346 46.6317 36.0534 46.6317 35.6204C46.6317 34.9428 46.8988 34.411 47.4329 34.0251C47.967 33.6298 48.7002 33.4322 49.6325 33.4322C50.3608 33.4322 51.0357 33.5687 51.6572 33.8416V33.0792C51.6572 32.5616 51.5018 32.1757 51.1911 31.9216C50.89 31.6675 50.4433 31.5404 49.851 31.5404C49.5111 31.5404 49.1566 31.5922 48.7876 31.6957C48.4186 31.7898 48.0058 31.9404 47.5494 32.1475L47.0105 31.0886C47.5737 30.8345 48.0981 30.651 48.5837 30.5381C49.0692 30.4157 49.5596 30.3545 50.0549 30.3545C51.0163 30.3545 51.7592 30.5757 52.2836 31.0181C52.8177 31.4604 53.0848 32.091 53.0848 32.9098V37.6816H51.6572V37.0604C51.327 37.3146 50.9726 37.5028 50.5939 37.6252C50.2151 37.7475 49.8024 37.8087 49.3557 37.8087ZM48.0301 35.5922C48.0301 35.9404 48.1806 36.2228 48.4817 36.4393C48.7924 36.6463 49.1955 36.7499 49.6907 36.7499C50.0792 36.7499 50.4336 36.6981 50.7541 36.5946C51.0843 36.4816 51.3853 36.3075 51.6572 36.0722V34.8581C51.3756 34.6981 51.0794 34.5851 50.7687 34.5193C50.4676 34.444 50.1277 34.4063 49.749 34.4063C49.2149 34.4063 48.7924 34.5146 48.4817 34.731C48.1806 34.9381 48.0301 35.2251 48.0301 35.5922Z" fill="white"/>
<path d="M54.3262 37.6816V36.6369L58.4923 31.7098H54.3699V30.4957H60.3131V31.5263L56.1471 36.4675H60.386V37.6816H54.3262Z" fill="white"/>
<path d="M65.0169 37.8228C64.2983 37.8228 63.6428 37.6581 63.0504 37.3287C62.4677 36.9993 62.0065 36.5522 61.6666 35.9875C61.3267 35.4228 61.1567 34.7922 61.1567 34.0957C61.1567 33.3992 61.3267 32.7687 61.6666 32.2039C62.0065 31.6392 62.4677 31.1922 63.0504 30.8628C63.6428 30.5239 64.2983 30.3545 65.0169 30.3545C65.7452 30.3545 66.4007 30.5239 66.9834 30.8628C67.5661 31.1922 68.0274 31.6392 68.3672 32.2039C68.7071 32.7687 68.8771 33.3992 68.8771 34.0957C68.8771 34.7922 68.7071 35.4228 68.3672 35.9875C68.0274 36.5522 67.5661 36.9993 66.9834 37.3287C66.4007 37.6581 65.7452 37.8228 65.0169 37.8228ZM65.0169 36.5804C65.4733 36.5804 65.8861 36.4722 66.2551 36.2557C66.6241 36.0299 66.9154 35.7287 67.1291 35.3522C67.3427 34.9757 67.4495 34.5522 67.4495 34.0816C67.4495 33.6204 67.3379 33.2063 67.1145 32.8392C66.9009 32.4628 66.6095 32.1616 66.2405 31.9357C65.8812 31.7098 65.4733 31.5969 65.0169 31.5969C64.5605 31.5969 64.1478 31.7098 63.7787 31.9357C63.4194 32.1616 63.1281 32.4628 62.9047 32.8392C62.6911 33.2063 62.5843 33.6204 62.5843 34.0816C62.5843 34.5522 62.6911 34.9757 62.9047 35.3522C63.1184 35.7287 63.4097 36.0299 63.7787 36.2557C64.1478 36.4722 64.5605 36.5804 65.0169 36.5804Z" fill="white"/>
<path d="M70.2545 37.6816V30.4957H71.7112V31.2298C72.2842 30.6463 73.0271 30.3545 73.9399 30.3545C74.5129 30.3545 75.013 30.4722 75.4403 30.7075C75.8773 30.9428 76.2172 31.2722 76.4599 31.6957C76.7124 32.1192 76.8387 32.6087 76.8387 33.164V37.6816H75.382V33.404C75.382 32.8392 75.2169 32.3969 74.8867 32.0769C74.5663 31.7475 74.1147 31.5828 73.532 31.5828C73.1436 31.5828 72.794 31.6628 72.4832 31.8228C72.1725 31.9828 71.9151 32.2134 71.7112 32.5145V37.6816H70.2545Z" fill="white"/>
<path d="M81.0686 37.8228C80.4276 37.8228 79.8256 37.7334 79.2623 37.5546C78.7088 37.3663 78.2281 37.1028 77.8202 36.764L78.6214 35.8322C79.0001 36.124 79.3886 36.3499 79.7867 36.5099C80.1946 36.6604 80.6073 36.7357 81.0249 36.7357C81.5493 36.7357 81.9766 36.6369 82.3067 36.4393C82.6369 36.2416 82.802 35.9828 82.802 35.6628C82.802 35.3993 82.7049 35.1922 82.5107 35.0416C82.3165 34.891 82.0154 34.7875 81.6075 34.731L80.2674 34.5475C79.5294 34.444 78.9758 34.2228 78.6068 33.884C78.2378 33.5451 78.0533 33.0934 78.0533 32.5287C78.0533 32.0957 78.1747 31.7192 78.4174 31.3992C78.6602 31.0698 79.0001 30.8157 79.4371 30.6369C79.8741 30.4486 80.3839 30.3545 80.9666 30.3545C81.5007 30.3545 82.0154 30.4298 82.5107 30.5804C83.0059 30.731 83.4818 30.9663 83.9382 31.2863L83.1953 32.2181C82.7875 31.9545 82.3893 31.7616 82.0009 31.6392C81.6221 31.5169 81.2385 31.4557 80.8501 31.4557C80.4034 31.4557 80.0441 31.5498 79.7722 31.7381C79.5002 31.9169 79.3643 32.1522 79.3643 32.4439C79.3643 32.7075 79.4565 32.9145 79.641 33.0651C79.8353 33.2063 80.1509 33.3051 80.5879 33.3616L81.928 33.5451C82.6661 33.6487 83.2244 33.8698 83.6032 34.2087C83.9819 34.5381 84.1713 34.9851 84.1713 35.5499C84.1713 35.9828 84.0353 36.3734 83.7634 36.7216C83.4915 37.0604 83.1225 37.3287 82.6564 37.5263C82.1902 37.724 81.661 37.8228 81.0686 37.8228Z" fill="white"/>
<path d="M88.916 37.8087C88.1877 37.8087 87.5274 37.644 86.935 37.3146C86.3523 36.9852 85.8862 36.5381 85.5366 35.9734C85.1967 35.4087 85.0267 34.7781 85.0267 34.0816C85.0267 33.3945 85.1918 32.7734 85.522 32.2181C85.8522 31.6534 86.2989 31.2063 86.8621 30.8769C87.4254 30.5381 88.0518 30.3686 88.7412 30.3686C89.4307 30.3686 90.0425 30.5381 90.5766 30.8769C91.1107 31.2063 91.5332 31.6581 91.8439 32.2322C92.1644 32.7969 92.3246 33.4369 92.3246 34.1522V34.5475H86.4834C86.5611 34.9428 86.7116 35.2957 86.935 35.6063C87.168 35.9169 87.4594 36.1616 87.809 36.3404C88.1683 36.5193 88.5567 36.6087 88.9743 36.6087C89.3336 36.6087 89.6784 36.5569 90.0085 36.4534C90.3484 36.3404 90.63 36.1804 90.8534 35.9734L91.7857 36.8628C91.3487 37.1828 90.8971 37.4228 90.431 37.5828C89.9745 37.7334 89.4696 37.8087 88.916 37.8087ZM86.498 33.4887H90.8825C90.8243 33.1122 90.6883 32.7828 90.4747 32.5004C90.2707 32.2087 90.0134 31.9828 89.7026 31.8228C89.4016 31.6534 89.0714 31.5686 88.7121 31.5686C88.3431 31.5686 88.0032 31.6486 87.6924 31.8086C87.3817 31.9687 87.1195 32.1945 86.9058 32.4863C86.7019 32.7687 86.5659 33.1028 86.498 33.4887Z" fill="white"/>
<path d="M93.712 37.6816V30.4957H95.1687V31.4134C95.4017 31.0745 95.6882 30.811 96.0281 30.6228C96.3777 30.4251 96.771 30.3263 97.208 30.3263C97.509 30.3357 97.7567 30.3781 97.9509 30.4533V31.7239C97.8149 31.6675 97.6741 31.6298 97.5285 31.611C97.3828 31.5828 97.2371 31.5686 97.0915 31.5686C96.6642 31.5686 96.2854 31.6816 95.9553 31.9075C95.6251 32.1239 95.3629 32.4439 95.1687 32.8675V37.6816H93.712Z" fill="white"/>
<path d="M101.72 37.6816L98.5152 30.4957H100.118L102.434 35.8746L104.75 30.4957H106.294L103.118 37.6816H101.72Z" fill="white"/>
<path d="M107.198 37.6816V30.4957H108.654V37.6816H107.198ZM107.926 29.338C107.683 29.338 107.474 29.2533 107.3 29.0839C107.125 28.9051 107.037 28.698 107.037 28.4627C107.037 28.218 107.125 28.0157 107.3 27.8557C107.474 27.6863 107.683 27.6016 107.926 27.6016C108.178 27.6016 108.392 27.6863 108.567 27.8557C108.742 28.0157 108.829 28.218 108.829 28.4627C108.829 28.698 108.742 28.9051 108.567 29.0839C108.392 29.2533 108.178 29.338 107.926 29.338Z" fill="white"/>
<path d="M113.851 37.8087C113.142 37.8087 112.497 37.644 111.914 37.3146C111.331 36.9852 110.87 36.5381 110.53 35.9734C110.2 35.4087 110.035 34.7781 110.035 34.0816C110.035 33.3851 110.205 32.7592 110.545 32.2039C110.884 31.6392 111.341 31.1922 111.914 30.8628C112.497 30.5239 113.142 30.3545 113.851 30.3545C114.414 30.3545 114.953 30.4581 115.468 30.6651C115.993 30.8722 116.444 31.1639 116.823 31.5404L115.92 32.5145C115.638 32.2134 115.322 31.9875 114.973 31.8369C114.623 31.6863 114.259 31.611 113.88 31.611C113.434 31.611 113.026 31.7192 112.657 31.9357C112.297 32.1522 112.011 32.4487 111.797 32.8251C111.584 33.2016 111.477 33.6204 111.477 34.0816C111.477 34.5428 111.584 34.9616 111.797 35.3381C112.011 35.7146 112.302 36.0157 112.671 36.2416C113.04 36.4581 113.453 36.5663 113.909 36.5663C114.288 36.5663 114.643 36.4957 114.973 36.3546C115.303 36.204 115.614 35.9875 115.905 35.7051L116.794 36.6087C116.405 36.9946 115.954 37.291 115.439 37.4981C114.934 37.7052 114.405 37.8087 113.851 37.8087Z" fill="white"/>
<path d="M121.307 37.8087C120.579 37.8087 119.918 37.644 119.326 37.3146C118.743 36.9852 118.277 36.5381 117.927 35.9734C117.588 35.4087 117.418 34.7781 117.418 34.0816C117.418 33.3945 117.583 32.7734 117.913 32.2181C118.243 31.6534 118.69 31.2063 119.253 30.8769C119.816 30.5381 120.443 30.3686 121.132 30.3686C121.822 30.3686 122.433 30.5381 122.968 30.8769C123.502 31.2063 123.924 31.6581 124.235 32.2322C124.555 32.7969 124.716 33.4369 124.716 34.1522V34.5475H118.874C118.952 34.9428 119.103 35.2957 119.326 35.6063C119.559 35.9169 119.85 36.1616 120.2 36.3404C120.559 36.5193 120.948 36.6087 121.365 36.6087C121.725 36.6087 122.069 36.5569 122.399 36.4534C122.739 36.3404 123.021 36.1804 123.244 35.9734L124.177 36.8628C123.74 37.1828 123.288 37.4228 122.822 37.5828C122.365 37.7334 121.861 37.8087 121.307 37.8087ZM118.889 33.4887H123.273C123.215 33.1122 123.079 32.7828 122.866 32.5004C122.662 32.2087 122.404 31.9828 122.094 31.8228C121.793 31.6534 121.462 31.5686 121.103 31.5686C120.734 31.5686 120.394 31.6486 120.083 31.8086C119.773 31.9687 119.51 32.1945 119.297 32.4863C119.093 32.7687 118.957 33.1028 118.889 33.4887Z" fill="white"/>
<defs>
<filter id="filter0_d_10136_1444" x="6.52368" y="11.3545" width="138.875" height="55.5674" filterUnits="userSpaceOnUse" color-interpolation-filters="sRGB">
<feFlood flood-opacity="0" result="BackgroundImageFix"/>
<feColorMatrix in="SourceAlpha" type="matrix" values="0 0 0 0 0 0 0 0 0 0 0 0 0 0 0 0 0 0 127 0" result="hardAlpha"/>
<feOffset dy="1"/>
<feGaussianBlur stdDeviation="5"/>
<feComposite in2="hardAlpha" operator="out"/>
<feColorMatrix type="matrix" values="0 0 0 0 0.0230625 0 0 0 0 0.156236 0 0 0 0 0.3375 0 0 0 0.1 0"/>
<feBlend mode="normal" in2="BackgroundImageFix" result="effect1_dropShadow_10136_1444"/>
<feBlend mode="normal" in="SourceGraphic" in2="effect1_dropShadow_10136_1444" result="shape"/>
</filter>
<filter id="filter1_d_10136_1444" x="0.422119" y="5.38379" width="83.2009" height="60.1807" filterUnits="userSpaceOnUse" color-interpolation-filters="sRGB">
<feFlood flood-opacity="0" result="BackgroundImageFix"/>
<feColorMatrix in="SourceAlpha" type="matrix" values="0 0 0 0 0 0 0 0 0 0 0 0 0 0 0 0 0 0 127 0" result="hardAlpha"/>
<feOffset dy="1"/>
<feGaussianBlur stdDeviation="5"/>
<feComposite in2="hardAlpha" operator="out"/>
<feColorMatrix type="matrix" values="0 0 0 0 0.0230625 0 0 0 0 0.156236 0 0 0 0 0.3375 0 0 0 0.1 0"/>
<feBlend mode="normal" in2="BackgroundImageFix" result="effect1_dropShadow_10136_1444"/>
<feBlend mode="normal" in="SourceGraphic" in2="effect1_dropShadow_10136_1444" result="shape"/>
</filter>
<linearGradient id="paint0_linear_10136_1444" x1="127.952" y1="20.3535" x2="127.952" y2="42.1034" gradientUnits="userSpaceOnUse">
<stop stop-color="#F5CF00"/>
<stop offset="1" stop-color="#F5C106"/>
<stop offset="1" stop-color="#F2CC00"/>
</linearGradient>
<linearGradient id="paint1_linear_10136_1444" x1="60.9597" y1="45.6323" x2="15.4616" y2="19.3283" gradientUnits="userSpaceOnUse">
<stop stop-color="#00B746"/>
<stop offset="1" stop-color="#03A03F"/>
</linearGradient>
</defs>
</svg>
