<svg width="136" height="136" viewBox="0 0 136 136" fill="none" xmlns="http://www.w3.org/2000/svg">
<circle cx="68" cy="68" r="68" fill="#E0E0E0"/>
<g clip-path="url(#clip0_1164_16965)">
<path d="M53.6559 49C53.3 49.0005 52.9487 49.081 52.628 49.2356C52.3073 49.3902 52.0255 49.6148 51.8034 49.893L37.3159 68H58.5009C59.1308 68 59.7349 68.2502 60.1803 68.6956C60.6257 69.141 60.8759 69.7451 60.8759 70.375C60.8759 72.2647 61.6266 74.0769 62.9628 75.4131C64.299 76.7493 66.1112 77.5 68.0009 77.5C69.8906 77.5 71.7029 76.7493 73.0391 75.4131C74.3752 74.0769 75.1259 72.2647 75.1259 70.375C75.1259 69.7451 75.3761 69.141 75.8215 68.6956C76.2669 68.2502 76.871 68 77.5009 68H98.6859L84.1984 49.893C83.9763 49.6148 83.6945 49.3902 83.3738 49.2356C83.0532 49.081 82.7019 49.0005 82.3459 49H53.6559ZM100.937 72.75H79.6384C79.0933 75.4344 77.6369 77.8479 75.516 79.5814C73.3951 81.3149 70.7401 82.2619 68.0009 82.2619C65.2617 82.2619 62.6067 81.3149 60.4858 79.5814C58.3649 77.8479 56.9085 75.4344 56.3634 72.75H35.0644L36.5844 84.9195C36.6563 85.4946 36.936 86.0236 37.3708 86.4068C37.8056 86.79 38.3656 87.001 38.9452 87H97.0567C97.6354 86.9998 98.1942 86.7883 98.6281 86.4052C99.0619 86.0221 99.3409 85.4938 99.4127 84.9195L100.933 72.75H100.937ZM48.0937 46.9243C48.7615 46.0894 49.6087 45.4155 50.5723 44.9526C51.536 44.4897 52.5916 44.2495 53.6607 44.25H82.3412C83.4103 44.2495 84.4658 44.4897 85.4295 44.9526C86.3932 45.4155 87.2403 46.0894 87.9082 46.9243L105.483 68.893C105.681 69.1409 105.826 69.4257 105.912 69.7308C105.998 70.0359 106.022 70.3551 105.982 70.6695L104.129 85.5085C103.914 87.2322 103.076 88.8179 101.774 89.9673C100.471 91.1167 98.7938 91.7507 97.0567 91.75H38.9452C37.208 91.7507 35.5305 91.1167 34.228 89.9673C32.9255 88.8179 32.0878 87.2322 31.8724 85.5085L30.0199 70.6695C29.981 70.3548 30.0055 70.0354 30.092 69.7303C30.1784 69.4252 30.3251 69.1405 30.5234 68.893L48.0984 46.9243H48.0937Z" fill="#C4C4C4"/>
</g>
<defs>
<clipPath id="clip0_1164_16965">
<rect width="76" height="76" fill="white" transform="translate(30 30)"/>
</clipPath>
</defs>
</svg>
