<svg width="71" height="71" viewBox="0 0 71 71" fill="none" xmlns="http://www.w3.org/2000/svg">
<rect width="71" height="71"/>
<path d="M21.722 51.7875C-1.0865 37.1039 44.4899 13.8084 63.4609 32.7976C52.553 25.8869 15.7505 32.7976 21.722 51.7875Z" fill="#006CFF"/>
<path d="M21.6731 51.6732C0.928311 44.1118 -5.71023 2.9186 55.868 25.8913C28.7697 19.5588 -3.58961 39.2995 21.6731 51.6732Z" fill="url(#paint0_linear_7667_318569)"/>
<path d="M64 34.5166C44.4723 26.1555 21.7214 37.6252 21.7214 51.7773C34.9535 37.2248 47.2395 36.0793 63.5916 34.5547L64 34.5166Z" fill="url(#paint1_linear_7667_318569)"/>
<path d="M36.3959 49.1784H43.1505V51.7018H33.8902V35.6441H43.0416V38.1675H36.3959V42.3425H42.4968V44.8429H36.3959V49.1784Z" fill="#001029"/>
<path d="M50.5212 52C49.054 52 47.8048 51.6483 46.7735 50.9448C45.7566 50.2413 45.0449 49.2778 44.6381 48.0544L46.7952 46.7239C47.4053 48.5285 48.6691 49.4308 50.5865 49.4308C51.5307 49.4308 52.2352 49.2396 52.7001 48.8573C53.1794 48.4597 53.4191 47.9473 53.4191 47.3203C53.4191 46.6627 53.1649 46.1657 52.6565 45.8293C52.1481 45.4775 51.2475 45.0952 49.9547 44.6823C49.2284 44.4529 48.64 44.2388 48.1897 44.04C47.7394 43.8412 47.2601 43.5659 46.7517 43.2142C46.2578 42.8471 45.8874 42.396 45.6404 41.8607C45.3935 41.3255 45.27 40.6985 45.27 39.9797C45.27 38.5574 45.7494 37.4334 46.7081 36.6076C47.6668 35.7665 48.8216 35.3459 50.1725 35.3459C51.3927 35.3459 52.4604 35.6594 53.3755 36.2864C54.2907 36.9134 54.9952 37.7775 55.4891 38.8786L53.3755 40.1632C52.7364 38.6645 51.6687 37.9151 50.1725 37.9151C49.4462 37.9151 48.8652 38.0986 48.4294 38.4657C47.9936 38.8174 47.7757 39.2991 47.7757 39.9109C47.7757 40.5073 47.9936 40.9814 48.4294 41.3331C48.8797 41.6696 49.6859 42.0289 50.848 42.4113C51.429 42.6101 51.8503 42.763 52.1118 42.8701C52.3878 42.9618 52.7654 43.1148 53.2448 43.3289C53.7387 43.543 54.1091 43.7571 54.356 43.9712C54.603 44.1853 54.8644 44.4529 55.1404 44.774C55.431 45.0952 55.6343 45.4622 55.7505 45.8751C55.8667 46.2881 55.9248 46.7545 55.9248 47.2745C55.9248 48.7273 55.4237 49.8819 54.4214 50.7383C53.4336 51.5794 52.1336 52 50.5212 52Z" fill="#001029"/>
<defs>
<linearGradient id="paint0_linear_7667_318569" x1="35.5" y1="19" x2="35.5" y2="52" gradientUnits="userSpaceOnUse">
<stop stop-color="#00B746"/>
<stop offset="1" stop-color="#03A03F"/>
</linearGradient>
<linearGradient id="paint1_linear_7667_318569" x1="35.5" y1="19" x2="35.5" y2="52" gradientUnits="userSpaceOnUse">
<stop stop-color="#F3AF00"/>
<stop offset="1" stop-color="#E0A203"/>
</linearGradient>
</defs>
</svg>
