<svg width="315" height="315" viewBox="0 0 315 315" fill="none" xmlns="http://www.w3.org/2000/svg">
<path d="M86.3515 251.751C-31.4303 163.971 203.924 24.7096 301.888 138.228C245.561 96.9155 55.5147 138.228 86.3515 251.751Z" fill="#006CFF"/>
<path d="M86.0987 251.068C-21.0259 205.865 -55.3069 -40.3901 262.679 96.9419C122.745 59.0856 -44.3562 177.097 86.0987 251.068Z" fill="url(#paint0_linear_7780_317239)"/>
<path d="M304.672 148.504C203.833 98.5211 86.3481 167.088 86.3483 251.689C154.678 164.694 218.122 157.846 302.563 148.732L304.672 148.504Z" fill="url(#paint1_linear_7780_317239)"/>
<path d="M224.44 239.112H266.061V254.036H209V159.066H265.39V173.99H224.44V198.682H262.034V213.47H224.44V239.112Z" fill="#001029"/>
<path d="M159.251 255.8C150.21 255.8 142.513 253.72 136.158 249.559C129.892 245.399 125.506 239.7 123 232.464L136.292 224.595C140.051 235.268 147.839 240.605 159.654 240.605C165.472 240.605 169.813 239.474 172.677 237.213C175.631 234.861 177.108 231.831 177.108 228.123C177.108 224.234 175.541 221.294 172.409 219.304C169.276 217.224 163.726 214.963 155.76 212.521C151.285 211.164 147.66 209.898 144.885 208.722C142.11 207.546 139.156 205.918 136.023 203.838C132.98 201.667 130.698 198.999 129.176 195.833C127.654 192.667 126.894 188.959 126.894 184.708C126.894 176.296 129.847 169.648 135.755 164.764C141.662 159.789 148.778 157.302 157.103 157.302C164.621 157.302 171.2 159.156 176.839 162.864C182.478 166.573 186.819 171.683 189.863 178.195L176.839 185.793C172.901 176.929 166.322 172.497 157.103 172.497C152.627 172.497 149.047 173.582 146.362 175.753C143.676 177.834 142.334 180.683 142.334 184.301C142.334 187.828 143.676 190.632 146.362 192.712C149.136 194.702 154.104 196.828 161.265 199.089C164.845 200.265 167.441 201.169 169.052 201.802C170.753 202.345 173.08 203.25 176.034 204.516C179.077 205.782 181.359 207.048 182.881 208.315C184.403 209.581 186.014 211.164 187.714 213.063C189.505 214.963 190.758 217.133 191.474 219.576C192.19 222.018 192.548 224.776 192.548 227.852C192.548 236.444 189.46 243.273 183.284 248.338C177.197 253.313 169.186 255.8 159.251 255.8Z" fill="#001029"/>
<defs>
<linearGradient id="paint0_linear_7780_317239" x1="157.5" y1="55.7454" x2="157.5" y2="251.751" gradientUnits="userSpaceOnUse">
<stop stop-color="#00B746"/>
<stop offset="1" stop-color="#03A03F"/>
</linearGradient>
<linearGradient id="paint1_linear_7780_317239" x1="157.5" y1="55.7454" x2="157.5" y2="251.751" gradientUnits="userSpaceOnUse">
<stop stop-color="#F3AF00"/>
<stop offset="1" stop-color="#E0A203"/>
</linearGradient>
</defs>
</svg>
