<svg width="315" height="315" viewBox="0 0 315 315" fill="none" xmlns="http://www.w3.org/2000/svg">
<path d="M86.3515 251.751C-31.4303 163.971 203.924 24.7096 301.888 138.228C245.561 96.9155 55.5147 138.228 86.3515 251.751Z" fill="#006CFF"/>
<path d="M86.0987 251.068C-21.0259 205.865 -55.3069 -40.3901 262.679 96.9419C122.745 59.0856 -44.3562 177.097 86.0987 251.068Z" fill="url(#paint0_linear_7780_317239)"/>
<path d="M304.672 148.504C203.833 98.5211 86.3481 167.088 86.3483 251.689C154.678 164.694 218.122 157.846 302.563 148.732L304.672 148.504Z" fill="url(#paint1_linear_7780_317239)"/>
<path d="M154.209 239.112H195.831V254.036H138.769V159.066H195.159V173.99H154.209V198.682H191.803V213.47H154.209V239.112Z" fill="#001029"/>
<path d="M241.248 255.8C232.208 255.8 224.51 253.72 218.155 249.559C211.889 245.399 207.503 239.7 204.997 232.464L218.289 224.595C222.048 235.268 229.836 240.605 241.651 240.605C247.469 240.605 251.81 239.474 254.674 237.213C257.628 234.861 259.105 231.831 259.105 228.123C259.105 224.234 257.538 221.294 254.406 219.304C251.273 217.224 245.723 214.963 237.757 212.521C233.282 211.164 229.657 209.898 226.882 208.722C224.107 207.546 221.153 205.918 218.021 203.838C214.977 201.667 212.695 198.999 211.173 195.833C209.651 192.667 208.891 188.959 208.891 184.708C208.891 176.296 211.844 169.648 217.752 164.764C223.66 159.789 230.775 157.302 239.1 157.302C246.618 157.302 253.197 159.156 258.836 162.864C264.475 166.573 268.816 171.683 271.86 178.195L258.836 185.793C254.898 176.929 248.319 172.497 239.1 172.497C234.624 172.497 231.044 173.582 228.359 175.753C225.673 177.834 224.331 180.683 224.331 184.301C224.331 187.828 225.673 190.632 228.359 192.712C231.133 194.702 236.101 196.828 243.262 199.089C246.842 200.265 249.438 201.169 251.049 201.802C252.75 202.345 255.077 203.25 258.031 204.516C261.074 205.782 263.356 207.048 264.878 208.315C266.4 209.581 268.011 211.164 269.712 213.063C271.502 214.963 272.755 217.133 273.471 219.576C274.187 222.018 274.545 224.776 274.545 227.852C274.545 236.444 271.457 243.273 265.281 248.338C259.194 253.313 251.183 255.8 241.248 255.8Z" fill="#001029"/>
<defs>
<linearGradient id="paint0_linear_7780_317239" x1="157.5" y1="55.7454" x2="157.5" y2="251.751" gradientUnits="userSpaceOnUse">
<stop stop-color="#00B746"/>
<stop offset="1" stop-color="#03A03F"/>
</linearGradient>
<linearGradient id="paint1_linear_7780_317239" x1="157.5" y1="55.7454" x2="157.5" y2="251.751" gradientUnits="userSpaceOnUse">
<stop stop-color="#F3AF00"/>
<stop offset="1" stop-color="#E0A203"/>
</linearGradient>
</defs>
</svg>
