<svg width="54" height="54" viewBox="0 0 54 54" fill="none" xmlns="http://www.w3.org/2000/svg">
<path fill-rule="evenodd" clip-rule="evenodd" d="M29.6744 7.42049C27.5664 7.97216 26.2729 8.51668 24.6056 9.55392C22.2591 11.0139 20.0291 13.5182 19.0646 15.7769L18.6958 16.6403L20.1822 16.6357L21.6683 16.6311L22.3801 15.4592C23.8292 13.0736 27.0659 10.9137 30.4382 10.0819C32.2854 9.62622 35.7103 9.63704 37.6696 10.1049C46.3474 12.1761 50.0556 20.988 44.8561 27.1824L43.8299 28.405L44.4283 29.6736L45.0269 30.9423L44.4997 30.7924C44.21 30.71 43.5207 30.4364 42.9681 30.1845L41.9634 29.7266L40.6546 30.348L39.3457 30.9694V32.3237C39.3457 33.8551 39.42 33.8967 40.9488 33.2233C41.8749 32.8153 42.0396 32.8063 42.9403 33.1148C44.3977 33.6138 46.9446 33.7881 47.9714 33.4593C49.6772 32.9129 49.7863 31.5764 48.2438 30.1215C47.6565 29.5675 47.176 29.0156 47.176 28.8947C47.176 28.7738 47.3751 28.428 47.6185 28.1259C48.3166 27.2598 49.2332 25.3766 49.6758 23.8994C50.216 22.0957 50.0606 18.4724 49.3621 16.5818C47.8814 12.5765 44.1141 9.20763 39.4693 7.73501C36.8324 6.899 32.2318 6.75118 29.6744 7.42049ZM17.9501 19.429C11.384 20.2517 6.06417 24.3841 4.36951 29.9787C3.87525 31.6104 3.87715 34.8352 4.37331 36.4568C4.88299 38.1226 5.9555 40.1506 6.84934 41.1383C7.56877 41.9333 7.57209 41.9488 7.18153 42.7024C6.96465 43.1209 6.29789 43.9533 5.69995 44.5519C5.102 45.1505 4.69577 45.7204 4.79733 45.8182C5.20806 46.214 8.61495 45.9812 10.0533 45.4593L11.478 44.9424L13.0139 45.6156C15.5338 46.7203 17.8248 47.1034 21.1534 46.9768C23.4054 46.8914 24.4589 46.7346 25.9393 46.2649C30.7647 44.734 34.508 41.3437 36.0646 37.0948C36.8265 35.0157 36.818 31.1582 36.0475 29.2442C35.1233 26.9489 34.3327 25.7869 32.4819 24.0037C28.8114 20.4674 23.3601 18.7514 17.9501 19.429ZM22.1796 24.577C22.9123 25.075 22.9757 25.9099 22.4463 28.0889C22.1367 29.3635 22.0536 30.115 22.2059 30.2628C22.3585 30.4109 22.9114 30.4042 23.8055 30.2437C25.4745 29.9444 26.845 30.1297 27.4052 30.7304C28.1762 31.557 28.1268 36.2864 27.3409 36.9196C27.1573 37.0674 27.0071 37.4413 27.0071 37.7508C27.0071 39.4062 25.5219 39.9945 21.701 39.8526C18.464 39.7325 17.9994 39.5121 17.3101 37.7719L16.8287 36.5563L16.8163 38.1023C16.8019 39.9176 16.5821 40.125 14.6732 40.125C13.6921 40.125 13.3459 40.0138 12.8599 39.5423C12.2674 38.9674 12.2603 38.9167 12.3367 35.8393C12.4314 32.0359 12.4648 31.9903 15.0837 32.1112C16.0297 32.155 16.804 32.1349 16.804 32.0668C16.804 31.9986 17.2477 31.4269 17.7899 30.7961C18.9576 29.4372 20.6005 26.1788 20.6005 25.2212C20.6005 24.8496 20.6717 24.4761 20.7588 24.3919C21.0219 24.1363 21.6524 24.2185 22.1796 24.577Z" fill="#001029"/>
</svg>
