<svg width="49" height="21" viewBox="0 0 49 21" fill="none" xmlns="http://www.w3.org/2000/svg">
<path d="M0 21V0H21L0 21Z" fill="url(#paint0_linear_1310_247295)"/>
<path d="M22.1201 7.20078V5.77979H23.5831V7.20078H22.1201ZM22.1201 15.9998V8.43979H23.5831V15.9998H22.1201Z" fill="url(#paint1_linear_1310_247295)"/>
<path d="M28.6882 16.2098C27.9835 16.2098 27.3745 16.0348 26.8612 15.6848C26.3525 15.3348 25.9582 14.8588 25.6782 14.2568C25.4029 13.6501 25.2652 12.9688 25.2652 12.2128C25.2652 11.4521 25.4052 10.7731 25.6852 10.1758C25.9652 9.57379 26.3619 9.10012 26.8752 8.75478C27.3932 8.40478 28.0069 8.22979 28.7162 8.22979C29.4302 8.22979 30.0299 8.40478 30.5152 8.75478C31.0052 9.10012 31.3739 9.57379 31.6212 10.1758C31.8732 10.7778 31.9992 11.4568 31.9992 12.2128C31.9992 12.9688 31.8732 13.6478 31.6212 14.2498C31.3692 14.8518 30.9982 15.3301 30.5082 15.6848C30.0182 16.0348 29.4115 16.2098 28.6882 16.2098ZM28.8912 14.8868C29.3719 14.8868 29.7639 14.7725 30.0672 14.5438C30.3705 14.3151 30.5922 14.0001 30.7322 13.5988C30.8722 13.1975 30.9422 12.7355 30.9422 12.2128C30.9422 11.6901 30.8699 11.2281 30.7252 10.8268C30.5852 10.4255 30.3659 10.1128 30.0672 9.88879C29.7732 9.66479 29.3975 9.55278 28.9402 9.55278C28.4549 9.55278 28.0559 9.67179 27.7432 9.90979C27.4305 10.1478 27.1972 10.4675 27.0432 10.8688C26.8939 11.2701 26.8192 11.7181 26.8192 12.2128C26.8192 12.7121 26.8939 13.1648 27.0432 13.5708C27.1972 13.9721 27.4259 14.2918 27.7292 14.5298C28.0372 14.7678 28.4245 14.8868 28.8912 14.8868ZM30.9422 15.9998V10.5608H30.7742V5.91979H32.2442V15.9998H30.9422Z" fill="url(#paint2_linear_1310_247295)"/>
<path d="M37.5558 16.2098C36.8044 16.2098 36.1441 16.0465 35.5748 15.7198C35.0101 15.3885 34.5691 14.9288 34.2518 14.3408C33.9391 13.7481 33.7828 13.0621 33.7828 12.2828C33.7828 11.4568 33.9368 10.7405 34.2448 10.1338C34.5574 9.52712 34.9914 9.05812 35.5468 8.72679C36.1021 8.39545 36.7484 8.22979 37.4858 8.22979C38.2558 8.22979 38.9114 8.40945 39.4528 8.76879C39.9941 9.12345 40.3978 9.62979 40.6638 10.2878C40.9344 10.9458 41.0418 11.7275 40.9858 12.6328H39.5228V12.1008C39.5134 11.2235 39.3454 10.5748 39.0188 10.1548C38.6968 9.73478 38.2044 9.52479 37.5418 9.52479C36.8091 9.52479 36.2584 9.75578 35.8898 10.2178C35.5211 10.6798 35.3368 11.3471 35.3368 12.2198C35.3368 13.0505 35.5211 13.6945 35.8898 14.1518C36.2584 14.6045 36.7904 14.8308 37.4858 14.8308C37.9431 14.8308 38.3374 14.7281 38.6688 14.5228C39.0048 14.3128 39.2661 14.0141 39.4528 13.6268L40.8878 14.0818C40.5938 14.7585 40.1481 15.2835 39.5508 15.6568C38.9534 16.0255 38.2884 16.2098 37.5558 16.2098ZM34.8608 12.6328V11.4918H40.2578V12.6328H34.8608Z" fill="url(#paint3_linear_1310_247295)"/>
<path d="M44.5546 16.2098C43.9946 16.2098 43.5256 16.1071 43.1476 15.9018C42.7696 15.6918 42.4826 15.4165 42.2866 15.0758C42.0952 14.7305 41.9996 14.3525 41.9996 13.9418C41.9996 13.5591 42.0672 13.2231 42.2026 12.9338C42.3379 12.6445 42.5386 12.3995 42.8046 12.1988C43.0706 11.9935 43.3972 11.8278 43.7846 11.7018C44.1206 11.6038 44.5009 11.5175 44.9256 11.4428C45.3502 11.3681 45.7959 11.2981 46.2626 11.2328C46.7339 11.1675 47.2006 11.1021 47.6626 11.0368L47.1306 11.3308C47.1399 10.7381 47.0139 10.2995 46.7526 10.0148C46.4959 9.72545 46.0526 9.58078 45.4226 9.58078C45.0259 9.58078 44.6619 9.67412 44.3306 9.86079C43.9992 10.0428 43.7682 10.3461 43.6376 10.7708L42.2726 10.3508C42.4592 9.70212 42.8139 9.18645 43.3366 8.80379C43.8639 8.42112 44.5639 8.22979 45.4366 8.22979C46.1132 8.22979 46.7012 8.34645 47.2006 8.57978C47.7046 8.80845 48.0732 9.17245 48.3066 9.67179C48.4279 9.91912 48.5026 10.1805 48.5306 10.4558C48.5586 10.7311 48.5726 11.0275 48.5726 11.3448V15.9998H47.2776V14.2708L47.5296 14.4948C47.2169 15.0735 46.8179 15.5051 46.3326 15.7898C45.8519 16.0698 45.2592 16.2098 44.5546 16.2098ZM44.8136 15.0128C45.2289 15.0128 45.5859 14.9405 45.8846 14.7958C46.1832 14.6465 46.4236 14.4575 46.6056 14.2288C46.7876 14.0001 46.9066 13.7621 46.9626 13.5148C47.0419 13.2908 47.0862 13.0388 47.0956 12.7588C47.1096 12.4788 47.1166 12.2548 47.1166 12.0868L47.5926 12.2618C47.1306 12.3318 46.7106 12.3948 46.3326 12.4508C45.9546 12.5068 45.6116 12.5628 45.3036 12.6188C45.0002 12.6701 44.7296 12.7331 44.4916 12.8078C44.2909 12.8778 44.1112 12.9618 43.9526 13.0598C43.7986 13.1578 43.6749 13.2768 43.5816 13.4168C43.4929 13.5568 43.4486 13.7271 43.4486 13.9278C43.4486 14.1238 43.4976 14.3058 43.5956 14.4738C43.6936 14.6371 43.8429 14.7678 44.0436 14.8658C44.2442 14.9638 44.5009 15.0128 44.8136 15.0128Z" fill="url(#paint4_linear_1310_247295)"/>
<defs>
<linearGradient id="paint0_linear_1310_247295" x1="10.5" y1="0" x2="10.5" y2="21" gradientUnits="userSpaceOnUse">
<stop stop-color="#5BA0FE"/>
<stop offset="0.0001" stop-color="#0164F4"/>
<stop offset="1" stop-color="#0164F4"/>
</linearGradient>
<linearGradient id="paint1_linear_1310_247295" x1="35.3463" y1="5.77979" x2="35.3463" y2="16.2098" gradientUnits="userSpaceOnUse">
<stop stop-color="#5BA0FE"/>
<stop offset="0.0001" stop-color="#0164F4"/>
<stop offset="1" stop-color="#0164F4"/>
</linearGradient>
<linearGradient id="paint2_linear_1310_247295" x1="35.3463" y1="5.77979" x2="35.3463" y2="16.2098" gradientUnits="userSpaceOnUse">
<stop stop-color="#5BA0FE"/>
<stop offset="0.0001" stop-color="#0164F4"/>
<stop offset="1" stop-color="#0164F4"/>
</linearGradient>
<linearGradient id="paint3_linear_1310_247295" x1="35.3463" y1="5.77979" x2="35.3463" y2="16.2098" gradientUnits="userSpaceOnUse">
<stop stop-color="#5BA0FE"/>
<stop offset="0.0001" stop-color="#0164F4"/>
<stop offset="1" stop-color="#0164F4"/>
</linearGradient>
<linearGradient id="paint4_linear_1310_247295" x1="35.3463" y1="5.77979" x2="35.3463" y2="16.2098" gradientUnits="userSpaceOnUse">
<stop stop-color="#5BA0FE"/>
<stop offset="0.0001" stop-color="#0164F4"/>
<stop offset="1" stop-color="#0164F4"/>
</linearGradient>
</defs>
</svg>
