<svg width="49" height="21" viewBox="0 0 49 21" fill="none" xmlns="http://www.w3.org/2000/svg">
<path d="M0 21V0H20.9631L0 21Z" fill="#388BFD"/>
<path d="M22.0811 7.20078V5.77979H23.5415V7.20078H22.0811ZM22.0811 15.9998V8.43979H23.5415V15.9998H22.0811Z" fill="#388BFD"/>
<path d="M28.6376 16.2098C27.9342 16.2098 27.3262 16.0348 26.8138 15.6848C26.306 15.3348 25.9124 14.8588 25.6329 14.2568C25.358 13.6501 25.2206 12.9688 25.2206 12.2128C25.2206 11.4521 25.3604 10.7731 25.6399 10.1758C25.9194 9.57379 26.3153 9.10012 26.8278 8.75478C27.3449 8.40478 27.9574 8.22979 28.6655 8.22979C29.3783 8.22979 29.9769 8.40478 30.4614 8.75478C30.9505 9.10012 31.3185 9.57379 31.5654 10.1758C31.817 10.7778 31.9428 11.4568 31.9428 12.2128C31.9428 12.9688 31.817 13.6478 31.5654 14.2498C31.3139 14.8518 30.9435 15.3301 30.4544 15.6848C29.9652 16.0348 29.3596 16.2098 28.6376 16.2098ZM28.8402 14.8868C29.32 14.8868 29.7114 14.7725 30.0142 14.5438C30.317 14.3151 30.5382 14.0001 30.678 13.5988C30.8177 13.1975 30.8876 12.7355 30.8876 12.2128C30.8876 11.6901 30.8154 11.2281 30.671 10.8268C30.5312 10.4255 30.3123 10.1128 30.0142 9.88879C29.7207 9.66479 29.3457 9.55278 28.8891 9.55278C28.4047 9.55278 28.0064 9.67179 27.6942 9.90979C27.3821 10.1478 27.1492 10.4675 26.9955 10.8688C26.8464 11.2701 26.7719 11.7181 26.7719 12.2128C26.7719 12.7121 26.8464 13.1648 26.9955 13.5708C27.1492 13.9721 27.3775 14.2918 27.6803 14.5298C27.9877 14.7678 28.3744 14.8868 28.8402 14.8868ZM30.8876 15.9998V10.5608H30.7199V5.91979H32.1873V15.9998H30.8876Z" fill="#388BFD"/>
<path d="M37.4896 16.2098C36.7395 16.2098 36.0804 16.0465 35.512 15.7198C34.9484 15.3885 34.5081 14.9288 34.1914 14.3408C33.8793 13.7481 33.7232 13.0621 33.7232 12.2828C33.7232 11.4568 33.8769 10.7405 34.1844 10.1338C34.4965 9.52712 34.9297 9.05812 35.4841 8.72679C36.0384 8.39545 36.6836 8.22979 37.4197 8.22979C38.1883 8.22979 38.8428 8.40945 39.3832 8.76879C39.9236 9.12345 40.3266 9.62979 40.5921 10.2878C40.8623 10.9458 40.9694 11.7275 40.9135 12.6328H39.4531V12.1008C39.4438 11.2235 39.2761 10.5748 38.95 10.1548C38.6285 9.73479 38.1371 9.52479 37.4756 9.52479C36.7442 9.52479 36.1945 9.75578 35.8265 10.2178C35.4585 10.6798 35.2745 11.3471 35.2745 12.2198C35.2745 13.0505 35.4585 13.6945 35.8265 14.1518C36.1945 14.6045 36.7256 14.8308 37.4197 14.8308C37.8762 14.8308 38.2698 14.7281 38.6006 14.5228C38.936 14.3128 39.1969 14.0141 39.3832 13.6268L40.8157 14.0818C40.5222 14.7585 40.0773 15.2835 39.481 15.6568C38.8848 16.0255 38.2209 16.2098 37.4896 16.2098ZM34.7993 12.6328V11.4918H40.1868V12.6328H34.7993Z" fill="#388BFD"/>
<path d="M44.476 16.2098C43.917 16.2098 43.4488 16.1071 43.0715 15.9018C42.6942 15.6918 42.4077 15.4165 42.212 15.0758C42.021 14.7305 41.9255 14.3525 41.9255 13.9418C41.9255 13.5591 41.9931 13.2231 42.1282 12.9338C42.2633 12.6445 42.4636 12.3995 42.7291 12.1988C42.9946 11.9935 43.3207 11.8278 43.7074 11.7018C44.0428 11.6038 44.4225 11.5175 44.8464 11.4428C45.2703 11.3681 45.7152 11.2981 46.181 11.2328C46.6515 11.1675 47.1174 11.1021 47.5786 11.0368L47.0475 11.3308C47.0568 10.7381 46.931 10.2995 46.6702 10.0148C46.414 9.72545 45.9714 9.58078 45.3425 9.58078C44.9465 9.58078 44.5832 9.67412 44.2524 9.86079C43.9217 10.0428 43.6911 10.3461 43.5607 10.7708L42.1981 10.3508C42.3844 9.70212 42.7384 9.18645 43.2602 8.80379C43.7866 8.42112 44.4854 8.22979 45.3565 8.22979C46.032 8.22979 46.6189 8.34645 47.1174 8.57978C47.6205 8.80845 47.9885 9.17245 48.2214 9.67179C48.3426 9.91912 48.4171 10.1805 48.445 10.4558C48.473 10.7311 48.487 11.0275 48.487 11.3448V15.9998H47.1942V14.2708L47.4458 14.4948C47.1337 15.0735 46.7354 15.5051 46.2509 15.7898C45.7711 16.0698 45.1795 16.2098 44.476 16.2098ZM44.7346 15.0128C45.1492 15.0128 45.5056 14.9405 45.8037 14.7958C46.1018 14.6465 46.3418 14.4575 46.5234 14.2288C46.7051 14.0001 46.8239 13.7621 46.8798 13.5148C46.959 13.2908 47.0033 13.0388 47.0126 12.7588C47.0265 12.4788 47.0335 12.2548 47.0335 12.0868L47.5087 12.2618C47.0475 12.3318 46.6282 12.3948 46.2509 12.4508C45.8736 12.5068 45.5312 12.5628 45.2237 12.6188C44.9209 12.6701 44.6507 12.7331 44.4131 12.8078C44.2128 12.8778 44.0335 12.9618 43.8751 13.0598C43.7214 13.1578 43.5979 13.2768 43.5047 13.4168C43.4162 13.5568 43.372 13.7271 43.372 13.9278C43.372 14.1238 43.4209 14.3058 43.5187 14.4738C43.6166 14.6371 43.7656 14.7678 43.9659 14.8658C44.1663 14.9638 44.4225 15.0128 44.7346 15.0128Z" fill="#388BFD"/>
</svg>
