<svg width="50" height="50" viewBox="0 0 50 50" fill="none" xmlns="http://www.w3.org/2000/svg">
<path d="M13.3837 40.9593C-5.80211 26.6466 32.5354 3.93951 48.4932 22.4491C39.3177 15.7129 8.36061 22.4491 13.3837 40.9593Z" fill="url(#paint0_linear_2003_361)"/>
<path d="M13.3425 40.848C-4.10731 33.4776 -9.69145 -6.67522 42.1062 15.7172C19.3119 9.54464 -7.90764 28.7868 13.3425 40.848Z" fill="url(#paint1_linear_2003_361)"/>
<path d="M48.9466 24.1247C32.5206 15.9747 13.3832 27.1548 13.3832 40.9494C24.5136 26.7645 34.8482 25.6479 48.603 24.1618L48.9466 24.1247Z" fill="#F5CF00"/>
<path d="M20.0051 40.7755L26.4419 25.0597H29.2037L35.5737 40.7755H33.0346L31.2305 36.173H24.2592L22.4328 40.7755H20.0051ZM25.0165 34.2197H30.4733L27.756 27.3048L25.0165 34.2197Z" fill="white"/>
<path d="M42.786 41C41.5387 41 40.336 40.753 39.1778 40.2591C38.0197 39.7652 36.9951 39.0692 36.1042 38.1711L37.5297 36.5098C38.376 37.3479 39.2372 37.9691 40.1133 38.3732C41.0042 38.7773 41.9322 38.9794 42.8974 38.9794C43.6546 38.9794 44.3154 38.8746 44.8796 38.6651C45.4587 38.4405 45.9042 38.1262 46.216 37.7221C46.5278 37.318 46.6837 36.8615 46.6837 36.3526C46.6837 35.6491 46.4387 35.1103 45.9487 34.7361C45.4587 34.3619 44.6495 34.0776 43.521 33.883L40.9151 33.4564C39.4897 33.202 38.4206 32.738 37.7079 32.0644C37.01 31.3909 36.661 30.4929 36.661 29.3703C36.661 28.4723 36.8986 27.6865 37.3738 27.013C37.8489 26.3245 38.5171 25.7931 39.3783 25.4189C40.2544 25.0448 41.264 24.8577 42.4074 24.8577C43.5359 24.8577 44.6421 25.0448 45.726 25.4189C46.8248 25.7782 47.8122 26.302 48.6882 26.9905L47.3964 28.7866C45.7186 27.4994 44.0184 26.8558 42.296 26.8558C41.613 26.8558 41.019 26.9531 40.5142 27.1477C40.0094 27.3422 39.6159 27.6191 39.3338 27.9784C39.0516 28.3226 38.9106 28.7267 38.9106 29.1907C38.9106 29.8343 39.1259 30.3282 39.5565 30.6725C39.9871 31.0018 40.6998 31.2412 41.6947 31.3909L44.2115 31.8175C45.8596 32.0869 47.0698 32.5733 47.8419 33.2768C48.614 33.9803 49.0001 34.9457 49.0001 36.173C49.0001 37.1309 48.7402 37.9766 48.2205 38.71C47.7008 39.4284 46.9733 39.9897 46.0378 40.3938C45.1024 40.7979 44.0184 41 42.786 41Z" fill="white"/>
<defs>
<linearGradient id="paint0_linear_2003_361" x1="24.9733" y1="9" x2="24.9733" y2="40.9593" gradientUnits="userSpaceOnUse">
<stop stop-color="#5BA0FE"/>
<stop offset="0.0001" stop-color="#0164F4"/>
<stop offset="1" stop-color="#0164F4"/>
</linearGradient>
<linearGradient id="paint1_linear_2003_361" x1="24.9733" y1="9" x2="24.9733" y2="40.9593" gradientUnits="userSpaceOnUse">
<stop stop-color="#00B746"/>
<stop offset="1" stop-color="#03A03F"/>
</linearGradient>
</defs>
</svg>
