<svg width="154" height="94" viewBox="0 0 154 94" fill="none" xmlns="http://www.w3.org/2000/svg">
<g filter="url(#filter0_d_2495_17855)">
<path d="M134.283 44.6158C141.518 38.1052 141.087 29.9548 127.525 21.2008C148.179 32.1469 146.636 39.7628 134.283 44.6158C115.089 61.8906 41.9328 67.6212 16.9367 42.4514C26.9905 52.5753 107.001 55.3341 134.283 44.6158Z" fill="url(#paint0_linear_2495_17855)"/>
</g>
<path fill-rule="evenodd" clip-rule="evenodd" d="M134.303 44.6101L134.299 44.603C141.516 38.0948 141.075 29.9503 127.523 21.2031C148.167 32.1432 146.637 39.7567 134.303 44.6101Z" fill="#F3AF00"/>
<g opacity="0.8" filter="url(#filter1_d_2495_17855)">
<path d="M26.5226 58.0166C0.123627 47.3599 -0.665548 -7.44374 77.6613 24.8313C26.5226 11.819 -5.4154 41.1876 26.5226 58.0166Z" fill="url(#paint1_linear_2495_17855)"/>
</g>
<path d="M24 39.8481L28.4771 29.2127H30.398L34.8286 39.8481H33.0626L31.8077 36.7334H26.9589L25.6886 39.8481H24ZM27.4856 35.4116H31.281L29.3911 30.732L27.4856 35.4116Z" fill="#354256"/>
<path d="M35.7607 39.8481V32.1146H37.3099V32.8591C37.8986 32.2615 38.637 31.9627 39.5252 31.9627C40.0622 31.9627 40.5373 32.0792 40.9504 32.3122C41.3738 32.5451 41.7095 32.8591 41.9574 33.2541C42.2878 32.8287 42.6751 32.5097 43.1192 32.297C43.5633 32.0741 44.0642 31.9627 44.6219 31.9627C45.2106 31.9627 45.7218 32.0893 46.1556 32.3425C46.5997 32.5958 46.9456 32.9503 47.1935 33.4061C47.4517 33.8619 47.5808 34.3886 47.5808 34.9862V39.8481H46.0316V35.2445C46.0316 34.6367 45.8664 34.1607 45.5359 33.8163C45.2157 33.4618 44.7768 33.2845 44.2191 33.2845C43.837 33.2845 43.491 33.3706 43.1812 33.5428C42.8714 33.715 42.6028 33.9784 42.3756 34.3329C42.3963 34.4342 42.4118 34.5405 42.4221 34.6519C42.4324 34.7634 42.4376 34.8748 42.4376 34.9862V39.8481H40.9039V35.2445C40.9039 34.6367 40.7387 34.1607 40.4082 33.8163C40.088 33.4618 39.6491 33.2845 39.0914 33.2845C38.7196 33.2845 38.384 33.3656 38.0845 33.5276C37.785 33.6796 37.5268 33.9125 37.3099 34.2265V39.8481H35.7607Z" fill="#354256"/>
<path d="M51.8554 39.9848C51.2873 39.9848 50.7864 39.8886 50.3527 39.6961C49.9189 39.4936 49.5781 39.215 49.3302 38.8605C49.0824 38.506 48.9584 38.0958 48.9584 37.6298C48.9584 36.9006 49.2425 36.3283 49.8105 35.913C50.3785 35.4876 51.1582 35.2749 52.1497 35.2749C52.9243 35.2749 53.6421 35.4217 54.303 35.7155V34.895C54.303 34.3379 54.1378 33.9227 53.8073 33.6492C53.4871 33.3757 53.0121 33.239 52.3821 33.239C52.0206 33.239 51.6436 33.2947 51.2512 33.4061C50.8587 33.5074 50.4198 33.6694 49.9344 33.8923L49.3612 32.7528C49.9602 32.4793 50.5179 32.2818 51.0343 32.1602C51.5507 32.0285 52.0722 31.9627 52.599 31.9627C53.6214 31.9627 54.4115 32.2007 54.9692 32.6768C55.5372 33.1529 55.8212 33.8315 55.8212 34.7127V39.8481H54.303V39.1796C53.9519 39.453 53.5749 39.6556 53.1721 39.7873C52.7694 39.919 52.3304 39.9848 51.8554 39.9848ZM50.4456 37.5994C50.4456 37.9742 50.6057 38.2781 50.9259 38.5111C51.2564 38.7339 51.685 38.8453 52.2117 38.8453C52.6248 38.8453 53.0017 38.7896 53.3426 38.6782C53.6937 38.5566 54.0139 38.3692 54.303 38.116V36.8094C54.0035 36.6372 53.6885 36.5157 53.358 36.4448C53.0379 36.3637 52.6764 36.3232 52.2736 36.3232C51.7056 36.3232 51.2564 36.4397 50.9259 36.6727C50.6057 36.8955 50.4456 37.2044 50.4456 37.5994Z" fill="#354256"/>
<path d="M57.1415 39.8481V38.7238L61.5721 33.4213H57.188V32.1146H63.5085V33.2238L59.0779 38.5414H63.586V39.8481H57.1415Z" fill="#354256"/>
<path d="M68.5109 40C67.7467 40 67.0496 39.8227 66.4196 39.4682C65.7999 39.1137 65.3094 38.6326 64.9479 38.0249C64.5864 37.4171 64.4057 36.7385 64.4057 35.989C64.4057 35.2394 64.5864 34.5608 64.9479 33.953C65.3094 33.3453 65.7999 32.8642 66.4196 32.5097C67.0496 32.145 67.7467 31.9627 68.5109 31.9627C69.2855 31.9627 69.9826 32.145 70.6023 32.5097C71.222 32.8642 71.7125 33.3453 72.074 33.953C72.4355 34.5608 72.6162 35.2394 72.6162 35.989C72.6162 36.7385 72.4355 37.4171 72.074 38.0249C71.7125 38.6326 71.222 39.1137 70.6023 39.4682C69.9826 39.8227 69.2855 40 68.5109 40ZM68.5109 38.663C68.9963 38.663 69.4353 38.5465 69.8277 38.3135C70.2202 38.0704 70.53 37.7463 70.7572 37.3412C70.9844 36.936 71.098 36.4802 71.098 35.9738C71.098 35.4774 70.9793 35.0318 70.7417 34.6367C70.5145 34.2316 70.2047 33.9075 69.8122 33.6644C69.4301 33.4213 68.9963 33.2997 68.5109 33.2997C68.0255 33.2997 67.5866 33.4213 67.1942 33.6644C66.812 33.9075 66.5022 34.2316 66.2647 34.6367C66.0375 35.0318 65.9239 35.4774 65.9239 35.9738C65.9239 36.4802 66.0375 36.936 66.2647 37.3412C66.4919 37.7463 66.8017 38.0704 67.1942 38.3135C67.5866 38.5465 68.0255 38.663 68.5109 38.663Z" fill="#354256"/>
<path d="M74.0811 39.8481V32.1146H75.6303V32.9047C76.2396 32.2767 77.0297 31.9627 78.0005 31.9627C78.6098 31.9627 79.1417 32.0893 79.5961 32.3425C80.0609 32.5958 80.4223 32.9503 80.6805 33.4061C80.949 33.8619 81.0833 34.3886 81.0833 34.9862V39.8481H79.5341V35.2445C79.5341 34.6367 79.3586 34.1607 79.0074 33.8163C78.6666 33.4618 78.1864 33.2845 77.5667 33.2845C77.1536 33.2845 76.7818 33.3706 76.4513 33.5428C76.1208 33.715 75.8472 33.9632 75.6303 34.2873V39.8481H74.0811Z" fill="#354256"/>
<path d="M85.5818 40C84.9002 40 84.2598 39.9038 83.6608 39.7113C83.0721 39.5087 82.5609 39.2251 82.1272 38.8605L82.9792 37.8577C83.382 38.1717 83.7951 38.4148 84.2185 38.587C84.6523 38.7491 85.0912 38.8301 85.5353 38.8301C86.093 38.8301 86.5474 38.7238 86.8986 38.5111C87.2497 38.2983 87.4253 38.0198 87.4253 37.6754C87.4253 37.3918 87.322 37.169 87.1154 37.0069C86.9089 36.8448 86.5887 36.7334 86.155 36.6727L84.7297 36.4751C83.9448 36.3637 83.3562 36.1257 82.9637 35.761C82.5713 35.3964 82.375 34.9102 82.375 34.3025C82.375 33.8366 82.5041 33.4314 82.7623 33.087C83.0205 32.7325 83.382 32.459 83.8467 32.2666C84.3115 32.064 84.8537 31.9627 85.4733 31.9627C86.0414 31.9627 86.5887 32.0437 87.1154 32.2058C87.6422 32.3679 88.1482 32.6211 88.6336 32.9655L87.8435 33.9682C87.4098 33.6846 86.9863 33.477 86.5732 33.3453C86.1705 33.2136 85.7625 33.1478 85.3494 33.1478C84.8743 33.1478 84.4922 33.2491 84.203 33.4517C83.9139 33.6441 83.7693 33.8973 83.7693 34.2113C83.7693 34.4949 83.8674 34.7178 84.0636 34.8798C84.2702 35.0318 84.6058 35.1381 85.0706 35.1989L86.4958 35.3964C87.2807 35.5078 87.8745 35.7459 88.2773 36.1105C88.6801 36.465 88.8815 36.9461 88.8815 37.5539C88.8815 38.0198 88.7369 38.4401 88.4477 38.8149C88.1585 39.1796 87.7661 39.4682 87.2704 39.6809C86.7746 39.8936 86.2118 40 85.5818 40Z" fill="#354256"/>
<path d="M93.9275 39.9848C93.1529 39.9848 92.4506 39.8076 91.8206 39.453C91.201 39.0985 90.7052 38.6174 90.3335 38.0097C89.972 37.4019 89.7912 36.7233 89.7912 35.9738C89.7912 35.2343 89.9668 34.5658 90.318 33.9682C90.6691 33.3605 91.1442 32.8794 91.7432 32.5249C92.3422 32.1602 93.0083 31.9779 93.7416 31.9779C94.4749 31.9779 95.1255 32.1602 95.6935 32.5249C96.2615 32.8794 96.7108 33.3656 97.0413 33.9834C97.3821 34.5912 97.5525 35.2799 97.5525 36.0497V36.4751H91.3404C91.423 36.9006 91.5831 37.2804 91.8206 37.6146C92.0685 37.9489 92.3783 38.2122 92.7501 38.4047C93.1322 38.5971 93.5454 38.6934 93.9894 38.6934C94.3716 38.6934 94.7382 38.6377 95.0893 38.5262C95.4508 38.4047 95.7503 38.2325 95.9879 38.0097L96.9793 38.9669C96.5146 39.3112 96.0343 39.5695 95.5386 39.7417C95.0532 39.9038 94.5162 39.9848 93.9275 39.9848ZM91.3559 35.3356H96.0188C95.9569 34.9305 95.8123 34.576 95.5851 34.2721C95.3682 33.9581 95.0945 33.715 94.764 33.5428C94.4439 33.3605 94.0927 33.2693 93.7106 33.2693C93.3181 33.2693 92.9567 33.3554 92.6262 33.5276C92.2957 33.6998 92.0169 33.9429 91.7896 34.2569C91.5728 34.5608 91.4282 34.9204 91.3559 35.3356Z" fill="#354256"/>
<path d="M99.028 39.8481V32.1146H100.577V33.1022C100.825 32.7376 101.13 32.454 101.491 32.2514C101.863 32.0387 102.281 31.9323 102.746 31.9323C103.066 31.9424 103.329 31.988 103.536 32.0691V33.4365C103.391 33.3757 103.242 33.3352 103.087 33.3149C102.932 33.2845 102.777 33.2693 102.622 33.2693C102.168 33.2693 101.765 33.3909 101.414 33.634C101.063 33.8669 100.784 34.2113 100.577 34.6671V39.8481H99.028Z" fill="#354256"/>
<path d="M107.544 39.8481L104.136 32.1146H105.84L108.303 37.9033L110.767 32.1146H112.409L109.031 39.8481H107.544Z" fill="#354256"/>
<path d="M113.37 39.8481V32.1146H114.919V39.8481H113.37ZM114.144 30.8688C113.886 30.8688 113.664 30.7776 113.478 30.5953C113.292 30.4029 113.199 30.18 113.199 29.9268C113.199 29.6634 113.292 29.4457 113.478 29.2735C113.664 29.0912 113.886 29 114.144 29C114.413 29 114.64 29.0912 114.826 29.2735C115.012 29.4457 115.105 29.6634 115.105 29.9268C115.105 30.18 115.012 30.4029 114.826 30.5953C114.64 30.7776 114.413 30.8688 114.144 30.8688Z" fill="#354256"/>
<path d="M120.446 39.9848C119.692 39.9848 119.005 39.8076 118.385 39.453C117.766 39.0985 117.275 38.6174 116.914 38.0097C116.563 37.4019 116.387 36.7233 116.387 35.9738C116.387 35.2242 116.568 34.5506 116.929 33.953C117.291 33.3453 117.776 32.8642 118.385 32.5097C119.005 32.145 119.692 31.9627 120.446 31.9627C121.045 31.9627 121.618 32.0741 122.165 32.297C122.723 32.5198 123.203 32.8338 123.606 33.239L122.646 34.2873C122.346 33.9632 122.01 33.7201 121.639 33.558C121.267 33.3959 120.88 33.3149 120.477 33.3149C120.002 33.3149 119.568 33.4314 119.176 33.6644C118.793 33.8973 118.489 34.2164 118.262 34.6215C118.034 35.0267 117.921 35.4774 117.921 35.9738C117.921 36.4701 118.034 36.9208 118.262 37.326C118.489 37.7311 118.799 38.0552 119.191 38.2983C119.583 38.5313 120.022 38.6478 120.508 38.6478C120.911 38.6478 121.288 38.5718 121.639 38.4199C121.99 38.2578 122.32 38.0249 122.63 37.721L123.575 38.6934C123.162 39.1087 122.682 39.4277 122.134 39.6506C121.597 39.8734 121.035 39.9848 120.446 39.9848Z" fill="#354256"/>
<path d="M128.375 39.9848C127.6 39.9848 126.898 39.8076 126.268 39.453C125.648 39.0985 125.153 38.6174 124.781 38.0097C124.419 37.4019 124.239 36.7233 124.239 35.9738C124.239 35.2343 124.414 34.5658 124.765 33.9682C125.117 33.3605 125.592 32.8794 126.191 32.5249C126.79 32.1602 127.456 31.9779 128.189 31.9779C128.922 31.9779 129.573 32.1602 130.141 32.5249C130.709 32.8794 131.158 33.3656 131.489 33.9834C131.83 34.5912 132 35.2799 132 36.0497V36.4751H125.788C125.871 36.9006 126.031 37.2804 126.268 37.6146C126.516 37.9489 126.826 38.2122 127.198 38.4047C127.58 38.5971 127.993 38.6934 128.437 38.6934C128.819 38.6934 129.186 38.6377 129.537 38.5262C129.898 38.4047 130.198 38.2325 130.435 38.0097L131.427 38.9669C130.962 39.3112 130.482 39.5695 129.986 39.7417C129.501 39.9038 128.964 39.9848 128.375 39.9848ZM125.803 35.3356H130.466C130.404 34.9305 130.26 34.576 130.033 34.2721C129.816 33.9581 129.542 33.715 129.212 33.5428C128.891 33.3605 128.54 33.2693 128.158 33.2693C127.766 33.2693 127.404 33.3554 127.074 33.5276C126.743 33.6998 126.464 33.9429 126.237 34.2569C126.02 34.5608 125.876 34.9204 125.803 35.3356Z" fill="#354256"/>
<defs>
<filter id="filter0_d_2495_17855" x="6.9375" y="12.2031" width="146.422" height="58.2734" filterUnits="userSpaceOnUse" color-interpolation-filters="sRGB">
<feFlood flood-opacity="0" result="BackgroundImageFix"/>
<feColorMatrix in="SourceAlpha" type="matrix" values="0 0 0 0 0 0 0 0 0 0 0 0 0 0 0 0 0 0 127 0" result="hardAlpha"/>
<feOffset dy="1"/>
<feGaussianBlur stdDeviation="5"/>
<feComposite in2="hardAlpha" operator="out"/>
<feColorMatrix type="matrix" values="0 0 0 0 0.0230625 0 0 0 0 0.156236 0 0 0 0 0.3375 0 0 0 0.3 0"/>
<feBlend mode="normal" in2="BackgroundImageFix" result="effect1_dropShadow_2495_17855"/>
<feBlend mode="normal" in="SourceGraphic" in2="effect1_dropShadow_2495_17855" result="shape"/>
</filter>
<filter id="filter1_d_2495_17855" x="0.449219" y="5.77344" width="87.2109" height="63.2422" filterUnits="userSpaceOnUse" color-interpolation-filters="sRGB">
<feFlood flood-opacity="0" result="BackgroundImageFix"/>
<feColorMatrix in="SourceAlpha" type="matrix" values="0 0 0 0 0 0 0 0 0 0 0 0 0 0 0 0 0 0 127 0" result="hardAlpha"/>
<feOffset dy="1"/>
<feGaussianBlur stdDeviation="5"/>
<feComposite in2="hardAlpha" operator="out"/>
<feColorMatrix type="matrix" values="0 0 0 0 0 0 0 0 0 0.423529 0 0 0 0 1 0 0 0 0.2 0"/>
<feBlend mode="normal" in2="BackgroundImageFix" result="effect1_dropShadow_2495_17855"/>
<feBlend mode="normal" in="SourceGraphic" in2="effect1_dropShadow_2495_17855" result="shape"/>
</filter>
<linearGradient id="paint0_linear_2495_17855" x1="31.7599" y1="12.876" x2="130.758" y2="62.4939" gradientUnits="userSpaceOnUse">
<stop stop-color="#006CFF"/>
<stop offset="1" stop-color="#0460DE"/>
</linearGradient>
<linearGradient id="paint1_linear_2495_17855" x1="64.1939" y1="48.4039" x2="15.521" y2="20.5964" gradientUnits="userSpaceOnUse">
<stop stop-color="#00B746"/>
<stop offset="1" stop-color="#03A03F"/>
</linearGradient>
</defs>
</svg>
