<svg width="68" height="61" viewBox="0 0 68 61" fill="none" xmlns="http://www.w3.org/2000/svg">
<rect width="68" height="61" transform="matrix(1 0 0 -1 0 61)" fill="white"/>
<path d="M22.3837 46.9593C3.19789 32.6466 41.5354 9.93951 57.4932 28.4491C48.3177 21.7129 17.3606 28.4491 22.3837 46.9593Z" fill="url(#paint0_linear_2003_357)"/>
<path d="M22.3425 46.848C4.89269 39.4776 -0.691448 -0.675222 51.1062 21.7172C28.3119 15.5446 1.09236 34.7868 22.3425 46.848Z" fill="url(#paint1_linear_2003_357)"/>
<path d="M57.9466 30.1247C41.5206 21.9747 22.3832 33.1548 22.3832 46.9494C33.5136 32.7645 43.8482 31.6479 57.603 30.1618L57.9466 30.1247Z" fill="#F5CF00"/>
<path d="M29.0051 46.7755L35.4418 31.0598H38.2037L44.5736 46.7755H42.0345L40.2305 42.173H33.2591L31.4328 46.7755H29.0051ZM34.0164 40.2198H39.4732L36.7559 33.3049L34.0164 40.2198Z" fill="#001029"/>
<path d="M51.7859 47C50.5387 47 49.336 46.753 48.1778 46.2591C47.0196 45.7652 45.9951 45.0692 45.1042 44.1712L46.5296 42.5098C47.376 43.348 48.2372 43.9691 49.1132 44.3732C50.0041 44.7773 50.9322 44.9794 51.8973 44.9794C52.6546 44.9794 53.3153 44.8746 53.8796 44.6651C54.4587 44.4406 54.9041 44.1263 55.2159 43.7221C55.5277 43.318 55.6836 42.8615 55.6836 42.3526C55.6836 41.6492 55.4386 41.1103 54.9487 40.7362C54.4587 40.362 53.6494 40.0776 52.5209 39.883L49.915 39.4565C48.4896 39.202 47.4205 38.738 46.7078 38.0645C46.0099 37.391 45.661 36.4929 45.661 35.3704C45.661 34.4723 45.8985 33.6865 46.3737 33.013C46.8488 32.3245 47.517 31.7932 48.3782 31.419C49.2543 31.0448 50.264 30.8577 51.4073 30.8577C52.5358 30.8577 53.642 31.0448 54.7259 31.419C55.8247 31.7782 56.8121 32.3021 57.6882 32.9906L56.3964 34.7866C54.7185 33.4994 53.0184 32.8558 51.2959 32.8558C50.6129 32.8558 50.019 32.9531 49.5141 33.1477C49.0093 33.3423 48.6158 33.6192 48.3337 33.9784C48.0516 34.3226 47.9105 34.7268 47.9105 35.1908C47.9105 35.8344 48.1258 36.3283 48.5564 36.6725C48.987 37.0018 49.6997 37.2413 50.6946 37.391L53.2114 37.8175C54.8596 38.0869 56.0697 38.5734 56.8418 39.2768C57.6139 39.9803 58 40.9457 58 42.173C58 43.1309 57.7402 43.9766 57.2205 44.71C56.7008 45.4284 55.9732 45.9897 55.0377 46.3938C54.1023 46.7979 53.0184 47 51.7859 47Z" fill="#001029"/>
<defs>
<linearGradient id="paint0_linear_2003_357" x1="34" y1="15" x2="34" y2="47" gradientUnits="userSpaceOnUse">
<stop stop-color="#5BA0FE"/>
<stop offset="0.0001" stop-color="#0164F4"/>
<stop offset="1" stop-color="#0164F4"/>
</linearGradient>
<linearGradient id="paint1_linear_2003_357" x1="34" y1="15" x2="34" y2="47" gradientUnits="userSpaceOnUse">
<stop stop-color="#00B746"/>
<stop offset="1" stop-color="#03A03F"/>
</linearGradient>
</defs>
</svg>
