<svg width="258" height="87" viewBox="0 0 258 87" fill="none" xmlns="http://www.w3.org/2000/svg">
<path d="M240.381 58.0752C254.424 45.4044 253.588 29.5423 227.262 12.5056C267.355 33.8086 264.36 48.6304 240.381 58.0752C203.122 91.6949 61.1165 102.848 12.5958 53.8628C32.1114 73.5658 187.423 78.9348 240.381 58.0752Z" fill="#006CFF"/>
<path fill-rule="evenodd" clip-rule="evenodd" d="M240.415 58.0566L240.408 58.0427C254.417 45.3767 253.562 29.5261 227.256 12.5026C267.327 33.7938 264.357 48.6111 240.415 58.0566Z" fill="url(#paint0_linear_7703_317820)"/>
<path d="M31.2035 84.1554C-20.0404 63.4157 -21.5723 -43.2416 130.471 19.5712C31.2035 -5.75292 -30.7923 51.4034 31.2035 84.1554Z" fill="url(#paint1_linear_7703_317820)"/>
<path d="M23.2911 38.0912C19.7713 37.3897 18.2439 36.588 18.2439 34.8509C18.2439 32.8466 19.9706 31.6775 23.0255 31.6775C25.8148 31.6775 27.6079 32.9134 28.7701 34.0492L30.2976 31.143C27.5415 28.5708 24.0217 28.4706 23.0919 28.4706C17.8786 28.4706 15.0561 31.3434 15.0561 34.9846C15.0561 37.991 16.816 40.2292 23.0255 41.2981C26.0804 41.8326 28.106 42.935 28.106 44.7389C28.106 46.8768 26.2797 48.2464 22.9259 48.2464C20.3026 48.2464 17.7458 47.0104 15.8862 44.9393L14.2924 47.8122C14.6244 48.213 17.4801 51.4533 22.8595 51.4533C28.0728 51.4533 31.2937 48.5137 31.2937 44.6053C31.2937 40.8305 28.6041 39.1268 23.2911 38.0912Z" fill="#001029"/>
<path d="M49.3509 43.2356C49.3509 38.0244 46.0968 34.8844 41.8796 34.8844C36.9984 34.8844 33.9434 38.5923 33.9434 43.1688C33.9434 47.6785 36.7327 51.4533 42.3113 51.4533C45.7647 51.4533 47.8567 49.8833 48.2883 49.5158L47.2258 46.643C45.9639 47.5449 44.2704 48.2464 42.3777 48.2464C39.8541 48.2464 37.6957 47.1441 37.1976 44.6387H49.2513C49.3177 44.2044 49.3509 43.5697 49.3509 43.2356ZM37.1976 41.699C37.264 40.129 38.8247 38.0912 41.7468 38.0912C44.7685 38.0912 46.0303 40.129 46.0968 41.699H37.1976Z" fill="#001029"/>
<path d="M52.5493 27.6688V51.1861H55.7371V27.6688H52.5493Z" fill="#001029"/>
<path d="M60.2671 27.6688V51.1861H63.4548V27.6688H60.2671Z" fill="#001029"/>
<path d="M82.0703 43.2356C82.0703 38.0244 78.8161 34.8844 74.599 34.8844C69.7177 34.8844 66.6628 38.5923 66.6628 43.1688C66.6628 47.6785 69.4521 51.4533 75.0306 51.4533C78.484 51.4533 80.576 49.8833 81.0077 49.5158L79.9451 46.643C78.6833 47.5449 76.9898 48.2464 75.0971 48.2464C72.5734 48.2464 70.415 47.1441 69.917 44.6387H81.9707C82.0371 44.2044 82.0703 43.5697 82.0703 43.2356ZM69.917 41.699C69.9834 40.129 71.544 38.0912 74.4662 38.0912C77.4879 38.0912 78.7497 40.129 78.8161 41.699H69.917Z" fill="#001029"/>
<path d="M88.4564 38.5923V35.1516H85.2687V51.1861H88.4564V44.0374C88.4564 41.0977 89.8179 39.3272 91.9098 38.5255C92.906 38.1581 94.0682 38.1581 94.8319 38.3919V34.8844C91.8434 34.8844 89.5522 36.2874 88.4564 38.5923Z" fill="#001029"/>
<path d="M100.423 51.4533C101.785 51.4533 102.814 50.3844 102.814 49.0481C102.814 47.6785 101.785 46.643 100.423 46.643C99.0952 46.643 98.0327 47.6785 98.0327 49.0481C98.0327 50.3844 99.0952 51.4533 100.423 51.4533Z" fill="#001029"/>
<path d="M121.405 43.2356C121.405 38.0244 118.151 34.8844 113.934 34.8844C109.052 34.8844 105.997 38.5923 105.997 43.1688C105.997 47.6785 108.787 51.4533 114.365 51.4533C117.819 51.4533 119.911 49.8833 120.342 49.5158L119.28 46.643C118.018 47.5449 116.324 48.2464 114.432 48.2464C111.908 48.2464 109.75 47.1441 109.252 44.6387H121.305C121.372 44.2044 121.405 43.5697 121.405 43.2356ZM109.252 41.699C109.318 40.129 110.879 38.0912 113.801 38.0912C116.822 38.0912 118.084 40.129 118.151 41.699H109.252Z" fill="#001029"/>
<path d="M131.801 42.6678L137.38 35.1516H133.594L129.909 40.4296L126.223 35.1516H122.437L128.016 42.6678L121.939 51.1861H125.725L129.909 45.1397L134.093 51.1861H137.878L131.801 42.6678Z" fill="#001029"/>
<path d="M138.425 43.1688C138.425 47.7453 141.579 51.4533 146.926 51.4533C148.851 51.4533 150.977 50.8186 152.238 49.616L150.877 46.6096C149.881 47.6117 148.486 48.2464 146.959 48.2464C144.003 48.2464 141.613 45.9415 141.613 43.1354C141.613 40.3962 144.003 38.0912 146.959 38.0912C148.486 38.0912 149.881 38.7259 150.877 39.6947L152.238 36.7216C150.844 35.4522 148.851 34.8844 146.926 34.8844C141.646 34.8844 138.425 38.5923 138.425 43.1688Z" fill="#001029"/>
<path d="M163.87 34.8844C161.379 34.8844 159.819 35.9533 158.889 37.0223V27.6688H155.701V51.1861H158.889V42.3671C158.889 39.6279 161.346 38.0912 163.272 38.0912C165.995 38.0912 166.858 39.6613 166.858 42.2335V51.1861H170.046V42.2335C170.046 37.49 167.921 34.8844 163.87 34.8844Z" fill="#001029"/>
<path d="M186.502 35.1516V37.49C185.207 35.7863 183.347 34.8844 181.189 34.8844C176.54 34.8844 173.22 38.5923 173.22 43.1688C173.22 47.7453 176.54 51.4533 181.189 51.4533C183.347 51.4533 185.207 50.5514 186.502 48.8477V51.1861H189.69V35.1516H186.502ZM181.455 48.2464C178.665 48.2464 176.407 45.9749 176.407 43.1688C176.407 40.3628 178.665 38.0912 181.455 38.0912C184.244 38.0912 186.502 40.3628 186.502 43.1688C186.502 45.9749 184.244 48.2464 181.455 48.2464Z" fill="#001029"/>
<path d="M202.394 34.8844C199.903 34.8844 198.343 35.9533 197.413 37.0223V35.1516H194.225V51.1861H197.413V42.3671C197.413 39.6279 199.87 38.0912 201.796 38.0912C204.519 38.0912 205.382 39.6613 205.382 42.2335V51.1861H208.57V41.9662C208.57 37.2227 206.179 34.8844 202.394 34.8844Z" fill="#001029"/>
<path d="M225.026 35.1516V37.49C223.731 35.7863 221.871 34.8844 219.713 34.8844C215.064 34.8844 211.743 38.5923 211.743 43.1688C211.743 47.7453 215.064 51.4533 219.713 51.4533C221.871 51.4533 223.731 50.5514 225.026 48.8477V50.6516C225.026 54.5934 223.033 56.7981 219.713 56.7981C216.89 56.7981 215.197 55.4953 213.869 54.4598L212.275 57.3326C213.005 57.9005 215.595 60.005 219.713 60.005C224.793 60.005 228.214 56.865 228.214 50.1839V35.1516H225.026ZM219.978 48.2464C217.189 48.2464 214.931 45.9749 214.931 43.1688C214.931 40.3628 217.189 38.0912 219.978 38.0912C222.768 38.0912 225.026 40.3628 225.026 43.1688C225.026 45.9749 222.768 48.2464 219.978 48.2464Z" fill="#001029"/>
<path d="M246.834 43.2356C246.834 38.0244 243.58 34.8844 239.363 34.8844C234.482 34.8844 231.427 38.5923 231.427 43.1688C231.427 47.6785 234.216 51.4533 239.795 51.4533C243.248 51.4533 245.34 49.8833 245.772 49.5158L244.709 46.643C243.447 47.5449 241.754 48.2464 239.861 48.2464C237.338 48.2464 235.179 47.1441 234.681 44.6387H246.735C246.801 44.2044 246.834 43.5697 246.834 43.2356ZM234.681 41.699C234.748 40.129 236.308 38.0912 239.23 38.0912C242.252 38.0912 243.514 40.129 243.58 41.699H234.681Z" fill="#001029"/>
<defs>
<linearGradient id="paint0_linear_7703_317820" x1="129" y1="0" x2="129" y2="87" gradientUnits="userSpaceOnUse">
<stop stop-color="#F3AF00"/>
<stop offset="1" stop-color="#E0A203"/>
</linearGradient>
<linearGradient id="paint1_linear_7703_317820" x1="129" y1="0" x2="129" y2="87" gradientUnits="userSpaceOnUse">
<stop stop-color="#00B746"/>
<stop offset="1" stop-color="#03A03F"/>
</linearGradient>
</defs>
</svg>
