<svg width="280" height="88" viewBox="0 0 280 88" fill="none" xmlns="http://www.w3.org/2000/svg">
<rect width="280" height="71" fill="white"/>
<g filter="url(#filter0_d_2334_78876)">
<path d="M193.864 42.112C200.666 36.0623 200.262 28.4889 187.509 20.3547C206.93 30.5259 205.48 37.6026 193.864 42.112C175.815 58.1638 107.027 63.4887 83.5232 40.1008C92.9767 49.508 168.211 52.0715 193.864 42.112Z" fill="#006CFF"/>
</g>
<path fill-rule="evenodd" clip-rule="evenodd" d="M193.88 42.1031L193.877 42.0965C200.663 36.0491 200.249 28.4812 187.506 20.3533C206.917 30.5188 205.478 37.5934 193.88 42.1031Z" fill="url(#paint0_linear_2334_78876)"/>
<g opacity="0.8" filter="url(#filter1_d_2334_78876)">
<path d="M92.5379 54.5641C67.715 44.6618 66.9729 -6.26186 140.624 23.7282C92.5379 11.6372 62.5067 38.9266 92.5379 54.5641Z" fill="url(#paint1_linear_2334_78876)"/>
</g>
<path d="M90.1641 37.6818L94.3738 27.7994H96.1801L100.346 37.6818H98.6856L97.5057 34.7877H92.9463L91.7518 37.6818H90.1641ZM93.4416 33.5594H97.0104L95.2333 29.2112L93.4416 33.5594Z" fill="#001029"/>
<path d="M101.223 37.6818V30.4959H102.679V31.1877C103.233 30.6324 103.927 30.3547 104.762 30.3547C105.267 30.3547 105.714 30.4629 106.103 30.6794C106.501 30.8959 106.816 31.1877 107.049 31.5547C107.36 31.1594 107.724 30.8629 108.142 30.6653C108.559 30.4582 109.03 30.3547 109.555 30.3547C110.108 30.3547 110.589 30.4724 110.997 30.7076C111.414 30.9429 111.74 31.2724 111.973 31.6959C112.216 32.1194 112.337 32.6088 112.337 33.1641V37.6818H110.88V33.4041C110.88 32.8394 110.725 32.3971 110.414 32.0771C110.113 31.7477 109.7 31.5829 109.176 31.5829C108.817 31.5829 108.491 31.6629 108.2 31.8229C107.909 31.983 107.656 32.2277 107.443 32.5571C107.462 32.6512 107.477 32.75 107.486 32.8535C107.496 32.9571 107.501 33.0606 107.501 33.1641V37.6818H106.059V33.4041C106.059 32.8394 105.903 32.3971 105.593 32.0771C105.292 31.7477 104.879 31.5829 104.355 31.5829C104.005 31.5829 103.689 31.6582 103.408 31.8088C103.126 31.95 102.883 32.1665 102.679 32.4582V37.6818H101.223Z" fill="#001029"/>
<path d="M116.356 37.8089C115.822 37.8089 115.351 37.7195 114.943 37.5406C114.536 37.3524 114.215 37.0936 113.982 36.7642C113.749 36.4347 113.632 36.0536 113.632 35.6206C113.632 34.943 113.9 34.4112 114.434 34.0253C114.968 33.63 115.701 33.4324 116.633 33.4324C117.362 33.4324 118.036 33.5688 118.658 33.8418V33.0794C118.658 32.5618 118.503 32.1759 118.192 31.9218C117.891 31.6677 117.444 31.5406 116.852 31.5406C116.512 31.5406 116.157 31.5924 115.788 31.6959C115.419 31.79 115.007 31.9406 114.55 32.1477L114.011 31.0888C114.574 30.8347 115.099 30.6512 115.584 30.5382C116.07 30.4159 116.56 30.3547 117.056 30.3547C118.017 30.3547 118.76 30.5759 119.284 31.0182C119.818 31.4606 120.085 32.0912 120.085 32.91V37.6818H118.658V37.0606C118.328 37.3148 117.973 37.503 117.595 37.6253C117.216 37.7477 116.803 37.8089 116.356 37.8089ZM115.031 35.5924C115.031 35.9406 115.181 36.223 115.482 36.4395C115.793 36.6465 116.196 36.75 116.691 36.75C117.08 36.75 117.434 36.6983 117.755 36.5947C118.085 36.4818 118.386 36.3077 118.658 36.0724V34.8583C118.376 34.6983 118.08 34.5853 117.769 34.5194C117.468 34.4441 117.128 34.4065 116.75 34.4065C116.216 34.4065 115.793 34.5147 115.482 34.7312C115.181 34.9383 115.031 35.2253 115.031 35.5924Z" fill="#001029"/>
<path d="M121.327 37.6818V36.6371L125.493 31.71H121.371V30.4959H127.314V31.5265L123.148 36.4677H127.387V37.6818H121.327Z" fill="#001029"/>
<path d="M132.018 37.823C131.299 37.823 130.644 37.6583 130.051 37.3289C129.468 36.9995 129.007 36.5524 128.667 35.9877C128.327 35.423 128.157 34.7924 128.157 34.0959C128.157 33.3994 128.327 32.7688 128.667 32.2041C129.007 31.6394 129.468 31.1924 130.051 30.8629C130.644 30.5241 131.299 30.3547 132.018 30.3547C132.746 30.3547 133.401 30.5241 133.984 30.8629C134.567 31.1924 135.028 31.6394 135.368 32.2041C135.708 32.7688 135.878 33.3994 135.878 34.0959C135.878 34.7924 135.708 35.423 135.368 35.9877C135.028 36.5524 134.567 36.9995 133.984 37.3289C133.401 37.6583 132.746 37.823 132.018 37.823ZM132.018 36.5806C132.474 36.5806 132.887 36.4724 133.256 36.2559C133.625 36.03 133.916 35.7289 134.13 35.3524C134.343 34.9759 134.45 34.5524 134.45 34.0818C134.45 33.6206 134.339 33.2065 134.115 32.8394C133.902 32.463 133.61 32.1618 133.241 31.9359C132.882 31.71 132.474 31.5971 132.018 31.5971C131.561 31.5971 131.148 31.71 130.779 31.9359C130.42 32.1618 130.129 32.463 129.905 32.8394C129.692 33.2065 129.585 33.6206 129.585 34.0818C129.585 34.5524 129.692 34.9759 129.905 35.3524C130.119 35.7289 130.41 36.03 130.779 36.2559C131.148 36.4724 131.561 36.5806 132.018 36.5806Z" fill="#001029"/>
<path d="M137.255 37.6818V30.4959H138.712V31.23C139.285 30.6465 140.028 30.3547 140.941 30.3547C141.514 30.3547 142.014 30.4724 142.441 30.7076C142.878 30.9429 143.218 31.2724 143.461 31.6959C143.713 32.1194 143.839 32.6088 143.839 33.1641V37.6818H142.383V33.4041C142.383 32.8394 142.218 32.3971 141.887 32.0771C141.567 31.7477 141.115 31.5829 140.533 31.5829C140.144 31.5829 139.795 31.6629 139.484 31.8229C139.173 31.983 138.916 32.2135 138.712 32.5147V37.6818H137.255Z" fill="#001029"/>
<path d="M148.069 37.823C147.428 37.823 146.826 37.7336 146.263 37.5548C145.71 37.3665 145.229 37.103 144.821 36.7642L145.622 35.8324C146.001 36.1242 146.389 36.35 146.787 36.51C147.195 36.6606 147.608 36.7359 148.026 36.7359C148.55 36.7359 148.977 36.6371 149.307 36.4395C149.638 36.2418 149.803 35.983 149.803 35.663C149.803 35.3994 149.706 35.1924 149.511 35.0418C149.317 34.8912 149.016 34.7877 148.608 34.7312L147.268 34.5477C146.53 34.4441 145.977 34.223 145.608 33.8841C145.239 33.5453 145.054 33.0935 145.054 32.5288C145.054 32.0959 145.175 31.7194 145.418 31.3994C145.661 31.07 146.001 30.8159 146.438 30.6371C146.875 30.4488 147.385 30.3547 147.967 30.3547C148.501 30.3547 149.016 30.43 149.511 30.5806C150.007 30.7312 150.483 30.9665 150.939 31.2865L150.196 32.2182C149.788 31.9547 149.39 31.7618 149.002 31.6394C148.623 31.5171 148.239 31.4559 147.851 31.4559C147.404 31.4559 147.045 31.55 146.773 31.7382C146.501 31.9171 146.365 32.1524 146.365 32.4441C146.365 32.7077 146.457 32.9147 146.642 33.0653C146.836 33.2065 147.152 33.3053 147.589 33.3618L148.929 33.5453C149.667 33.6488 150.225 33.87 150.604 34.2088C150.983 34.5383 151.172 34.9853 151.172 35.55C151.172 35.983 151.036 36.3736 150.764 36.7218C150.492 37.0606 150.123 37.3289 149.657 37.5265C149.191 37.7242 148.662 37.823 148.069 37.823Z" fill="#001029"/>
<path d="M155.917 37.8089C155.188 37.8089 154.528 37.6442 153.936 37.3148C153.353 36.9853 152.887 36.5383 152.537 35.9736C152.197 35.4089 152.027 34.7783 152.027 34.0818C152.027 33.3947 152.193 32.7735 152.523 32.2182C152.853 31.6535 153.3 31.2065 153.863 30.8771C154.426 30.5382 155.052 30.3688 155.742 30.3688C156.431 30.3688 157.043 30.5382 157.577 30.8771C158.111 31.2065 158.534 31.6582 158.845 32.2324C159.165 32.7971 159.325 33.4371 159.325 34.1524V34.5477H153.484C153.562 34.943 153.712 35.2959 153.936 35.6065C154.169 35.9171 154.46 36.1618 154.81 36.3406C155.169 36.5195 155.557 36.6089 155.975 36.6089C156.334 36.6089 156.679 36.5571 157.009 36.4536C157.349 36.3406 157.631 36.1806 157.854 35.9736L158.786 36.863C158.349 37.183 157.898 37.423 157.432 37.583C156.975 37.7336 156.47 37.8089 155.917 37.8089ZM153.499 33.4888H157.883C157.825 33.1124 157.689 32.783 157.475 32.5006C157.271 32.2088 157.014 31.983 156.703 31.8229C156.402 31.6535 156.072 31.5688 155.713 31.5688C155.344 31.5688 155.004 31.6488 154.693 31.8088C154.382 31.9688 154.12 32.1947 153.907 32.4865C153.703 32.7688 153.567 33.103 153.499 33.4888Z" fill="#001029"/>
<path d="M160.713 37.6818V30.4959H162.169V31.4135C162.402 31.0747 162.689 30.8112 163.029 30.6229C163.378 30.4253 163.772 30.3265 164.209 30.3265C164.51 30.3359 164.757 30.3782 164.952 30.4535V31.7241C164.816 31.6677 164.675 31.63 164.529 31.6112C164.384 31.5829 164.238 31.5688 164.092 31.5688C163.665 31.5688 163.286 31.6818 162.956 31.9077C162.626 32.1241 162.364 32.4441 162.169 32.8677V37.6818H160.713Z" fill="#001029"/>
<path d="M168.721 37.6818L165.516 30.4959H167.118L169.434 35.8747L171.751 30.4959H173.295L170.119 37.6818H168.721Z" fill="#001029"/>
<path d="M174.198 37.6818V30.4959H175.655V37.6818H174.198ZM174.927 29.3382C174.684 29.3382 174.475 29.2535 174.3 29.0841C174.125 28.9053 174.038 28.6982 174.038 28.4629C174.038 28.2182 174.125 28.0159 174.3 27.8559C174.475 27.6865 174.684 27.6017 174.927 27.6017C175.179 27.6017 175.393 27.6865 175.568 27.8559C175.742 28.0159 175.83 28.2182 175.83 28.4629C175.83 28.6982 175.742 28.9053 175.568 29.0841C175.393 29.2535 175.179 29.3382 174.927 29.3382Z" fill="#001029"/>
<path d="M180.852 37.8089C180.143 37.8089 179.497 37.6442 178.915 37.3148C178.332 36.9853 177.871 36.5383 177.531 35.9736C177.201 35.4089 177.035 34.7783 177.035 34.0818C177.035 33.3853 177.205 32.7594 177.545 32.2041C177.885 31.6394 178.342 31.1924 178.915 30.8629C179.497 30.5241 180.143 30.3547 180.852 30.3547C181.415 30.3547 181.954 30.4582 182.469 30.6653C182.993 30.8724 183.445 31.1641 183.824 31.5406L182.92 32.5147C182.639 32.2135 182.323 31.9877 181.974 31.8371C181.624 31.6865 181.26 31.6112 180.881 31.6112C180.434 31.6112 180.027 31.7194 179.657 31.9359C179.298 32.1524 179.012 32.4488 178.798 32.8253C178.584 33.2018 178.478 33.6206 178.478 34.0818C178.478 34.543 178.584 34.9618 178.798 35.3383C179.012 35.7147 179.303 36.0159 179.672 36.2418C180.041 36.4583 180.454 36.5665 180.91 36.5665C181.289 36.5665 181.643 36.4959 181.974 36.3547C182.304 36.2042 182.615 35.9877 182.906 35.7053L183.794 36.6089C183.406 36.9948 182.954 37.2912 182.44 37.4983C181.935 37.7053 181.405 37.8089 180.852 37.8089Z" fill="#001029"/>
<path d="M188.308 37.8089C187.579 37.8089 186.919 37.6442 186.327 37.3148C185.744 36.9853 185.278 36.5383 184.928 35.9736C184.588 35.4089 184.418 34.7783 184.418 34.0818C184.418 33.3947 184.583 32.7735 184.914 32.2182C185.244 31.6535 185.691 31.2065 186.254 30.8771C186.817 30.5382 187.443 30.3688 188.133 30.3688C188.822 30.3688 189.434 30.5382 189.968 30.8771C190.502 31.2065 190.925 31.6582 191.236 32.2324C191.556 32.7971 191.716 33.4371 191.716 34.1524V34.5477H185.875C185.953 34.943 186.103 35.2959 186.327 35.6065C186.56 35.9171 186.851 36.1618 187.201 36.3406C187.56 36.5195 187.948 36.6089 188.366 36.6089C188.725 36.6089 189.07 36.5571 189.4 36.4536C189.74 36.3406 190.022 36.1806 190.245 35.9736L191.177 36.863C190.74 37.183 190.289 37.423 189.823 37.583C189.366 37.7336 188.861 37.8089 188.308 37.8089ZM185.89 33.4888H190.274C190.216 33.1124 190.08 32.783 189.866 32.5006C189.662 32.2088 189.405 31.983 189.094 31.8229C188.793 31.6535 188.463 31.5688 188.104 31.5688C187.735 31.5688 187.395 31.6488 187.084 31.8088C186.773 31.9688 186.511 32.1947 186.298 32.4865C186.094 32.7688 185.958 33.103 185.89 33.4888Z" fill="#001029"/>
<defs>
<filter id="filter0_d_2334_78876" x="73.5234" y="11.3547" width="138.875" height="55.5675" filterUnits="userSpaceOnUse" color-interpolation-filters="sRGB">
<feFlood flood-opacity="0" result="BackgroundImageFix"/>
<feColorMatrix in="SourceAlpha" type="matrix" values="0 0 0 0 0 0 0 0 0 0 0 0 0 0 0 0 0 0 127 0" result="hardAlpha"/>
<feOffset dy="1"/>
<feGaussianBlur stdDeviation="5"/>
<feComposite in2="hardAlpha" operator="out"/>
<feColorMatrix type="matrix" values="0 0 0 0 0.0230625 0 0 0 0 0.156236 0 0 0 0 0.3375 0 0 0 0.1 0"/>
<feBlend mode="normal" in2="BackgroundImageFix" result="effect1_dropShadow_2334_78876"/>
<feBlend mode="normal" in="SourceGraphic" in2="effect1_dropShadow_2334_78876" result="shape"/>
</filter>
<filter id="filter1_d_2334_78876" x="67.4219" y="5.38391" width="83.2012" height="60.1802" filterUnits="userSpaceOnUse" color-interpolation-filters="sRGB">
<feFlood flood-opacity="0" result="BackgroundImageFix"/>
<feColorMatrix in="SourceAlpha" type="matrix" values="0 0 0 0 0 0 0 0 0 0 0 0 0 0 0 0 0 0 127 0" result="hardAlpha"/>
<feOffset dy="1"/>
<feGaussianBlur stdDeviation="5"/>
<feComposite in2="hardAlpha" operator="out"/>
<feColorMatrix type="matrix" values="0 0 0 0 0.0230625 0 0 0 0 0.156236 0 0 0 0 0.3375 0 0 0 0.1 0"/>
<feBlend mode="normal" in2="BackgroundImageFix" result="effect1_dropShadow_2334_78876"/>
<feBlend mode="normal" in="SourceGraphic" in2="effect1_dropShadow_2334_78876" result="shape"/>
</filter>
<linearGradient id="paint0_linear_2334_78876" x1="194.951" y1="20.3533" x2="194.951" y2="42.1031" gradientUnits="userSpaceOnUse">
<stop stop-color="#F3AF00"/>
<stop offset="1" stop-color="#E0A203"/>
</linearGradient>
<linearGradient id="paint1_linear_2334_78876" x1="127.96" y1="45.632" x2="82.4621" y2="19.3279" gradientUnits="userSpaceOnUse">
<stop stop-color="#00B746"/>
<stop offset="1" stop-color="#03A03F"/>
</linearGradient>
</defs>
</svg>
