<svg width="280" height="77" viewBox="0 0 280 77" fill="none" xmlns="http://www.w3.org/2000/svg">
<rect width="280" height="70" fill="white"/>
<g filter="url(#filter0_d_7390_320900)">
<path d="M180.185 42.4746C185.26 37.9229 184.957 32.2248 175.444 26.1048C189.933 33.7574 188.85 39.0817 180.185 42.4746C166.72 54.5516 115.401 58.5579 97.8669 40.9614C104.92 48.0392 161.046 49.9678 180.185 42.4746Z" fill="#006CFF"/>
</g>
<path fill-rule="evenodd" clip-rule="evenodd" d="M180.197 42.4677L180.194 42.4627C185.257 37.9128 184.948 32.2188 175.441 26.1035C189.923 33.7519 188.849 39.0746 180.197 42.4677Z" fill="url(#paint0_linear_7390_320900)"/>
<g opacity="0.8" filter="url(#filter1_d_7390_320900)">
<path d="M104.591 51.8439C86.0727 44.3936 85.5191 6.07959 140.465 28.6435C104.591 19.5465 82.1871 40.0785 104.591 51.8439Z" fill="url(#paint1_linear_7390_320900)"/>
</g>
<path d="M101.732 35.296C100.46 35.044 99.908 34.756 99.908 34.132C99.908 33.412 100.532 32.992 101.636 32.992C102.644 32.992 103.292 33.436 103.712 33.844L104.264 32.8C103.268 31.876 101.996 31.84 101.66 31.84C99.776 31.84 98.756 32.872 98.756 34.18C98.756 35.26 99.392 36.064 101.636 36.448C102.74 36.64 103.472 37.036 103.472 37.684C103.472 38.452 102.812 38.944 101.6 38.944C100.652 38.944 99.728 38.5 99.056 37.756L98.48 38.788C98.6 38.932 99.632 40.096 101.576 40.096C103.46 40.096 104.624 39.04 104.624 37.636C104.624 36.28 103.652 35.668 101.732 35.296ZM111.15 37.144C111.15 35.272 109.974 34.144 108.45 34.144C106.686 34.144 105.582 35.476 105.582 37.12C105.582 38.74 106.59 40.096 108.606 40.096C109.854 40.096 110.61 39.532 110.766 39.4L110.382 38.368C109.926 38.692 109.314 38.944 108.63 38.944C107.718 38.944 106.938 38.548 106.758 37.648H111.114C111.138 37.492 111.15 37.264 111.15 37.144ZM106.758 36.592C106.782 36.028 107.346 35.296 108.402 35.296C109.494 35.296 109.95 36.028 109.974 36.592H106.758ZM112.305 31.552V40H113.457V31.552H112.305ZM115.094 31.552V40H116.246V31.552H115.094ZM122.974 37.144C122.974 35.272 121.798 34.144 120.274 34.144C118.51 34.144 117.406 35.476 117.406 37.12C117.406 38.74 118.414 40.096 120.43 40.096C121.678 40.096 122.434 39.532 122.59 39.4L122.206 38.368C121.75 38.692 121.138 38.944 120.454 38.944C119.542 38.944 118.762 38.548 118.582 37.648H122.938C122.962 37.492 122.974 37.264 122.974 37.144ZM118.582 36.592C118.606 36.028 119.17 35.296 120.226 35.296C121.318 35.296 121.774 36.028 121.798 36.592H118.582ZM125.282 35.476V34.24H124.13V40H125.282V37.432C125.282 36.376 125.774 35.74 126.53 35.452C126.89 35.32 127.31 35.32 127.586 35.404V34.144C126.506 34.144 125.678 34.648 125.282 35.476ZM129.606 40.096C130.098 40.096 130.47 39.712 130.47 39.232C130.47 38.74 130.098 38.368 129.606 38.368C129.126 38.368 128.742 38.74 128.742 39.232C128.742 39.712 129.126 40.096 129.606 40.096ZM137.189 37.144C137.189 35.272 136.013 34.144 134.489 34.144C132.725 34.144 131.621 35.476 131.621 37.12C131.621 38.74 132.629 40.096 134.645 40.096C135.893 40.096 136.649 39.532 136.805 39.4L136.421 38.368C135.965 38.692 135.353 38.944 134.669 38.944C133.757 38.944 132.977 38.548 132.797 37.648H137.153C137.177 37.492 137.189 37.264 137.189 37.144ZM132.797 36.592C132.821 36.028 133.385 35.296 134.441 35.296C135.533 35.296 135.989 36.028 136.013 36.592H132.797ZM140.946 36.94L142.962 34.24H141.594L140.262 36.136L138.93 34.24H137.562L139.578 36.94L137.382 40H138.75L140.262 37.828L141.774 40H143.142L140.946 36.94ZM143.339 37.12C143.339 38.764 144.479 40.096 146.411 40.096C147.107 40.096 147.875 39.868 148.331 39.436L147.839 38.356C147.479 38.716 146.975 38.944 146.423 38.944C145.355 38.944 144.491 38.116 144.491 37.108C144.491 36.124 145.355 35.296 146.423 35.296C146.975 35.296 147.479 35.524 147.839 35.872L148.331 34.804C147.827 34.348 147.107 34.144 146.411 34.144C144.503 34.144 143.339 35.476 143.339 37.12ZM152.535 34.144C151.635 34.144 151.071 34.528 150.735 34.912V31.552H149.583V40H150.735V36.832C150.735 35.848 151.623 35.296 152.319 35.296C153.303 35.296 153.615 35.86 153.615 36.784V40H154.767V36.784C154.767 35.08 153.999 34.144 152.535 34.144ZM160.714 34.24V35.08C160.246 34.468 159.574 34.144 158.794 34.144C157.114 34.144 155.914 35.476 155.914 37.12C155.914 38.764 157.114 40.096 158.794 40.096C159.574 40.096 160.246 39.772 160.714 39.16V40H161.866V34.24H160.714ZM158.89 38.944C157.882 38.944 157.066 38.128 157.066 37.12C157.066 36.112 157.882 35.296 158.89 35.296C159.898 35.296 160.714 36.112 160.714 37.12C160.714 38.128 159.898 38.944 158.89 38.944ZM166.457 34.144C165.557 34.144 164.993 34.528 164.657 34.912V34.24H163.505V40H164.657V36.832C164.657 35.848 165.545 35.296 166.241 35.296C167.225 35.296 167.537 35.86 167.537 36.784V40H168.689V36.688C168.689 34.984 167.825 34.144 166.457 34.144ZM174.635 34.24V35.08C174.167 34.468 173.495 34.144 172.715 34.144C171.035 34.144 169.835 35.476 169.835 37.12C169.835 38.764 171.035 40.096 172.715 40.096C173.495 40.096 174.167 39.772 174.635 39.16V39.808C174.635 41.224 173.915 42.016 172.715 42.016C171.695 42.016 171.083 41.548 170.603 41.176L170.027 42.208C170.291 42.412 171.227 43.168 172.715 43.168C174.551 43.168 175.787 42.04 175.787 39.64V34.24H174.635ZM172.811 38.944C171.803 38.944 170.987 38.128 170.987 37.12C170.987 36.112 171.803 35.296 172.811 35.296C173.819 35.296 174.635 36.112 174.635 37.12C174.635 38.128 173.819 38.944 172.811 38.944ZM182.517 37.144C182.517 35.272 181.341 34.144 179.817 34.144C178.053 34.144 176.949 35.476 176.949 37.12C176.949 38.74 177.957 40.096 179.973 40.096C181.221 40.096 181.977 39.532 182.133 39.4L181.749 38.368C181.293 38.692 180.681 38.944 179.997 38.944C179.085 38.944 178.305 38.548 178.125 37.648H182.481C182.505 37.492 182.517 37.264 182.517 37.144ZM178.125 36.592C178.149 36.028 178.713 35.296 179.769 35.296C180.861 35.296 181.317 36.028 181.341 36.592H178.125Z" fill="black"/>
<defs>
<filter id="filter0_d_7390_320900" x="87.8672" y="17.1055" width="108.684" height="46.7598" filterUnits="userSpaceOnUse" color-interpolation-filters="sRGB">
<feFlood flood-opacity="0" result="BackgroundImageFix"/>
<feColorMatrix in="SourceAlpha" type="matrix" values="0 0 0 0 0 0 0 0 0 0 0 0 0 0 0 0 0 0 127 0" result="hardAlpha"/>
<feOffset dy="1"/>
<feGaussianBlur stdDeviation="5"/>
<feComposite in2="hardAlpha" operator="out"/>
<feColorMatrix type="matrix" values="0 0 0 0 0.0230625 0 0 0 0 0.156236 0 0 0 0 0.3375 0 0 0 0.1 0"/>
<feBlend mode="normal" in2="BackgroundImageFix" result="effect1_dropShadow_7390_320900"/>
<feBlend mode="normal" in="SourceGraphic" in2="effect1_dropShadow_7390_320900" result="shape"/>
</filter>
<filter id="filter1_d_7390_320900" x="83.3164" y="12.6133" width="67.1484" height="50.2305" filterUnits="userSpaceOnUse" color-interpolation-filters="sRGB">
<feFlood flood-opacity="0" result="BackgroundImageFix"/>
<feColorMatrix in="SourceAlpha" type="matrix" values="0 0 0 0 0 0 0 0 0 0 0 0 0 0 0 0 0 0 127 0" result="hardAlpha"/>
<feOffset dy="1"/>
<feGaussianBlur stdDeviation="5"/>
<feComposite in2="hardAlpha" operator="out"/>
<feColorMatrix type="matrix" values="0 0 0 0 0.0230625 0 0 0 0 0.156236 0 0 0 0 0.3375 0 0 0 0.1 0"/>
<feBlend mode="normal" in2="BackgroundImageFix" result="effect1_dropShadow_7390_320900"/>
<feBlend mode="normal" in="SourceGraphic" in2="effect1_dropShadow_7390_320900" result="shape"/>
</filter>
<linearGradient id="paint0_linear_7390_320900" x1="180.996" y1="26.1035" x2="180.996" y2="42.4677" gradientUnits="userSpaceOnUse">
<stop stop-color="#F3AF00"/>
<stop offset="1" stop-color="#E0A203"/>
</linearGradient>
<linearGradient id="paint1_linear_7390_320900" x1="131.018" y1="45.1235" x2="96.931" y2="25.5832" gradientUnits="userSpaceOnUse">
<stop stop-color="#00B746"/>
<stop offset="1" stop-color="#03A03F"/>
</linearGradient>
</defs>
</svg>
