<svg width="280" height="105" viewBox="0 0 280 105" fill="none" xmlns="http://www.w3.org/2000/svg">
<g filter="url(#filter0_d_8022_318105)">
<path d="M193.865 59.112C200.667 53.0623 200.262 45.4889 187.509 37.3547C206.931 47.5259 205.48 54.6026 193.865 59.112C175.816 75.1638 107.027 80.4887 83.5237 57.1008C92.9772 66.508 168.211 69.0715 193.865 59.112Z" fill="#006CFF"/>
</g>
<path fill-rule="evenodd" clip-rule="evenodd" d="M193.881 59.1034L193.878 59.0967C200.664 53.0494 200.249 45.4814 187.507 37.3535C206.917 47.5191 205.479 54.5936 193.881 59.1034Z" fill="url(#paint0_linear_8022_318105)"/>
<g opacity="0.8" filter="url(#filter1_d_8022_318105)">
<path d="M92.5374 71.5645C67.7145 61.6622 66.9725 10.7385 140.623 40.7286C92.5374 28.6375 62.5062 55.9269 92.5374 71.5645Z" fill="url(#paint1_linear_8022_318105)"/>
</g>
<path d="M90.1634 54.6816L94.3732 44.7992H96.1794L100.345 54.6816H98.6849L97.505 51.7875H92.9456L91.7512 54.6816H90.1634ZM93.4409 50.5592H97.0097L95.2326 46.211L93.4409 50.5592Z" fill="#001029"/>
<path d="M101.222 54.6816V47.4957H102.679V48.1875C103.232 47.6322 103.927 47.3545 104.762 47.3545C105.267 47.3545 105.713 47.4628 106.102 47.6792C106.5 47.8957 106.816 48.1875 107.049 48.5545C107.359 48.1592 107.724 47.8628 108.141 47.6651C108.559 47.4581 109.03 47.3545 109.554 47.3545C110.108 47.3545 110.588 47.4722 110.996 47.7075C111.414 47.9428 111.739 48.2722 111.972 48.6957C112.215 49.1192 112.336 49.6087 112.336 50.164V54.6816H110.88V50.404C110.88 49.8392 110.724 49.3969 110.414 49.0769C110.113 48.7475 109.7 48.5828 109.175 48.5828C108.816 48.5828 108.491 48.6628 108.199 48.8228C107.908 48.9828 107.656 49.2275 107.442 49.5569C107.461 49.651 107.476 49.7498 107.486 49.8534C107.495 49.9569 107.5 50.0604 107.5 50.164V54.6816H106.058V50.404C106.058 49.8392 105.903 49.3969 105.592 49.0769C105.291 48.7475 104.878 48.5828 104.354 48.5828C104.004 48.5828 103.689 48.6581 103.407 48.8086C103.125 48.9498 102.883 49.1663 102.679 49.4581V54.6816H101.222Z" fill="#001029"/>
<path d="M116.356 54.8087C115.822 54.8087 115.351 54.7193 114.943 54.5405C114.535 54.3522 114.214 54.0934 113.981 53.764C113.748 53.4346 113.632 53.0534 113.632 52.6204C113.632 51.9428 113.899 51.411 114.433 51.0251C114.967 50.6298 115.7 50.4322 116.633 50.4322C117.361 50.4322 118.036 50.5687 118.657 50.8416V50.0792C118.657 49.5616 118.502 49.1757 118.191 48.9216C117.89 48.6675 117.443 48.5404 116.851 48.5404C116.511 48.5404 116.157 48.5922 115.788 48.6957C115.419 48.7898 115.006 48.9404 114.549 49.1475L114.011 48.0886C114.574 47.8345 115.098 47.651 115.584 47.5381C116.069 47.4157 116.56 47.3545 117.055 47.3545C118.016 47.3545 118.759 47.5757 119.284 48.0181C119.818 48.4604 120.085 49.091 120.085 49.9098V54.6816H118.657V54.0604C118.327 54.3146 117.973 54.5028 117.594 54.6252C117.215 54.7475 116.802 54.8087 116.356 54.8087ZM115.03 52.5922C115.03 52.9404 115.181 53.2228 115.482 53.4393C115.793 53.6463 116.196 53.7499 116.691 53.7499C117.079 53.7499 117.434 53.6981 117.754 53.5946C118.084 53.4816 118.385 53.3075 118.657 53.0722V51.8581C118.376 51.6981 118.079 51.5851 117.769 51.5193C117.468 51.444 117.128 51.4063 116.749 51.4063C116.215 51.4063 115.793 51.5145 115.482 51.731C115.181 51.9381 115.03 52.2251 115.03 52.5922Z" fill="#001029"/>
<path d="M121.326 54.6816V53.6369L125.492 48.7098H121.37V47.4957H127.313V48.5263L123.147 53.4675H127.386V54.6816H121.326Z" fill="#001029"/>
<path d="M132.017 54.8228C131.298 54.8228 130.643 54.6581 130.05 54.3287C129.468 53.9993 129.007 53.5522 128.667 52.9875C128.327 52.4228 128.157 51.7922 128.157 51.0957C128.157 50.3992 128.327 49.7687 128.667 49.2039C129.007 48.6392 129.468 48.1922 130.05 47.8628C130.643 47.5239 131.298 47.3545 132.017 47.3545C132.745 47.3545 133.401 47.5239 133.983 47.8628C134.566 48.1922 135.027 48.6392 135.367 49.2039C135.707 49.7687 135.877 50.3992 135.877 51.0957C135.877 51.7922 135.707 52.4228 135.367 52.9875C135.027 53.5522 134.566 53.9993 133.983 54.3287C133.401 54.6581 132.745 54.8228 132.017 54.8228ZM132.017 53.5804C132.473 53.5804 132.886 53.4722 133.255 53.2557C133.624 53.0299 133.915 52.7287 134.129 52.3522C134.343 51.9757 134.45 51.5522 134.45 51.0816C134.45 50.6204 134.338 50.2063 134.115 49.8392C133.901 49.4628 133.61 49.1616 133.241 48.9357C132.881 48.7098 132.473 48.5969 132.017 48.5969C131.561 48.5969 131.148 48.7098 130.779 48.9357C130.419 49.1616 130.128 49.4628 129.905 49.8392C129.691 50.2063 129.584 50.6204 129.584 51.0816C129.584 51.5522 129.691 51.9757 129.905 52.3522C130.118 52.7287 130.41 53.0299 130.779 53.2557C131.148 53.4722 131.561 53.5804 132.017 53.5804Z" fill="#001029"/>
<path d="M137.255 54.6816V47.4957H138.711V48.2298C139.284 47.6463 140.027 47.3545 140.94 47.3545C141.513 47.3545 142.013 47.4722 142.44 47.7075C142.877 47.9428 143.217 48.2722 143.46 48.6957C143.712 49.1192 143.839 49.6087 143.839 50.164V54.6816H142.382V50.404C142.382 49.8392 142.217 49.3969 141.887 49.0769C141.566 48.7475 141.115 48.5828 140.532 48.5828C140.144 48.5828 139.794 48.6628 139.483 48.8228C139.173 48.9828 138.915 49.2134 138.711 49.5145V54.6816H137.255Z" fill="#001029"/>
<path d="M148.069 54.8228C147.428 54.8228 146.826 54.7334 146.262 54.5546C145.709 54.3663 145.228 54.1028 144.82 53.764L145.621 52.8322C146 53.124 146.389 53.3499 146.787 53.5099C147.195 53.6604 147.607 53.7357 148.025 53.7357C148.549 53.7357 148.977 53.6369 149.307 53.4393C149.637 53.2416 149.802 52.9828 149.802 52.6628C149.802 52.3993 149.705 52.1922 149.511 52.0416C149.317 51.891 149.015 51.7875 148.608 51.731L147.267 51.5475C146.529 51.444 145.976 51.2228 145.607 50.884C145.238 50.5451 145.053 50.0934 145.053 49.5287C145.053 49.0957 145.175 48.7192 145.418 48.3992C145.66 48.0698 146 47.8157 146.437 47.6369C146.874 47.4486 147.384 47.3545 147.967 47.3545C148.501 47.3545 149.015 47.4298 149.511 47.5804C150.006 47.731 150.482 47.9663 150.938 48.2863L150.195 49.2181C149.788 48.9545 149.389 48.7616 149.001 48.6392C148.622 48.5169 148.239 48.4557 147.85 48.4557C147.403 48.4557 147.044 48.5498 146.772 48.7381C146.5 48.9169 146.364 49.1522 146.364 49.4439C146.364 49.7075 146.457 49.9145 146.641 50.0651C146.835 50.2063 147.151 50.3051 147.588 50.3616L148.928 50.5451C149.666 50.6487 150.225 50.8698 150.603 51.2087C150.982 51.5381 151.171 51.9851 151.171 52.5499C151.171 52.9828 151.035 53.3734 150.763 53.7216C150.492 54.0604 150.123 54.3287 149.656 54.5263C149.19 54.724 148.661 54.8228 148.069 54.8228Z" fill="#001029"/>
<path d="M155.916 54.8087C155.188 54.8087 154.527 54.644 153.935 54.3146C153.352 53.9852 152.886 53.5381 152.537 52.9734C152.197 52.4087 152.027 51.7781 152.027 51.0816C152.027 50.3945 152.192 49.7734 152.522 49.2181C152.852 48.6534 153.299 48.2063 153.862 47.8769C154.425 47.5381 155.052 47.3686 155.741 47.3686C156.431 47.3686 157.043 47.5381 157.577 47.8769C158.111 48.2063 158.533 48.6581 158.844 49.2322C159.164 49.7969 159.325 50.4369 159.325 51.1522V51.5475H153.483C153.561 51.9428 153.712 52.2957 153.935 52.6063C154.168 52.9169 154.459 53.1616 154.809 53.3404C155.168 53.5193 155.557 53.6087 155.974 53.6087C156.334 53.6087 156.678 53.5569 157.009 53.4534C157.348 53.3404 157.63 53.1804 157.853 52.9734L158.786 53.8628C158.349 54.1828 157.897 54.4228 157.431 54.5828C156.975 54.7334 156.47 54.8087 155.916 54.8087ZM153.498 50.4887H157.883C157.824 50.1122 157.688 49.7828 157.475 49.5004C157.271 49.2087 157.013 48.9828 156.703 48.8228C156.402 48.6534 156.071 48.5686 155.712 48.5686C155.343 48.5686 155.003 48.6486 154.692 48.8086C154.382 48.9687 154.12 49.1945 153.906 49.4863C153.702 49.7687 153.566 50.1028 153.498 50.4887Z" fill="#001029"/>
<path d="M160.712 54.6816V47.4957H162.169V48.4134C162.402 48.0745 162.688 47.811 163.028 47.6228C163.378 47.4251 163.771 47.3263 164.208 47.3263C164.509 47.3357 164.757 47.3781 164.951 47.4533V48.7239C164.815 48.6675 164.674 48.6298 164.529 48.611C164.383 48.5828 164.237 48.5686 164.092 48.5686C163.664 48.5686 163.286 48.6816 162.955 48.9075C162.625 49.1239 162.363 49.4439 162.169 49.8675V54.6816H160.712Z" fill="#001029"/>
<path d="M168.72 54.6816L165.515 47.4957H167.118L169.434 52.8746L171.75 47.4957H173.294L170.118 54.6816H168.72Z" fill="#001029"/>
<path d="M174.198 54.6816V47.4957H175.654V54.6816H174.198ZM174.926 46.338C174.683 46.338 174.474 46.2533 174.3 46.0839C174.125 45.9051 174.037 45.698 174.037 45.4627C174.037 45.218 174.125 45.0157 174.3 44.8557C174.474 44.6863 174.683 44.6016 174.926 44.6016C175.178 44.6016 175.392 44.6863 175.567 44.8557C175.742 45.0157 175.829 45.218 175.829 45.4627C175.829 45.698 175.742 45.9051 175.567 46.0839C175.392 46.2533 175.178 46.338 174.926 46.338Z" fill="#001029"/>
<path d="M180.851 54.8087C180.142 54.8087 179.497 54.644 178.914 54.3146C178.331 53.9852 177.87 53.5381 177.53 52.9734C177.2 52.4087 177.035 51.7781 177.035 51.0816C177.035 50.3851 177.205 49.7592 177.545 49.2039C177.885 48.6392 178.341 48.1922 178.914 47.8628C179.497 47.5239 180.142 47.3545 180.851 47.3545C181.415 47.3545 181.953 47.4581 182.468 47.6651C182.993 47.8722 183.444 48.1639 183.823 48.5404L182.92 49.5145C182.638 49.2134 182.323 48.9875 181.973 48.8369C181.623 48.6863 181.259 48.611 180.88 48.611C180.434 48.611 180.026 48.7192 179.657 48.9357C179.298 49.1522 179.011 49.4487 178.797 49.8251C178.584 50.2016 178.477 50.6204 178.477 51.0816C178.477 51.5428 178.584 51.9616 178.797 52.3381C179.011 52.7146 179.302 53.0157 179.671 53.2416C180.04 53.4581 180.453 53.5663 180.91 53.5663C181.288 53.5663 181.643 53.4957 181.973 53.3546C182.303 53.204 182.614 52.9875 182.905 52.7051L183.794 53.6087C183.405 53.9946 182.954 54.291 182.439 54.4981C181.934 54.7052 181.405 54.8087 180.851 54.8087Z" fill="#001029"/>
<path d="M188.307 54.8087C187.579 54.8087 186.918 54.644 186.326 54.3146C185.743 53.9852 185.277 53.5381 184.928 52.9734C184.588 52.4087 184.418 51.7781 184.418 51.0816C184.418 50.3945 184.583 49.7734 184.913 49.2181C185.243 48.6534 185.69 48.2063 186.253 47.8769C186.816 47.5381 187.443 47.3686 188.132 47.3686C188.822 47.3686 189.434 47.5381 189.968 47.8769C190.502 48.2063 190.924 48.6581 191.235 49.2322C191.555 49.7969 191.716 50.4369 191.716 51.1522V51.5475H185.874C185.952 51.9428 186.103 52.2957 186.326 52.6063C186.559 52.9169 186.85 53.1616 187.2 53.3404C187.559 53.5193 187.948 53.6087 188.365 53.6087C188.725 53.6087 189.069 53.5569 189.4 53.4534C189.739 53.3404 190.021 53.1804 190.244 52.9734L191.177 53.8628C190.74 54.1828 190.288 54.4228 189.822 54.5828C189.366 54.7334 188.861 54.8087 188.307 54.8087ZM185.889 50.4887H190.274C190.215 50.1122 190.079 49.7828 189.866 49.5004C189.662 49.2087 189.404 48.9828 189.094 48.8228C188.793 48.6534 188.462 48.5686 188.103 48.5686C187.734 48.5686 187.394 48.6486 187.083 48.8086C186.773 48.9687 186.51 49.1945 186.297 49.4863C186.093 49.7687 185.957 50.1028 185.889 50.4887Z" fill="#001029"/>
<defs>
<filter id="filter0_d_8022_318105" x="73.5237" y="28.3545" width="138.876" height="55.5674" filterUnits="userSpaceOnUse" color-interpolation-filters="sRGB">
<feFlood flood-opacity="0" result="BackgroundImageFix"/>
<feColorMatrix in="SourceAlpha" type="matrix" values="0 0 0 0 0 0 0 0 0 0 0 0 0 0 0 0 0 0 127 0" result="hardAlpha"/>
<feOffset dy="1"/>
<feGaussianBlur stdDeviation="5"/>
<feComposite in2="hardAlpha" operator="out"/>
<feColorMatrix type="matrix" values="0 0 0 0 0.0230625 0 0 0 0 0.156236 0 0 0 0 0.3375 0 0 0 0.1 0"/>
<feBlend mode="normal" in2="BackgroundImageFix" result="effect1_dropShadow_8022_318105"/>
<feBlend mode="normal" in="SourceGraphic" in2="effect1_dropShadow_8022_318105" result="shape"/>
</filter>
<filter id="filter1_d_8022_318105" x="67.4222" y="22.3838" width="83.2009" height="60.1807" filterUnits="userSpaceOnUse" color-interpolation-filters="sRGB">
<feFlood flood-opacity="0" result="BackgroundImageFix"/>
<feColorMatrix in="SourceAlpha" type="matrix" values="0 0 0 0 0 0 0 0 0 0 0 0 0 0 0 0 0 0 127 0" result="hardAlpha"/>
<feOffset dy="1"/>
<feGaussianBlur stdDeviation="5"/>
<feComposite in2="hardAlpha" operator="out"/>
<feColorMatrix type="matrix" values="0 0 0 0 0.0230625 0 0 0 0 0.156236 0 0 0 0 0.3375 0 0 0 0.1 0"/>
<feBlend mode="normal" in2="BackgroundImageFix" result="effect1_dropShadow_8022_318105"/>
<feBlend mode="normal" in="SourceGraphic" in2="effect1_dropShadow_8022_318105" result="shape"/>
</filter>
<linearGradient id="paint0_linear_8022_318105" x1="194.951" y1="37.3535" x2="194.951" y2="59.1034" gradientUnits="userSpaceOnUse">
<stop stop-color="#F3AF00"/>
<stop offset="1" stop-color="#E0A203"/>
</linearGradient>
<linearGradient id="paint1_linear_8022_318105" x1="127.96" y1="62.6323" x2="82.4616" y2="36.3283" gradientUnits="userSpaceOnUse">
<stop stop-color="#00B746"/>
<stop offset="1" stop-color="#03A03F"/>
</linearGradient>
</defs>
</svg>
