<svg width="154" height="94" viewBox="0 0 154 94" fill="none" xmlns="http://www.w3.org/2000/svg">
<g filter="url(#filter0_d_2368_4181)">
<path d="M134.281 44.6173C141.516 38.1066 141.085 29.9562 127.523 21.2022C148.177 32.1484 146.634 39.7643 134.281 44.6173C115.087 61.892 41.9309 67.6226 16.9348 42.4528C26.9885 52.5768 106.999 55.3355 134.281 44.6173Z" fill="url(#paint0_linear_2368_4181)"/>
</g>
<g opacity="0.8" filter="url(#filter1_d_2368_4181)">
<path d="M26.5226 58.0149C0.123627 47.3581 -0.665548 -7.44545 77.6613 24.8296C26.5226 11.8173 -5.4154 41.1859 26.5226 58.0149Z" fill="url(#paint1_linear_2368_4181)"/>
</g>
<path d="M18.9336 40.4421L23.8219 28.3983H25.9193L30.7568 40.4421H28.8286L27.4585 36.915H22.1643L20.7773 40.4421H18.9336ZM22.7393 35.4181H26.8834L24.8198 30.1189L22.7393 35.4181Z" fill="#354256"/>
<path d="M31.7746 40.4421V31.6846H33.466V32.5276C34.1088 31.8509 34.915 31.5125 35.8848 31.5125C36.4712 31.5125 36.9899 31.6444 37.4409 31.9082C37.9033 32.1721 38.2697 32.5276 38.5404 32.975C38.9012 32.4932 39.3241 32.1319 39.809 31.891C40.2938 31.6387 40.8407 31.5125 41.4497 31.5125C42.0924 31.5125 42.6506 31.6559 43.1242 31.9427C43.6091 32.2294 43.9868 32.6309 44.2575 33.147C44.5394 33.6632 44.6803 34.2596 44.6803 34.9364V40.4421H42.9889V35.2289C42.9889 34.5407 42.8085 34.0016 42.4476 33.6116C42.098 33.2101 41.6188 33.0094 41.0099 33.0094C40.5927 33.0094 40.2149 33.1069 39.8766 33.3019C39.5383 33.4969 39.2451 33.7951 38.9971 34.1966C39.0196 34.3113 39.0365 34.4317 39.0478 34.5579C39.0591 34.684 39.0647 34.8102 39.0647 34.9364V40.4421H37.3902V35.2289C37.3902 34.5407 37.2098 34.0016 36.8489 33.6116C36.4994 33.2101 36.0201 33.0094 35.4112 33.0094C35.0052 33.0094 34.6388 33.1011 34.3118 33.2847C33.9847 33.4567 33.7028 33.7205 33.466 34.0761V40.4421H31.7746Z" fill="#354256"/>
<path d="M49.3475 40.597C48.7273 40.597 48.1804 40.488 47.7068 40.2701C47.2332 40.0406 46.8611 39.7252 46.5905 39.3238C46.3198 38.9223 46.1845 38.4578 46.1845 37.9301C46.1845 37.1043 46.4946 36.4562 47.1148 35.9859C47.735 35.5042 48.5864 35.2633 49.6689 35.2633C50.5146 35.2633 51.2983 35.4296 52.02 35.7622V34.8332C52.02 34.2023 51.8396 33.732 51.4787 33.4223C51.1292 33.1126 50.6105 32.9578 49.9226 32.9578C49.5279 32.9578 49.1164 33.0209 48.6879 33.147C48.2594 33.2617 47.7801 33.4453 47.2501 33.6976L46.6243 32.4072C47.2783 32.0975 47.8872 31.8738 48.4511 31.7362C49.0149 31.5871 49.5843 31.5125 50.1594 31.5125C51.2758 31.5125 52.1384 31.7821 52.7473 32.3212C53.3675 32.8603 53.6776 33.6288 53.6776 34.6267V40.4421H52.02V39.6851C51.6366 39.9948 51.225 40.2242 50.7853 40.3733C50.3455 40.5224 49.8662 40.597 49.3475 40.597ZM47.8083 37.8957C47.8083 38.3201 47.9831 38.6642 48.3327 38.928C48.6935 39.1804 49.1615 39.3066 49.7366 39.3066C50.1876 39.3066 50.5992 39.2435 50.9713 39.1173C51.3547 38.9796 51.7043 38.7674 52.02 38.4807V37.001C51.693 36.806 51.3491 36.6684 50.9882 36.5881C50.6387 36.4963 50.244 36.4505 49.8042 36.4505C49.184 36.4505 48.6935 36.5824 48.3327 36.8462C47.9831 37.0985 47.8083 37.4484 47.8083 37.8957Z" fill="#354256"/>
<path d="M55.1192 40.4421V39.1689L59.9567 33.1642H55.1699V31.6846H62.071V32.9406L57.2335 38.9624H62.1556V40.4421H55.1192Z" fill="#354256"/>
<path d="M67.533 40.6142C66.6985 40.6142 65.9374 40.4134 65.2495 40.012C64.5729 39.6105 64.0373 39.0657 63.6426 38.3775C63.248 37.6892 63.0506 36.9207 63.0506 36.0719C63.0506 35.2231 63.248 34.4546 63.6426 33.7664C64.0373 33.0782 64.5729 32.5334 65.2495 32.1319C65.9374 31.719 66.6985 31.5125 67.533 31.5125C68.3787 31.5125 69.1398 31.719 69.8164 32.1319C70.493 32.5334 71.0286 33.0782 71.4233 33.7664C71.818 34.4546 72.0153 35.2231 72.0153 36.0719C72.0153 36.9207 71.818 37.6892 71.4233 38.3775C71.0286 39.0657 70.493 39.6105 69.8164 40.012C69.1398 40.4134 68.3787 40.6142 67.533 40.6142ZM67.533 39.1001C68.0629 39.1001 68.5422 38.9682 68.9707 38.7044C69.3992 38.4291 69.7375 38.062 69.9855 37.6032C70.2336 37.1444 70.3577 36.6282 70.3577 36.0547C70.3577 35.4927 70.228 34.988 69.9686 34.5407C69.7206 34.0819 69.3823 33.7148 68.9538 33.4395C68.5365 33.1642 68.0629 33.0266 67.533 33.0266C67.003 33.0266 66.5237 33.1642 66.0952 33.4395C65.678 33.7148 65.3397 34.0819 65.0804 34.5407C64.8323 34.988 64.7082 35.4927 64.7082 36.0547C64.7082 36.6282 64.8323 37.1444 65.0804 37.6032C65.3284 38.062 65.6667 38.4291 66.0952 38.7044C66.5237 38.9682 67.003 39.1001 67.533 39.1001Z" fill="#354256"/>
<path d="M73.6148 40.4421V31.6846H75.3062V32.5793C75.9715 31.8681 76.8341 31.5125 77.8941 31.5125C78.5594 31.5125 79.1402 31.6559 79.6363 31.9427C80.1437 32.2294 80.5384 32.6309 80.8203 33.147C81.1135 33.6632 81.2601 34.2596 81.2601 34.9364V40.4421H79.5686V35.2289C79.5686 34.5407 79.3769 34.0016 78.9936 33.6116C78.6214 33.2101 78.0971 33.0094 77.4205 33.0094C76.9695 33.0094 76.5635 33.1069 76.2027 33.3019C75.8418 33.4969 75.543 33.7779 75.3062 34.1449V40.4421H73.6148Z" fill="#354256"/>
<path d="M86.1718 40.6142C85.4275 40.6142 84.7284 40.5052 84.0744 40.2873C83.4316 40.0579 82.8734 39.7367 82.3998 39.3238L83.3301 38.1882C83.7699 38.5438 84.221 38.8191 84.6833 39.0141C85.1569 39.1976 85.6361 39.2893 86.121 39.2893C86.7299 39.2893 87.2261 39.1689 87.6095 38.928C87.9929 38.6872 88.1846 38.3717 88.1846 37.9817C88.1846 37.6606 88.0718 37.4082 87.8463 37.2247C87.6208 37.0412 87.2712 36.915 86.7976 36.8462L85.2415 36.6225C84.3845 36.4963 83.7417 36.2268 83.3132 35.8139C82.8847 35.4009 82.6705 34.8504 82.6705 34.1621C82.6705 33.6345 82.8114 33.1757 83.0933 32.7857C83.3752 32.3843 83.7699 32.0746 84.2774 31.8566C84.7848 31.6272 85.3768 31.5125 86.0534 31.5125C86.6736 31.5125 87.2712 31.6043 87.8463 31.7878C88.4214 31.9713 88.9739 32.2581 89.5039 32.6481L88.6413 33.7836C88.1677 33.4625 87.7053 33.2273 87.2543 33.0782C86.8145 32.9291 86.3691 32.8545 85.918 32.8545C85.3993 32.8545 84.9821 32.9692 84.6664 33.1986C84.3506 33.4166 84.1928 33.7033 84.1928 34.0589C84.1928 34.3801 84.2999 34.6324 84.5142 34.8159C84.7397 34.988 85.1062 35.1084 85.6136 35.1773L87.1697 35.4009C88.0267 35.5271 88.6751 35.7967 89.1149 36.2096C89.5547 36.611 89.7745 37.1559 89.7745 37.8441C89.7745 38.3717 89.6167 38.8477 89.3009 39.2721C88.9852 39.6851 88.5567 40.012 88.0154 40.2528C87.4742 40.4937 86.8596 40.6142 86.1718 40.6142Z" fill="#354256"/>
<path d="M95.284 40.597C94.4383 40.597 93.6715 40.3962 92.9837 39.9948C92.3071 39.5933 91.7658 39.0485 91.3599 38.3603C90.9652 37.672 90.7679 36.9035 90.7679 36.0547C90.7679 35.2174 90.9596 34.4604 91.343 33.7836C91.7264 33.0954 92.2451 32.5506 92.8991 32.1491C93.5531 31.7362 94.2804 31.5297 95.0811 31.5297C95.8817 31.5297 96.5921 31.7362 97.2123 32.1491C97.8325 32.5506 98.323 33.1011 98.6838 33.8008C99.056 34.489 99.242 35.269 99.242 36.1408V36.6225H92.4593C92.5495 37.1043 92.7243 37.5344 92.9837 37.9129C93.2543 38.2914 93.5926 38.5897 93.9985 38.8076C94.4158 39.0255 94.8668 39.1345 95.3517 39.1345C95.7689 39.1345 96.1692 39.0714 96.5526 38.9452C96.9473 38.8076 97.2743 38.6126 97.5337 38.3603L98.6162 39.4442C98.1088 39.8342 97.5844 40.1267 97.0431 40.3217C96.5132 40.5052 95.9268 40.597 95.284 40.597ZM92.4762 35.3321H97.5675C97.4998 34.8733 97.342 34.4718 97.0939 34.1277C96.8571 33.7722 96.5583 33.4969 96.1974 33.3019C95.8479 33.0954 95.4645 32.9922 95.0472 32.9922C94.6187 32.9922 94.2241 33.0897 93.8632 33.2847C93.5024 33.4797 93.1979 33.755 92.9498 34.1105C92.713 34.4546 92.5552 34.8618 92.4762 35.3321Z" fill="#354256"/>
<path d="M100.853 40.4421V31.6846H102.544V32.8029C102.815 32.39 103.148 32.0688 103.542 31.8394C103.948 31.5985 104.405 31.4781 104.912 31.4781C105.262 31.4896 105.55 31.5412 105.775 31.633V33.1814C105.617 33.1126 105.454 33.0667 105.285 33.0438C105.115 33.0094 104.946 32.9922 104.777 32.9922C104.281 32.9922 103.841 33.1298 103.458 33.4051C103.074 33.6689 102.77 34.0589 102.544 34.5751V40.4421H100.853Z" fill="#354256"/>
<path d="M110.152 40.4421L106.43 31.6846H108.291L110.98 38.2398L113.67 31.6846H115.463L111.775 40.4421H110.152Z" fill="#354256"/>
<path d="M116.512 40.4421V31.6846H118.204V40.4421H116.512ZM117.358 30.2737C117.076 30.2737 116.833 30.1705 116.63 29.964C116.428 29.7461 116.326 29.4938 116.326 29.207C116.326 28.9088 116.428 28.6622 116.63 28.4672C116.833 28.2607 117.076 28.1575 117.358 28.1575C117.651 28.1575 117.899 28.2607 118.102 28.4672C118.305 28.6622 118.407 28.9088 118.407 29.207C118.407 29.4938 118.305 29.7461 118.102 29.964C117.899 30.1705 117.651 30.2737 117.358 30.2737Z" fill="#354256"/>
<path d="M124.238 40.597C123.415 40.597 122.665 40.3962 121.989 39.9948C121.312 39.5933 120.776 39.0485 120.382 38.3603C119.998 37.672 119.807 36.9035 119.807 36.0547C119.807 35.2059 120.004 34.4432 120.399 33.7664C120.793 33.0782 121.323 32.5334 121.989 32.1319C122.665 31.719 123.415 31.5125 124.238 31.5125C124.892 31.5125 125.518 31.6387 126.116 31.891C126.725 32.1434 127.249 32.499 127.689 32.9578L126.64 34.1449C126.313 33.7779 125.947 33.5026 125.541 33.3191C125.135 33.1356 124.712 33.0438 124.272 33.0438C123.753 33.0438 123.28 33.1757 122.851 33.4395C122.434 33.7033 122.101 34.0646 121.853 34.5235C121.605 34.9823 121.481 35.4927 121.481 36.0547C121.481 36.6168 121.605 37.1272 121.853 37.586C122.101 38.0448 122.44 38.4119 122.868 38.6872C123.297 38.951 123.776 39.0829 124.306 39.0829C124.746 39.0829 125.157 38.9969 125.541 38.8248C125.924 38.6413 126.285 38.3775 126.623 38.0334L127.655 39.1345C127.204 39.6048 126.679 39.9661 126.082 40.2184C125.495 40.4708 124.881 40.597 124.238 40.597Z" fill="#354256"/>
<path d="M132.896 40.597C132.05 40.597 131.283 40.3962 130.595 39.9948C129.919 39.5933 129.377 39.0485 128.971 38.3603C128.577 37.672 128.379 36.9035 128.379 36.0547C128.379 35.2174 128.571 34.4604 128.955 33.7836C129.338 33.0954 129.857 32.5506 130.511 32.1491C131.165 31.7362 131.892 31.5297 132.693 31.5297C133.493 31.5297 134.204 31.7362 134.824 32.1491C135.444 32.5506 135.935 33.1011 136.295 33.8008C136.668 34.489 136.854 35.269 136.854 36.1408V36.6225H130.071C130.161 37.1043 130.336 37.5344 130.595 37.9129C130.866 38.2914 131.204 38.5897 131.61 38.8076C132.027 39.0255 132.478 39.1345 132.963 39.1345C133.38 39.1345 133.781 39.0714 134.164 38.9452C134.559 38.8076 134.886 38.6126 135.145 38.3603L136.228 39.4442C135.72 39.8342 135.196 40.1267 134.655 40.3217C134.125 40.5052 133.538 40.597 132.896 40.597ZM130.088 35.3321H135.179C135.111 34.8733 134.954 34.4718 134.705 34.1277C134.469 33.7722 134.17 33.4969 133.809 33.3019C133.459 33.0954 133.076 32.9922 132.659 32.9922C132.23 32.9922 131.836 33.0897 131.475 33.2847C131.114 33.4797 130.809 33.755 130.561 34.1105C130.325 34.4546 130.167 34.8618 130.088 35.3321Z" fill="#354256"/>
<defs>
<filter id="filter0_d_2368_4181" x="6.93555" y="12.2021" width="146.422" height="58.2776" filterUnits="userSpaceOnUse" color-interpolation-filters="sRGB">
<feFlood flood-opacity="0" result="BackgroundImageFix"/>
<feColorMatrix in="SourceAlpha" type="matrix" values="0 0 0 0 0 0 0 0 0 0 0 0 0 0 0 0 0 0 127 0" result="hardAlpha"/>
<feOffset dy="1"/>
<feGaussianBlur stdDeviation="5"/>
<feComposite in2="hardAlpha" operator="out"/>
<feColorMatrix type="matrix" values="0 0 0 0 0.0230625 0 0 0 0 0.156236 0 0 0 0 0.3375 0 0 0 0.3 0"/>
<feBlend mode="normal" in2="BackgroundImageFix" result="effect1_dropShadow_2368_4181"/>
<feBlend mode="normal" in="SourceGraphic" in2="effect1_dropShadow_2368_4181" result="shape"/>
</filter>
<filter id="filter1_d_2368_4181" x="0.447266" y="5.77344" width="87.2148" height="63.2415" filterUnits="userSpaceOnUse" color-interpolation-filters="sRGB">
<feFlood flood-opacity="0" result="BackgroundImageFix"/>
<feColorMatrix in="SourceAlpha" type="matrix" values="0 0 0 0 0 0 0 0 0 0 0 0 0 0 0 0 0 0 127 0" result="hardAlpha"/>
<feOffset dy="1"/>
<feGaussianBlur stdDeviation="5"/>
<feComposite in2="hardAlpha" operator="out"/>
<feColorMatrix type="matrix" values="0 0 0 0 0 0 0 0 0 0.423529 0 0 0 0 1 0 0 0 0.2 0"/>
<feBlend mode="normal" in2="BackgroundImageFix" result="effect1_dropShadow_2368_4181"/>
<feBlend mode="normal" in="SourceGraphic" in2="effect1_dropShadow_2368_4181" result="shape"/>
</filter>
<linearGradient id="paint0_linear_2368_4181" x1="31.758" y1="12.8775" x2="130.756" y2="62.4954" gradientUnits="userSpaceOnUse">
<stop stop-color="#006CFF"/>
<stop offset="1" stop-color="#0460DE"/>
</linearGradient>
<linearGradient id="paint1_linear_2368_4181" x1="64.1939" y1="48.4022" x2="15.521" y2="20.5947" gradientUnits="userSpaceOnUse">
<stop stop-color="#00B746"/>
<stop offset="1" stop-color="#03A03F"/>
</linearGradient>
</defs>
</svg>
