<svg width="136" height="136" viewBox="0 0 136 136" fill="none" xmlns="http://www.w3.org/2000/svg">
<circle cx="68" cy="68" r="68" fill="#E0E0E0"/>
<g clip-path="url(#clip0_9349_363457)">
<path d="M67.3359 35.8359H36.6693C34.5609 35.8359 32.8551 37.5609 32.8551 39.6693L32.8359 74.1693L40.5026 66.5026H67.3359C69.4443 66.5026 71.1693 64.7776 71.1693 62.6693V39.6693C71.1693 37.5609 69.4443 35.8359 67.3359 35.8359ZM40.5026 49.2526H63.5026V53.0859H40.5026V49.2526ZM55.8359 58.8359H40.5026V55.0026H55.8359V58.8359ZM63.5026 47.3359H40.5026V43.5026H63.5026V47.3359Z" fill="#C4C4C4"/>
</g>
<g clip-path="url(#clip1_9349_363457)">
<path d="M105 67H73C70.8 67 69 68.8 69 71V107L77 99H105C107.2 99 109 97.2 109 95V71C109 68.8 107.2 67 105 67ZM105 95H77L73 99V71H105V95Z" fill="#C4C4C4"/>
</g>
<defs>
<clipPath id="clip0_9349_363457">
<rect width="46" height="46" fill="white" transform="translate(29 32)"/>
</clipPath>
<clipPath id="clip1_9349_363457">
<rect width="48" height="48" fill="white" transform="translate(65 63)"/>
</clipPath>
</defs>
</svg>
