<svg width="100" height="93" viewBox="0 0 100 93" fill="none" xmlns="http://www.w3.org/2000/svg">
<g clip-path="url(#clip0_41_203605)">
<path d="M42.7749 4.27344H8.60346C6.25417 4.27344 4.35339 6.19558 4.35339 8.54487L4.33203 46.9877L12.8749 38.4449H42.7749C45.1242 38.4449 47.0463 36.5227 47.0463 34.1734V8.54487C47.0463 6.19558 45.1242 4.27344 42.7749 4.27344ZM12.8749 19.2234H38.5035V23.4949H12.8749V19.2234ZM29.9606 29.902H12.8749V25.6306H29.9606V29.902ZM38.5035 17.0877H12.8749V12.8163H38.5035V17.0877Z" fill="url(#paint0_linear_41_203605)"/>
</g>
<path d="M90.9612 42.6016H55.0374C52.5676 42.6016 50.5469 44.6223 50.5469 47.092V87.5063L59.5278 78.5254H90.9612C93.4309 78.5254 95.4516 76.5047 95.4516 74.0349V47.092C95.4516 44.6223 93.4309 42.6016 90.9612 42.6016ZM90.9612 74.0349H59.5278L55.0374 78.5254V47.092H90.9612V74.0349Z" fill="url(#paint1_linear_41_203605)"/>
<defs>
<linearGradient id="paint0_linear_41_203605" x1="25.6892" y1="4.27344" x2="25.6892" y2="46.9877" gradientUnits="userSpaceOnUse">
<stop stop-color="#5BA0FE"/>
<stop offset="0.0001" stop-color="#0164F4"/>
<stop offset="1" stop-color="#0164F4"/>
</linearGradient>
<linearGradient id="paint1_linear_41_203605" x1="72.9993" y1="42.6016" x2="72.9993" y2="87.5063" gradientUnits="userSpaceOnUse">
<stop stop-color="#5BA0FE"/>
<stop offset="0.0001" stop-color="#0164F4"/>
<stop offset="1" stop-color="#0164F4"/>
</linearGradient>
<clipPath id="clip0_41_203605">
<rect width="51.2571" height="51.2571" fill="white" transform="translate(0.0546875)"/>
</clipPath>
</defs>
</svg>
