<svg width="29" height="28" viewBox="0 0 29 28" fill="none" xmlns="http://www.w3.org/2000/svg">
<path d="M20.6558 4.85249L5.46784 0.299362C4.64206 0.0518064 3.77219 0.525561 3.54259 1.3479L0.0557214 13.8368C-0.169623 14.6439 0.308794 15.479 1.12487 15.703L16.8177 20.0099L20.6558 4.85249ZM6.64002 5.15111L15.0722 7.87607L13.8518 11.5648L5.4196 8.83987L6.64002 5.15111ZM28.9697 2.28564C28.8649 2.67318 28.5128 2.92201 28.1922 2.83568C27.1426 2.55752 26.0915 2.27976 25.0434 2.00121C24.5897 1.88101 24.6069 1.79789 24.482 2.25204C22.5077 9.53897 20.53 16.8252 18.5565 24.1151C18.2887 25.0973 18.4135 25.036 17.4189 24.7731L7.70014 22.1973C7.08261 22.0356 6.69093 21.4701 6.83398 20.9482C6.97663 20.425 7.59717 20.1286 8.21698 20.2928C10.8459 20.9916 13.4736 21.686 16.1036 22.3829C16.9958 22.6195 16.8804 22.669 17.1201 21.7884L22.6525 1.37133C22.7307 1.09135 22.8031 0.812943 22.8788 0.535215C23.0488 -0.0864478 22.9587 -0.0672789 23.589 0.100416L28.5714 1.42015C28.8968 1.50677 29.0751 1.89476 28.9697 2.28564ZM23.1753 20.5222C21.1231 21.0658 19.9048 23.1499 20.4551 25.1802C21.005 27.209 23.1145 28.4131 25.1667 27.8695C27.2189 27.3258 28.4364 25.2389 27.8869 23.2115C27.3374 21.1841 25.2275 19.9786 23.1753 20.5222ZM24.6593 25.9975C23.6525 26.2642 22.6199 25.6736 22.3501 24.6782C22.0807 23.6843 22.6763 22.6624 23.6831 22.3957C24.6884 22.1294 25.7225 22.7196 25.9919 23.7135C26.2617 24.7089 25.6646 25.7312 24.6593 25.9975ZM8.56333 6.85856L12.5035 8.13231L11.9329 9.8562L7.99277 8.58246L8.56333 6.85856Z" fill="#656565"/>
</svg>
