<svg width="53" height="53" viewBox="0 0 53 53" fill="none" xmlns="http://www.w3.org/2000/svg">
<path d="M16.0414 40.9221C-1.23198 28.036 33.284 7.59237 47.6511 24.2569C39.3903 18.1922 11.519 24.2569 16.0414 40.9221Z" fill="url(#paint0_linear_16510_294049)"/>
<path d="M16.0043 40.8218C0.293873 34.1861 -4.73364 -1.96429 41.9009 18.1961C21.3787 12.6388 -3.12764 29.9629 16.0043 40.8218Z" fill="url(#paint1_linear_16510_294049)"/>
<path d="M48.0594 25.7655C33.2707 18.4279 16.0409 28.4936 16.0409 40.9131C26.0619 28.1422 35.3663 27.1369 47.7501 25.7989L48.0594 25.7655Z" fill="url(#paint2_linear_16510_294049)"/>
<path d="M22.0027 40.7566L27.7979 26.6074H30.2844L36.0194 40.7566H33.7334L32.1092 36.6129H25.8328L24.1885 40.7566H22.0027ZM26.5145 34.8543H31.4274L28.981 28.6287L26.5145 34.8543Z" fill="#001029"/>
<path d="M42.5128 40.9587C41.3899 40.9587 40.3071 40.7363 39.2643 40.2917C38.2216 39.847 37.2992 39.2204 36.4971 38.4118L37.7804 36.9161C38.5424 37.6707 39.3178 38.2299 40.1065 38.5938C40.9086 38.9576 41.7441 39.1395 42.6131 39.1395C43.2949 39.1395 43.8898 39.0452 44.3978 38.8565C44.9191 38.6544 45.3202 38.3714 45.6009 38.0076C45.8816 37.6437 46.022 37.2327 46.022 36.7746C46.022 36.1412 45.8014 35.6561 45.3603 35.3192C44.9191 34.9823 44.1906 34.7263 43.1746 34.5511L40.8284 34.1671C39.5451 33.938 38.5825 33.5203 37.9409 32.9139C37.3125 32.3075 36.9984 31.4989 36.9984 30.4883C36.9984 29.6798 37.2123 28.9723 37.6401 28.3659C38.0679 27.746 38.6694 27.2677 39.4448 26.9308C40.2335 26.5939 41.1426 26.4255 42.1719 26.4255C43.1879 26.4255 44.1839 26.5939 45.1598 26.9308C46.149 27.2542 47.038 27.7258 47.8267 28.3457L46.6637 29.9628C45.1531 28.8039 43.6224 28.2244 42.0717 28.2244C41.4567 28.2244 40.922 28.312 40.4675 28.4872C40.0129 28.6624 39.6587 28.9117 39.4047 29.2351C39.1507 29.545 39.0237 29.9089 39.0237 30.3266C39.0237 30.906 39.2175 31.3507 39.6052 31.6607C39.9929 31.9571 40.6346 32.1727 41.5303 32.3075L43.7962 32.6915C45.2801 32.9341 46.3696 33.372 47.0647 34.0054C47.7599 34.6387 48.1075 35.5079 48.1075 36.6129C48.1075 37.4753 47.8735 38.2367 47.4056 38.897C46.9377 39.5438 46.2827 40.0491 45.4405 40.4129C44.5983 40.7768 43.6224 40.9587 42.5128 40.9587Z" fill="#001029"/>
<defs>
<linearGradient id="paint0_linear_16510_294049" x1="26.4998" y1="12.1484" x2="26.4998" y2="40.9587" gradientUnits="userSpaceOnUse">
<stop stop-color="#5BA0FE"/>
<stop offset="0.0001" stop-color="#0164F4"/>
<stop offset="1" stop-color="#0164F4"/>
</linearGradient>
<linearGradient id="paint1_linear_16510_294049" x1="26.4998" y1="12.1484" x2="26.4998" y2="40.9587" gradientUnits="userSpaceOnUse">
<stop stop-color="#00B746"/>
<stop offset="1" stop-color="#03A03F"/>
</linearGradient>
<linearGradient id="paint2_linear_16510_294049" x1="26.4998" y1="12.1484" x2="26.4998" y2="40.9587" gradientUnits="userSpaceOnUse">
<stop stop-color="#F5CF00"/>
<stop offset="1" stop-color="#F5C106"/>
<stop offset="1" stop-color="#F2CC00"/>
</linearGradient>
</defs>
</svg>
