<svg width="26" height="26" viewBox="0 0 26 26" fill="none" xmlns="http://www.w3.org/2000/svg">
<circle cx="13" cy="13" r="13" transform="rotate(-180 13 13)" fill="white"/>
<circle cx="13" cy="13" r="11" transform="rotate(-180 13 13)" fill="#FB1D5B"/>
<path fill-rule="evenodd" clip-rule="evenodd" d="M15.9703 21.6563C14.0166 22.1146 11.9834 22.1146 10.0297 21.6563C7.20841 20.9945 5.00549 18.7916 4.3437 15.9702C3.88543 14.0166 3.88543 11.9834 4.3437 10.0297C5.00549 7.20841 7.20841 5.00549 10.0297 4.3437C11.9834 3.88543 14.0166 3.88543 15.9703 4.3437C18.7916 5.00549 20.9945 7.20841 21.6563 10.0297C22.1146 11.9834 22.1146 14.0166 21.6563 15.9703C20.9945 18.7916 18.7916 20.9945 15.9703 21.6563ZM13 14.9146C12.4713 14.9146 12.0427 15.3432 12.0427 15.8719C12.0427 16.4006 12.4713 16.8292 13 16.8292C13.5287 16.8292 13.9573 16.4006 13.9573 15.8719C13.9573 15.3432 13.5287 14.9146 13 14.9146ZM13 14.1966C12.6035 14.1966 12.2821 13.8752 12.2821 13.4787L12.2821 9.64952C12.2821 9.253 12.6035 8.93156 13 8.93156C13.3965 8.93156 13.718 9.253 13.718 9.64952L13.718 13.4787C13.718 13.8752 13.3965 14.1966 13 14.1966Z" fill="white"/>
</svg>
