<svg width="27" height="28" viewBox="0 0 27 28" fill="none" xmlns="http://www.w3.org/2000/svg">
<path fill-rule="evenodd" clip-rule="evenodd" d="M13.0094 0.0834091C12.9142 0.128294 10.0317 1.9117 6.60383 4.04659C-0.37003 8.38985 0.050528 8.08613 0.00603097 8.81057C-0.0121487 9.10681 0.00833942 9.24008 0.100969 9.42842C0.269204 9.77032 0.567178 10.0187 0.912247 10.1045L1.20705 10.1778V19.0889V28H2.41903H3.63101V19.083V10.1659H13.5H23.369V19.083V28H24.581H25.793V19.0889V10.1778L26.0878 10.1045C26.4328 10.0187 26.7308 9.77032 26.899 9.42842C26.9917 9.24008 27.0121 9.10681 26.994 8.81057C26.9495 8.08613 27.3701 8.38985 20.3962 4.04683C16.9683 1.91212 14.0762 0.126558 13.9691 0.078801C13.729 -0.0282036 13.2413 -0.0258098 13.0094 0.0834091ZM9.80634 15.2827V19.083H13.5H17.1937V15.2827V11.4825H15.9817H14.7697V12.7393V13.996H13.5H12.2303V12.7393V11.4825H11.0183H9.80634V15.2827ZM4.9007 24.1998V28H8.56551H12.2303V24.1998V20.3996H11.0183H9.80634V21.6874V22.9753L8.57993 22.9592L7.35352 22.943L7.33794 21.6713L7.32236 20.3996H6.11153H4.9007V24.1998ZM14.7697 24.1998V28H18.4345H22.0993V24.1998V20.3996H20.8885H19.6776L19.6621 21.6713L19.6465 22.943L18.4201 22.9592L17.1937 22.9753V21.6874V20.3996H15.9817H14.7697V24.1998Z" fill="#656565"/>
</svg>
