<svg width="49" height="21" viewBox="0 0 49 21" fill="none" xmlns="http://www.w3.org/2000/svg">
<path d="M0 21V0H20.9631L0 21Z" fill="#C69109"/>
<path d="M22.082 7.20078V5.77979H23.5425V7.20078H22.082ZM22.082 15.9998V8.43979H23.5425V15.9998H22.082Z" fill="#C69109"/>
<path d="M28.6386 16.2098C27.9351 16.2098 27.3272 16.0348 26.8148 15.6848C26.307 15.3348 25.9134 14.8588 25.6338 14.2568C25.359 13.6501 25.2216 12.9688 25.2216 12.2128C25.2216 11.4521 25.3613 10.7731 25.6408 10.1758C25.9203 9.57379 26.3163 9.10012 26.8287 8.75478C27.3458 8.40478 27.9584 8.22979 28.6665 8.22979C29.3792 8.22979 29.9779 8.40478 30.4623 8.75478C30.9515 9.10012 31.3195 9.57379 31.5664 10.1758C31.818 10.7778 31.9437 11.4568 31.9437 12.2128C31.9437 12.9688 31.818 13.6478 31.5664 14.2498C31.3148 14.8518 30.9445 15.3301 30.4554 15.6848C29.9662 16.0348 29.3606 16.2098 28.6386 16.2098ZM28.8412 14.8868C29.321 14.8868 29.7123 14.7725 30.0151 14.5438C30.3179 14.3151 30.5392 14.0001 30.679 13.5988C30.8187 13.1975 30.8886 12.7355 30.8886 12.2128C30.8886 11.6901 30.8164 11.2281 30.672 10.8268C30.5322 10.4255 30.3133 10.1128 30.0151 9.88879C29.7216 9.66479 29.3466 9.55278 28.8901 9.55278C28.4056 9.55278 28.0073 9.67179 27.6952 9.90979C27.3831 10.1478 27.1502 10.4675 26.9964 10.8688C26.8474 11.2701 26.7728 11.7181 26.7728 12.2128C26.7728 12.7121 26.8474 13.1648 26.9964 13.5708C27.1502 13.9721 27.3784 14.2918 27.6812 14.5298C27.9887 14.7678 28.3754 14.8868 28.8412 14.8868ZM30.8886 15.9998V10.5608H30.7209V5.91979H32.1883V15.9998H30.8886Z" fill="#C69109"/>
<path d="M37.4905 16.2098C36.7405 16.2098 36.0813 16.0465 35.513 15.7198C34.9493 15.3885 34.5091 14.9288 34.1923 14.3408C33.8802 13.7481 33.7242 13.0621 33.7242 12.2828C33.7242 11.4568 33.8779 10.7405 34.1854 10.1338C34.4975 9.52712 34.9307 9.05812 35.4851 8.72679C36.0394 8.39545 36.6846 8.22979 37.4207 8.22979C38.1893 8.22979 38.8438 8.40945 39.3842 8.76879C39.9246 9.12345 40.3275 9.62979 40.5931 10.2878C40.8633 10.9458 40.9704 11.7275 40.9145 12.6328H39.4541V12.1008C39.4448 11.2235 39.2771 10.5748 38.951 10.1548C38.6295 9.73478 38.1381 9.52479 37.4766 9.52479C36.7452 9.52479 36.1955 9.75578 35.8275 10.2178C35.4594 10.6798 35.2754 11.3471 35.2754 12.2198C35.2754 13.0505 35.4594 13.6945 35.8275 14.1518C36.1955 14.6045 36.7265 14.8308 37.4207 14.8308C37.8772 14.8308 38.2708 14.7281 38.6016 14.5228C38.937 14.3128 39.1979 14.0141 39.3842 13.6268L40.8167 14.0818C40.5232 14.7585 40.0783 15.2835 39.482 15.6568C38.8857 16.0255 38.2219 16.2098 37.4905 16.2098ZM34.8003 12.6328V11.4918H40.1878V12.6328H34.8003Z" fill="#C69109"/>
<path d="M44.477 16.2098C43.918 16.2098 43.4498 16.1071 43.0725 15.9018C42.6952 15.6918 42.4087 15.4165 42.213 15.0758C42.022 14.7305 41.9265 14.3525 41.9265 13.9418C41.9265 13.5591 41.9941 13.2231 42.1292 12.9338C42.2642 12.6445 42.4646 12.3995 42.7301 12.1988C42.9956 11.9935 43.3217 11.8278 43.7084 11.7018C44.0438 11.6038 44.4234 11.5175 44.8474 11.4428C45.2713 11.3681 45.7162 11.2981 46.182 11.2328C46.6525 11.1675 47.1184 11.1021 47.5795 11.0368L47.0485 11.3308C47.0578 10.7381 46.932 10.2995 46.6711 10.0148C46.4149 9.72545 45.9724 9.58078 45.3435 9.58078C44.9475 9.58078 44.5842 9.67412 44.2534 9.86079C43.9227 10.0428 43.6921 10.3461 43.5616 10.7708L42.199 10.3508C42.3854 9.70212 42.7394 9.18645 43.2612 8.80379C43.7876 8.42112 44.4863 8.22979 45.3575 8.22979C46.0329 8.22979 46.6199 8.34645 47.1184 8.57978C47.6215 8.80845 47.9895 9.17245 48.2224 9.67179C48.3435 9.91912 48.4181 10.1805 48.446 10.4558C48.474 10.7311 48.4879 11.0275 48.4879 11.3448V15.9998H47.1952V14.2708L47.4468 14.4948C47.1347 15.0735 46.7364 15.5051 46.2519 15.7898C45.7721 16.0698 45.1804 16.2098 44.477 16.2098ZM44.7356 15.0128C45.1502 15.0128 45.5065 14.9405 45.8047 14.7958C46.1028 14.6465 46.3427 14.4575 46.5244 14.2288C46.7061 14.0001 46.8249 13.7621 46.8808 13.5148C46.96 13.2908 47.0042 13.0388 47.0135 12.7588C47.0275 12.4788 47.0345 12.2548 47.0345 12.0868L47.5097 12.2618C47.0485 12.3318 46.6292 12.3948 46.2519 12.4508C45.8746 12.5068 45.5322 12.5628 45.2247 12.6188C44.9219 12.6701 44.6517 12.7331 44.4141 12.8078C44.2138 12.8778 44.0345 12.9618 43.8761 13.0598C43.7223 13.1578 43.5989 13.2768 43.5057 13.4168C43.4172 13.5568 43.373 13.7271 43.373 13.9278C43.373 14.1238 43.4219 14.3058 43.5197 14.4738C43.6175 14.6371 43.7666 14.7678 43.9669 14.8658C44.1672 14.9638 44.4234 15.0128 44.7356 15.0128Z" fill="#C69109"/>
</svg>
