<svg width="19" height="20" viewBox="0 0 19 20" fill="none" xmlns="http://www.w3.org/2000/svg">
<path fillRule="evenodd" clipRule="evenodd" d="M18.0982 13.6985V16.3985C18.0982 17.8898 17.0895 19.0985 15.5982 19.0985C14.1069 19.0985 2.79816 19.0985 2.79816 19.0985C1.30686 19.0985 0.0981557 17.8898 0.0981557 16.3985V13.6985C0.0981557 12.2072 1.30686 10.9985 2.79816 10.9985H15.5982C17.0895 10.9985 18.0982 12.2072 18.0982 13.6985Z" fill="#C4C4C4"/>
<path fillRule="evenodd" clipRule="evenodd" d="M18.0982 13.6985V16.3985C18.0982 17.8898 17.0895 19.0985 15.5982 19.0985C14.1069 19.0985 2.79816 19.0985 2.79816 19.0985C1.30686 19.0985 0.0981557 17.8898 0.0981557 16.3985V13.6985C0.0981557 12.2072 1.30686 10.9985 2.79816 10.9985H15.5982C17.0895 10.9985 18.0982 12.2072 18.0982 13.6985Z" fill="#C4C4C4"/>
<path fillRule="evenodd" clipRule="evenodd" d="M18.0977 3.59854V6.29854C18.0977 7.78984 17.089 8.99854 15.5977 8.99854C14.1064 8.99854 2.79766 8.99854 2.79766 8.99854C1.30636 8.99854 0.0976562 7.78984 0.0976562 6.29854V3.59854C0.0976562 2.10724 1.30636 0.898537 2.79766 0.898537H15.5977C17.089 0.898537 18.0977 2.10724 18.0977 3.59854Z" fill="#C4C4C4"/>
<path fillRule="evenodd" clipRule="evenodd" d="M18.0977 3.59854V6.29854C18.0977 7.78984 17.089 8.99854 15.5977 8.99854C14.1064 8.99854 2.79766 8.99854 2.79766 8.99854C1.30636 8.99854 0.0976562 7.78984 0.0976562 6.29854V3.59854C0.0976562 2.10724 1.30636 0.898537 2.79766 0.898537H15.5977C17.089 0.898537 18.0977 2.10724 18.0977 3.59854Z" fill="#C4C4C4"/>
</svg>
