<svg width="24" height="24" viewBox="0 0 24 24" fill="none" xmlns="http://www.w3.org/2000/svg">
<path d="M19.6805 15.5372L14.0989 6.16597C13.8732 5.80852 13.5622 5.51435 13.1947 5.31058C12.8271 5.10681 12.4148 5 11.9958 5C11.5767 5 11.1644 5.10681 10.7969 5.31058C10.4293 5.51435 10.1183 5.80852 9.89265 6.16597L4.31103 15.5372C4.11386 15.87 4.00669 16.2494 4.0003 16.6374C3.99392 17.0254 4.08853 17.4082 4.27465 17.7474C4.48982 18.1292 4.80127 18.4464 5.17717 18.6664C5.55306 18.8865 5.97993 19.0015 6.41414 18.9999H17.5774C18.0087 19.0045 18.4337 18.8939 18.8093 18.6792C19.185 18.4645 19.498 18.1532 19.7169 17.7769C19.9085 17.4341 20.0061 17.0458 19.9997 16.652C19.9933 16.2583 19.8831 15.8734 19.6805 15.5372ZM11.9958 16.0529C11.8518 16.0529 11.7111 16.0097 11.5915 15.9288C11.4718 15.8478 11.3785 15.7327 11.3234 15.5981C11.2684 15.4635 11.2539 15.3154 11.282 15.1725C11.3101 15.0296 11.3794 14.8983 11.4812 14.7952C11.583 14.6922 11.7126 14.622 11.8538 14.5936C11.995 14.5652 12.1413 14.5798 12.2743 14.6355C12.4072 14.6913 12.5209 14.7857 12.6008 14.9069C12.6808 15.028 12.7235 15.1705 12.7235 15.3162C12.7235 15.5116 12.6468 15.699 12.5103 15.8371C12.3739 15.9753 12.1888 16.0529 11.9958 16.0529ZM12.7235 13.106C12.7235 13.3014 12.6468 13.4888 12.5103 13.6269C12.3739 13.7651 12.1888 13.8427 11.9958 13.8427C11.8028 13.8427 11.6177 13.7651 11.4812 13.6269C11.3447 13.4888 11.268 13.3014 11.268 13.106V10.1591C11.268 9.96367 11.3447 9.77628 11.4812 9.63811C11.6177 9.49995 11.8028 9.42233 11.9958 9.42233C12.1888 9.42233 12.3739 9.49995 12.5103 9.63811C12.6468 9.77628 12.7235 9.96367 12.7235 10.1591V13.106Z" fill="url(#paint0_linear_3708_84701)"/>
<defs>
<linearGradient id="paint0_linear_3708_84701" x1="12" y1="5" x2="12" y2="19" gradientUnits="userSpaceOnUse">
<stop stop-color="#FF1616"/>
<stop offset="1" stop-color="#DF0C0C"/>
</linearGradient>
</defs>
</svg>
