<svg width="24" height="24" viewBox="0 0 24 24" fill="none" xmlns="http://www.w3.org/2000/svg">
<path d="M16.6666 10.8751V7.50004C16.6666 5.01935 14.5738 3 12 3C9.42687 3 7.33335 5.01935 7.33335 7.50004V10.8751C6.04465 10.8751 4.99997 11.8826 4.99997 13.1249V18.7499C4.99997 19.9927 6.04465 21 7.33335 21H16.6666C17.955 21 19 19.9927 19 18.7499V13.1249C19 11.8825 17.955 10.8751 16.6666 10.8751ZM12.5833 16.3274V18.1874C12.5833 18.4984 12.3225 18.7499 12 18.7499C11.6775 18.7499 11.4166 18.4984 11.4166 18.1874V16.3274C11.0742 16.132 10.8334 15.7869 10.8334 15.375C10.8334 14.7531 11.3558 14.25 12 14.25C12.6442 14.25 13.1666 14.7531 13.1666 15.375C13.1667 15.7869 12.9255 16.132 12.5833 16.3274ZM14.3332 10.8751H9.66666V7.50004C9.66666 6.25858 10.7131 5.24998 12 5.24998C13.2862 5.24998 14.3332 6.25858 14.3332 7.50004V10.8751H14.3332Z" fill="url(#paint0_linear_3708_84656)"/>
<defs>
<linearGradient id="paint0_linear_3708_84656" x1="12" y1="3" x2="12" y2="21" gradientUnits="userSpaceOnUse">
<stop stop-color="#FF1616"/>
<stop offset="1" stop-color="#DF0C0C"/>
</linearGradient>
</defs>
</svg>
