<svg width="16" height="16" viewBox="0 0 16 16" fill="none" xmlns="http://www.w3.org/2000/svg">
<path fill-rule="evenodd" clip-rule="evenodd" d="M1 0C0.447715 0 0 0.447715 0 1V9C0 9.55229 0.447715 10 1 10H2V3C2 2.44772 2.44772 2 3 2H10V1C10 0.447715 9.55228 0 9 0H1Z" fill="url(#paint0_linear_3708_84689)"/>
<path fill-rule="evenodd" clip-rule="evenodd" d="M4 3C3.44772 3 3 3.44772 3 4V12C3 12.5523 3.44772 13 4 13H5V6C5 5.44772 5.44772 5 6 5H13V4C13 3.44772 12.5523 3 12 3H4Z" fill="url(#paint1_linear_3708_84689)"/>
<rect x="6" y="6" width="10" height="10" rx="1" fill="url(#paint2_linear_3708_84689)"/>
<defs>
<linearGradient id="paint0_linear_3708_84689" x1="5" y1="0" x2="5" y2="10" gradientUnits="userSpaceOnUse">
<stop stop-color="#FF1616"/>
<stop offset="1" stop-color="#DF0C0C"/>
</linearGradient>
<linearGradient id="paint1_linear_3708_84689" x1="8" y1="3" x2="8" y2="13" gradientUnits="userSpaceOnUse">
<stop stop-color="#FF1616"/>
<stop offset="1" stop-color="#DF0C0C"/>
</linearGradient>
<linearGradient id="paint2_linear_3708_84689" x1="11" y1="6" x2="11" y2="16" gradientUnits="userSpaceOnUse">
<stop stop-color="#FF1616"/>
<stop offset="1" stop-color="#DF0C0C"/>
</linearGradient>
</defs>
</svg>
