<svg width="24" height="24" viewBox="0 0 24 24" fill="none" xmlns="http://www.w3.org/2000/svg">
<path fill-rule="evenodd" clip-rule="evenodd" d="M7.8275 2.04883C7.79064 2.15297 7.43038 4.78652 7.32119 5.75C7.06318 8.02664 6.94085 10.3671 7.03737 11.1799C7.13589 12.0098 7.36581 12.6525 7.76047 13.2013C8.18729 13.7948 8.59886 14.1264 9.76042 14.8125C10.4285 15.2071 10.833 15.5555 11.0077 15.8867L11.1314 16.1211L11.1435 18.0046C11.1575 20.1727 11.1738 20.0729 10.7633 20.3327C10.4662 20.5207 10.1221 20.6241 9.05343 20.8462C8.56492 20.9477 8.01945 21.0825 7.84127 21.1456C7.35008 21.3196 7 21.6421 7 21.9206C7 22 7.00191 22 12 22C16.9981 22 17 22 17 21.9206C17 21.6421 16.6499 21.3196 16.1587 21.1456C15.9806 21.0825 15.4351 20.9477 14.9466 20.8462C13.8779 20.6241 13.5338 20.5207 13.2367 20.3327C12.8262 20.0729 12.8425 20.1727 12.8565 18.0046L12.8686 16.1211L12.9923 15.8867C13.167 15.5555 13.5715 15.2071 14.2396 14.8125C15.4011 14.1264 15.8127 13.7948 16.2395 13.2013C16.6342 12.6525 16.8641 12.0098 16.9626 11.1799C17.0591 10.3673 16.9371 8.0323 16.6789 5.75C16.6194 5.22363 16.2743 2.65531 16.2039 2.21484L16.1727 2.01953L14.463 2.00934C12.9833 2.00047 12.7564 2.00672 12.7769 2.05578C12.8016 2.11516 13.7419 4.81426 13.7524 4.85613C13.7581 4.87887 13.5343 5.12859 12.4571 6.30141L12.0033 6.79559L12.9744 7.78613C13.8637 8.69324 13.9409 8.78328 13.8917 8.85516C13.5603 9.33789 11.3428 12.4618 11.3359 12.4555C11.3309 12.4509 11.5646 11.6917 11.8553 10.7684L12.3839 9.08984L11.9271 8.67918C11.6759 8.45332 11.0926 7.92906 10.6309 7.51418C10.0473 6.98988 9.80331 6.74586 9.83051 6.71395C9.8967 6.63613 11.6701 4.64105 11.7371 4.56898C11.8021 4.49902 11.7247 4.30746 10.8683 2.41992L10.6778 2H9.26131C8.16555 2 7.84089 2.01105 7.8275 2.04883Z" fill="url(#paint0_linear_3708_84676)"/>
<defs>
<linearGradient id="paint0_linear_3708_84676" x1="12" y1="2" x2="12" y2="22" gradientUnits="userSpaceOnUse">
<stop stop-color="#FF1616"/>
<stop offset="1" stop-color="#DF0C0C"/>
</linearGradient>
</defs>
</svg>
