<svg width="24" height="24" viewBox="0 0 24 24" fill="none" xmlns="http://www.w3.org/2000/svg">
<path fill-rule="evenodd" clip-rule="evenodd" d="M11.8298 3.36612C11.0593 5.22461 10.0185 7.19697 8.13641 10.3651C6.49721 13.1245 6.12103 13.9839 6.01818 15.2044C5.79967 17.7973 7.56946 20.0906 10.3302 20.7919C13.1957 21.5198 16.2279 20.2864 17.4389 17.9003C17.8879 17.0157 18.0614 16.1432 17.981 15.1753C17.8746 13.8954 17.5733 13.2264 15.6361 9.97053C14.0647 7.32929 13.0029 5.31022 12.2319 3.49739C12.1155 3.22369 12.0116 2.99985 12.0009 3C11.9902 3.00011 11.9132 3.16487 11.8298 3.36612Z" fill="url(#paint0_linear_3708_84682)"/>
<defs>
<linearGradient id="paint0_linear_3708_84682" x1="12" y1="3" x2="12" y2="21" gradientUnits="userSpaceOnUse">
<stop stop-color="#FF1616"/>
<stop offset="1" stop-color="#DF0C0C"/>
</linearGradient>
</defs>
</svg>
