<svg width="20" height="16" viewBox="0 0 20 16" fill="none" xmlns="http://www.w3.org/2000/svg">
<path d="M0 11.7333H4V16H0V11.7333Z" fill="url(#paint0_linear_3708_84664)"/>
<path d="M8 11.7333H12V16H8V11.7333Z" fill="url(#paint1_linear_3708_84664)"/>
<path d="M8 0H12V4.26667H8V0Z" fill="url(#paint2_linear_3708_84664)"/>
<path d="M16 11.7333H20V16H16V11.7333Z" fill="url(#paint3_linear_3708_84664)"/>
<path fill-rule="evenodd" clip-rule="evenodd" d="M2 7.46667H18V8.53333H2V7.46667Z" fill="url(#paint4_linear_3708_84664)"/>
<path fill-rule="evenodd" clip-rule="evenodd" d="M10.5 4.26667V11.7333H9.5V4.26667H10.5Z" fill="url(#paint5_linear_3708_84664)"/>
<path fill-rule="evenodd" clip-rule="evenodd" d="M18.5 7.46667V11.7333H17.5V7.46667H18.5Z" fill="url(#paint6_linear_3708_84664)"/>
<path fill-rule="evenodd" clip-rule="evenodd" d="M2.5 7.46667L2.5 11.7333H1.5L1.5 7.46667H2.5Z" fill="url(#paint7_linear_3708_84664)"/>
<defs>
<linearGradient id="paint0_linear_3708_84664" x1="10" y1="0" x2="10" y2="16" gradientUnits="userSpaceOnUse">
<stop stop-color="#FF1616"/>
<stop offset="1" stop-color="#DF0C0C"/>
</linearGradient>
<linearGradient id="paint1_linear_3708_84664" x1="10" y1="0" x2="10" y2="16" gradientUnits="userSpaceOnUse">
<stop stop-color="#FF1616"/>
<stop offset="1" stop-color="#DF0C0C"/>
</linearGradient>
<linearGradient id="paint2_linear_3708_84664" x1="10" y1="0" x2="10" y2="16" gradientUnits="userSpaceOnUse">
<stop stop-color="#FF1616"/>
<stop offset="1" stop-color="#DF0C0C"/>
</linearGradient>
<linearGradient id="paint3_linear_3708_84664" x1="10" y1="0" x2="10" y2="16" gradientUnits="userSpaceOnUse">
<stop stop-color="#FF1616"/>
<stop offset="1" stop-color="#DF0C0C"/>
</linearGradient>
<linearGradient id="paint4_linear_3708_84664" x1="10" y1="0" x2="10" y2="16" gradientUnits="userSpaceOnUse">
<stop stop-color="#FF1616"/>
<stop offset="1" stop-color="#DF0C0C"/>
</linearGradient>
<linearGradient id="paint5_linear_3708_84664" x1="10" y1="0" x2="10" y2="16" gradientUnits="userSpaceOnUse">
<stop stop-color="#FF1616"/>
<stop offset="1" stop-color="#DF0C0C"/>
</linearGradient>
<linearGradient id="paint6_linear_3708_84664" x1="10" y1="0" x2="10" y2="16" gradientUnits="userSpaceOnUse">
<stop stop-color="#FF1616"/>
<stop offset="1" stop-color="#DF0C0C"/>
</linearGradient>
<linearGradient id="paint7_linear_3708_84664" x1="10" y1="0" x2="10" y2="16" gradientUnits="userSpaceOnUse">
<stop stop-color="#FF1616"/>
<stop offset="1" stop-color="#DF0C0C"/>
</linearGradient>
</defs>
</svg>
