<svg width="14" height="13" viewBox="0 0 14 13" fill="none" xmlns="http://www.w3.org/2000/svg">
<path d="M6.81769 9.70275L9.64023 12.6272C9.83683 12.8309 10.1632 12.8309 10.3598 12.6272L13.1823 9.70275C13.4887 9.3853 13.2637 8.85552 12.8225 8.85552H10.9524V2.5C10.9524 2.22386 10.7285 2 10.4524 2H10H9.54762C9.27148 2 9.04762 2.22386 9.04762 2.5V8.85552H7.17746C6.73627 8.85552 6.51131 9.3853 6.81769 9.70275Z" fill="#007BFF"/>
<path d="M0.817693 3.29725L3.64023 0.372763C3.83683 0.169066 4.16317 0.169066 4.35977 0.372763L7.18231 3.29725C7.48869 3.6147 7.26373 4.14448 6.82254 4.14448H4.95238V10.5C4.95238 10.7761 4.72852 11 4.45238 11H4H3.54762C3.27148 11 3.04762 10.7761 3.04762 10.5V4.14448H1.17746C0.736272 4.14448 0.511307 3.6147 0.817693 3.29725Z" fill="#007BFF"/>
</svg>
