<svg width="85" height="21" viewBox="0 0 85 21" fill="none" xmlns="http://www.w3.org/2000/svg">
<g id="Vector">
<path d="M14.475 2.75625C13.4938 2.02125 12.2673 1.8375 11.7767 1.8375C13.1504 0.4725 15.7833 0.04375 16.928 0H31.401V20.8688C30.8286 20.9125 16.7563 20.9738 13.1258 20.8688C9.49532 20.7638 7.68824 18.4625 7.23852 17.325H10.0595C10.6319 17.4563 11.7767 17.0888 11.7767 14.5688C11.7767 12.0488 9.40537 12.0313 8.21973 12.3375C7.56559 12.775 5.61952 13.3875 3.06835 12.3375C0.517186 11.2875 -0.0388369 9.1875 0.00204718 8.26875C0.697076 8.4875 2.43056 8.79375 3.80427 8.26875C5.17797 7.74375 6.012 6.65 6.25731 6.16875C8.3424 4.59375 9.56892 5.11875 10.9181 6.16875C12.2673 7.21875 13.3711 7.0875 14.475 6.16875C15.5789 5.25 15.7015 3.675 14.475 2.75625Z" fill="url(#paint0_linear_4855_19835)"/>
<path d="M17.296 10.5C17.296 4.70101 21.6891 0 27.1082 0H75.1878C80.6069 0 85 4.70101 85 10.5C85 16.299 80.6069 21 75.1878 21H27.1082C21.6891 21 17.296 16.299 17.296 10.5Z" fill="url(#paint1_linear_4855_19835)"/>
</g>
<defs>
<linearGradient id="paint0_linear_4855_19835" x1="32.927" y1="-0.499999" x2="91.7309" y2="-0.222981" gradientUnits="userSpaceOnUse">
<stop offset="0.32" stop-color="#FF6B00"/>
<stop offset="1" stop-color="#FBAE19"/>
</linearGradient>
<linearGradient id="paint1_linear_4855_19835" x1="32.927" y1="-0.499999" x2="91.7309" y2="-0.222981" gradientUnits="userSpaceOnUse">
<stop offset="0.32" stop-color="#FF6B00"/>
<stop offset="1" stop-color="#FBAE19"/>
</linearGradient>
</defs>
</svg>
