<svg width="55" height="22" viewBox="0 0 55 22" fill="none" xmlns="http://www.w3.org/2000/svg">
<path id="Subtract" d="M54.5 16.8633V21.5H0.5V16.7101C0.629964 16.6511 0.79473 16.573 0.984373 16.4761C1.4559 16.2353 2.08764 15.875 2.7224 15.3985C3.96919 14.4624 5.34441 12.9874 5.34441 11C5.34441 9.09555 4.49739 7.62221 3.41836 6.63285C2.52058 5.80969 1.435 5.29734 0.5 5.1577V0.5H54.5V5.13665C53.1396 5.23505 51.9691 5.74183 51.1145 6.66093C50.1608 7.6867 49.6556 9.16673 49.6556 11C49.6556 12.8333 50.1608 14.3133 51.1145 15.3391C51.9691 16.2582 53.1396 16.765 54.5 16.8633Z"  stroke="#E0E0E0"/>
</svg>
