<svg width="40" height="40" viewBox="0 0 40 40" fill="none" xmlns="http://www.w3.org/2000/svg">
<g clip-path="url(#clip0_4037_296161)">
<path d="M10 0C8.67392 0 7.40215 0.526784 6.46447 1.46447C5.52678 2.40215 5 3.67392 5 5V35C5 36.3261 5.52678 37.5979 6.46447 38.5355C7.40215 39.4732 8.67392 40 10 40H30C31.3261 40 32.5979 39.4732 33.5355 38.5355C34.4732 37.5979 35 36.3261 35 35V5C35 3.67392 34.4732 2.40215 33.5355 1.46447C32.5979 0.526784 31.3261 0 30 0L10 0ZM10 2.5H30C30.663 2.5 31.2989 2.76339 31.7678 3.23223C32.2366 3.70107 32.5 4.33696 32.5 5V35C32.5 35.663 32.2366 36.2989 31.7678 36.7678C31.2989 37.2366 30.663 37.5 30 37.5H10C9.33696 37.5 8.70107 37.2366 8.23223 36.7678C7.76339 36.2989 7.5 35.663 7.5 35V5C7.5 4.33696 7.76339 3.70107 8.23223 3.23223C8.70107 2.76339 9.33696 2.5 10 2.5Z" fill="url(#paint0_linear_4037_296161)"/>
<rect x="12" y="12" width="16" height="2" rx="1" fill="url(#paint1_linear_4037_296161)"/>
<rect x="12" y="19" width="16" height="2" rx="1" fill="url(#paint2_linear_4037_296161)"/>
<rect x="12" y="26" width="16" height="2" rx="1" fill="url(#paint3_linear_4037_296161)"/>
</g>
<defs>
<linearGradient id="paint0_linear_4037_296161" x1="20" y1="0" x2="20" y2="40" gradientUnits="userSpaceOnUse">
<stop stop-color="#5BA0FE"/>
<stop offset="0.0001" stop-color="#0164F4"/>
<stop offset="1" stop-color="#0164F4"/>
</linearGradient>
<linearGradient id="paint1_linear_4037_296161" x1="20" y1="12" x2="20" y2="14" gradientUnits="userSpaceOnUse">
<stop stop-color="#5BA0FE"/>
<stop offset="0.0001" stop-color="#0164F4"/>
<stop offset="1" stop-color="#0164F4"/>
</linearGradient>
<linearGradient id="paint2_linear_4037_296161" x1="20" y1="19" x2="20" y2="21" gradientUnits="userSpaceOnUse">
<stop stop-color="#5BA0FE"/>
<stop offset="0.0001" stop-color="#0164F4"/>
<stop offset="1" stop-color="#0164F4"/>
</linearGradient>
<linearGradient id="paint3_linear_4037_296161" x1="20" y1="26" x2="20" y2="28" gradientUnits="userSpaceOnUse">
<stop stop-color="#5BA0FE"/>
<stop offset="0.0001" stop-color="#0164F4"/>
<stop offset="1" stop-color="#0164F4"/>
</linearGradient>
<clipPath id="clip0_4037_296161">
<rect width="40" height="40" fill="white"/>
</clipPath>
</defs>
</svg>
