<svg width="40" height="40" viewBox="0 0 40 40" fill="none" xmlns="http://www.w3.org/2000/svg">
<g clip-path="url(#clip0_3947_295001)">
<path d="M10 0C8.67392 0 7.40215 0.526784 6.46447 1.46447C5.52678 2.40215 5 3.67392 5 5V35C5 36.3261 5.52678 37.5979 6.46447 38.5355C7.40215 39.4732 8.67392 40 10 40H30C31.3261 40 32.5979 39.4732 33.5355 38.5355C34.4732 37.5979 35 36.3261 35 35V5C35 3.67392 34.4732 2.40215 33.5355 1.46447C32.5979 0.526784 31.3261 0 30 0L10 0ZM10 2.5H30C30.663 2.5 31.2989 2.76339 31.7678 3.23223C32.2366 3.70107 32.5 4.33696 32.5 5V35C32.5 35.663 32.2366 36.2989 31.7678 36.7678C31.2989 37.2366 30.663 37.5 30 37.5H10C9.33696 37.5 8.70107 37.2366 8.23223 36.7678C7.76339 36.2989 7.5 35.663 7.5 35V5C7.5 4.33696 7.76339 3.70107 8.23223 3.23223C8.70107 2.76339 9.33696 2.5 10 2.5V2.5Z" fill="url(#paint0_linear_3947_295001)"/>
</g>
<path d="M14.7735 13H11V13.91C11.7944 13.91 12.3902 15.17 12.5889 15.8L16.23 27H17.0906L20.4007 18.39L23.0488 27H23.9756L28.0139 16.36C28.7024 14.512 29.6249 13.9567 30 13.91V13H25.2334V13.91C27.193 13.91 26.9768 15.45 26.6237 16.22L24.1742 23.57L21.3275 14.47C21.1157 13.91 21.4599 13.8633 21.6585 13.91V13H17.8188V13.91C20.8376 13.798 18.7236 20.35 17.2892 23.64L14.5087 14.4C14.3498 13.952 14.619 13.8867 14.7735 13.91V13Z" fill="url(#paint1_linear_3947_295001)"/>
<defs>
<linearGradient id="paint0_linear_3947_295001" x1="20" y1="0" x2="20" y2="40" gradientUnits="userSpaceOnUse">
<stop stop-color="#5BA0FE"/>
<stop offset="0.0001" stop-color="#0164F4"/>
<stop offset="1" stop-color="#0164F4"/>
</linearGradient>
<linearGradient id="paint1_linear_3947_295001" x1="20.5" y1="13" x2="20.5" y2="27" gradientUnits="userSpaceOnUse">
<stop stop-color="#5BA0FE"/>
<stop offset="0.0001" stop-color="#0164F4"/>
<stop offset="1" stop-color="#0164F4"/>
</linearGradient>
<clipPath id="clip0_3947_295001">
<rect width="40" height="40" fill="white"/>
</clipPath>
</defs>
</svg>
