<svg width="40" height="40" viewBox="0 0 40 40" fill="none" xmlns="http://www.w3.org/2000/svg">
<g clip-path="url(#clip0_4007_6636)">
<path d="M10 0C8.67392 0 7.40215 0.526784 6.46447 1.46447C5.52678 2.40215 5 3.67392 5 5V35C5 36.3261 5.52678 37.5979 6.46447 38.5355C7.40215 39.4732 8.67392 40 10 40H30C31.3261 40 32.5979 39.4732 33.5355 38.5355C34.4732 37.5979 35 36.3261 35 35V5C35 3.67392 34.4732 2.40215 33.5355 1.46447C32.5979 0.526784 31.3261 0 30 0L10 0ZM10 2.5H30C30.663 2.5 31.2989 2.76339 31.7678 3.23223C32.2366 3.70107 32.5 4.33696 32.5 5V35C32.5 35.663 32.2366 36.2989 31.7678 36.7678C31.2989 37.2366 30.663 37.5 30 37.5H10C9.33696 37.5 8.70107 37.2366 8.23223 36.7678C7.76339 36.2989 7.5 35.663 7.5 35V5C7.5 4.33696 7.76339 3.70107 8.23223 3.23223C8.70107 2.76339 9.33696 2.5 10 2.5V2.5Z" fill="url(#paint0_linear_4007_6636)"/>
<path d="M11.5078 30.2152C11.0205 30.0203 10.6279 29.6439 10.4127 29.1652C9.92525 28.1952 10.0877 27.2252 10.6127 26.4102C11.1077 25.6427 11.9278 24.9902 12.8553 24.4427C14.0301 23.7764 15.272 23.2359 16.5603 22.8302C17.5607 21.0317 18.4474 19.1722 19.2153 17.2627C18.7562 16.2196 18.3963 15.1357 18.1403 14.0252C17.9253 13.0252 17.8428 12.0352 18.0253 11.1852C18.2128 10.3002 18.7103 9.50519 19.6503 9.12769C20.1303 8.93519 20.6503 8.82769 21.1553 8.93519C21.4093 8.98927 21.6481 9.09921 21.8543 9.25704C22.0606 9.41487 22.2291 9.61664 22.3478 9.84769C22.5678 10.2577 22.6478 10.7377 22.6653 11.1927C22.6828 11.6602 22.6353 12.1802 22.5478 12.7277C22.3378 14.0027 21.8728 15.5627 21.2478 17.2127C21.9375 18.6877 22.7574 20.0983 23.6978 21.4277C24.8105 21.3398 25.9297 21.3818 27.0328 21.5527C27.9428 21.7152 28.8678 22.0402 29.4328 22.7152C29.7328 23.0752 29.9153 23.5152 29.9328 24.0102C29.9503 24.4902 29.8153 24.9652 29.5878 25.4177C29.3907 25.837 29.0851 26.1961 28.7028 26.4577C28.3248 26.7043 27.8785 26.825 27.4278 26.8027C26.6003 26.7677 25.7928 26.3127 25.0953 25.7602C24.2472 25.0589 23.4829 24.2619 22.8178 23.3852C21.1271 23.5769 19.4566 23.9166 17.8253 24.4002C17.0774 25.7251 16.2238 26.9876 15.2728 28.1752C14.5478 29.0502 13.7528 29.8127 12.9578 30.1427C12.501 30.3493 11.9829 30.3752 11.5078 30.2152ZM14.9553 25.4627C14.5403 25.6527 14.1553 25.8527 13.8077 26.0577C12.9877 26.5427 12.4553 27.0152 12.1902 27.4252C11.9552 27.7877 11.9503 28.0502 12.0903 28.3277C12.1153 28.3827 12.1403 28.4177 12.1553 28.4377C12.1851 28.4297 12.2143 28.4197 12.2427 28.4077C12.5852 28.2677 13.1303 27.8202 13.8303 26.9777C14.2284 26.4903 14.6038 25.9847 14.9553 25.4627ZM19.0553 22.1377C19.89 21.9427 20.7324 21.7817 21.5803 21.6552C21.1248 20.9587 20.6995 20.2431 20.3053 19.5102C19.9132 20.3967 19.4964 21.2721 19.0553 22.1352V22.1377ZM25.1703 23.2627C25.5453 23.6677 25.9103 24.0127 26.2578 24.2877C26.8578 24.7627 27.2753 24.9202 27.5028 24.9277C27.5637 24.9357 27.6255 24.9224 27.6778 24.8902C27.7817 24.8081 27.8627 24.7004 27.9128 24.5777C28.0016 24.4254 28.0522 24.2538 28.0603 24.0777C28.0588 24.019 28.0357 23.9629 27.9953 23.9202C27.8653 23.7652 27.4953 23.5402 26.7003 23.3977C26.1946 23.3132 25.683 23.2689 25.1703 23.2652V23.2627ZM20.1953 14.4977C20.4057 13.819 20.5727 13.1276 20.6953 12.4277C20.7728 11.9577 20.8028 11.5702 20.7903 11.2652C20.7909 11.0969 20.7639 10.9297 20.7103 10.7702C20.5852 10.7857 20.4631 10.8194 20.3478 10.8702C20.1303 10.9577 19.9528 11.1352 19.8578 11.5777C19.7578 12.0577 19.7828 12.7502 19.9728 13.6327C20.0328 13.9102 20.1078 14.2002 20.1978 14.4977H20.1953Z" fill="url(#paint1_linear_4007_6636)"/>
</g>
<defs>
<linearGradient id="paint0_linear_4007_6636" x1="20" y1="0" x2="20" y2="40" gradientUnits="userSpaceOnUse">
<stop stop-color="#0A6FE8"/>
<stop offset="1" stop-color="#0A6FE8"/>
</linearGradient>
<linearGradient id="paint1_linear_4007_6636" x1="20.0277" y1="8.89258" x2="20.0277" y2="30.3189" gradientUnits="userSpaceOnUse">
<stop stop-color="#0A6FE8"/>
<stop offset="1" stop-color="#0A6FE8"/>
</linearGradient>
<clipPath id="clip0_4007_6636">
<rect width="40" height="40" fill="white"/>
</clipPath>
</defs>
</svg>
