<svg width="40" height="40" viewBox="0 0 40 40" fill="none" xmlns="http://www.w3.org/2000/svg">
<g clip-path="url(#clip0_3949_295561)">
<path d="M10 0C8.67392 0 7.40215 0.526784 6.46447 1.46447C5.52678 2.40215 5 3.67392 5 5V35C5 36.3261 5.52678 37.5979 6.46447 38.5355C7.40215 39.4732 8.67392 40 10 40H30C31.3261 40 32.5979 39.4732 33.5355 38.5355C34.4732 37.5979 35 36.3261 35 35V5C35 3.67392 34.4732 2.40215 33.5355 1.46447C32.5979 0.526784 31.3261 0 30 0L10 0ZM10 2.5H30C30.663 2.5 31.2989 2.76339 31.7678 3.23223C32.2366 3.70107 32.5 4.33696 32.5 5V35C32.5 35.663 32.2366 36.2989 31.7678 36.7678C31.2989 37.2366 30.663 37.5 30 37.5H10C9.33696 37.5 8.70107 37.2366 8.23223 36.7678C7.76339 36.2989 7.5 35.663 7.5 35V5C7.5 4.33696 7.76339 3.70107 8.23223 3.23223C8.70107 2.76339 9.33696 2.5 10 2.5V2.5Z" fill="url(#paint0_linear_3949_295561)"/>
<path d="M28 27.9806C26.8232 27.9806 25.7101 27.9474 24.6029 27.9972C24.0116 28.0249 23.6696 27.8478 23.3391 27.3774C22.3072 25.8998 21.2116 24.4665 20.1391 23.0111C20.0928 22.9502 20.0464 22.8948 19.9826 22.8063C19.1884 23.8799 18.4058 24.9424 17.5942 26.0382C18.4348 26.0382 19.2232 26.0382 20.029 26.0382C20.029 26.6912 20.029 27.3221 20.029 27.9696C17.3681 27.9696 14.7072 27.9696 12 27.9696C13.971 25.352 15.9188 22.762 17.8783 20.1666C16.1043 17.7869 14.342 15.4184 12.5565 13.0166C12.6725 13.0111 12.7478 13.0055 12.8232 13.0055C14.0116 13.0055 15.2 13.0111 16.3884 13C16.5565 13 16.6493 13.0498 16.742 13.1771C17.7913 14.6491 18.8522 16.1212 19.9072 17.5932C19.9536 17.6597 20.0058 17.7261 20.0696 17.8146C20.3478 17.4162 20.6203 17.0343 20.887 16.6525C21.6986 15.4958 22.5159 14.3448 23.3275 13.1826C23.4203 13.0498 23.5188 13 23.6812 13C24.8696 13.0055 26.058 13.0055 27.2464 13.0055C27.3043 13.0055 27.3681 13.0055 27.4841 13.0055C25.6812 15.4516 23.9072 17.8589 22.1275 20.2772C24.0638 22.834 26.0174 25.3852 28 27.9806Z" fill="url(#paint1_linear_3949_295561)"/>
</g>
<defs>
<linearGradient id="paint0_linear_3949_295561" x1="20" y1="0" x2="20" y2="40" gradientUnits="userSpaceOnUse">
<stop stop-color="#00B746"/>
<stop offset="1" stop-color="#03A03F"/>
</linearGradient>
<linearGradient id="paint1_linear_3949_295561" x1="20" y1="13" x2="20" y2="28" gradientUnits="userSpaceOnUse">
<stop stop-color="#00B746"/>
<stop offset="1" stop-color="#03A03F"/>
</linearGradient>
<clipPath id="clip0_3949_295561">
<rect width="40" height="40" fill="white"/>
</clipPath>
</defs>
</svg>
